<svg width="112" height="112" viewBox="0 0 112 112" fill="none" xmlns="http://www.w3.org/2000/svg">
<path d="M55.9997 53.2311C55.1451 53.2311 54.4524 53.9238 54.4524 54.7784C54.4538 55.6316 55.1466 56.3243 55.9997 56.3258C56.8544 56.3258 57.5471 55.6331 57.5471 54.7784C57.5471 53.9238 56.8544 53.2311 55.9997 53.2311Z" fill="#E95018"/>
<path d="M55.9975 25.389C51.7229 25.3904 48.2636 28.8498 48.2621 33.1244C48.2621 37.3888 51.7317 40.8583 55.9975 40.8598C60.2604 40.8583 63.7314 37.3902 63.7314 33.1258C63.7314 28.8527 60.2721 25.3904 55.996 25.3904L55.9975 25.389ZM60.6381 33.1244C60.6381 35.6824 58.5555 37.765 55.9975 37.765C53.438 37.7636 51.3569 35.6824 51.3569 33.1244C51.3569 30.5605 53.4336 28.4837 55.9975 28.4837C58.5614 28.4837 60.6381 30.5605 60.6381 33.1244Z" fill="#E95018"/>
<path d="M55.9987 0.637776C55.5699 0.637776 55.1601 0.814239 54.867 1.13071C54.6278 1.38739 48.9765 7.51124 44.451 16.9865C40.8225 24.5761 38.9835 32.0854 38.9835 39.3103C38.9835 40.9292 39.0535 42.5742 39.1935 44.2193C33.5203 45.6894 31.3181 49.21 30.4766 51.9853C28.5413 58.3805 32.0152 67.0113 36.3438 71.3398C36.7857 71.7817 37.4521 71.9145 38.0297 71.6753C38.2207 71.5951 38.3899 71.4813 38.5314 71.3398C38.8158 71.0555 38.9849 70.6646 38.9835 70.246C38.9835 65.8533 41.8303 63.2807 42.8322 62.5121L43.5993 62.5121C44.6392 65.06 45.8146 67.4517 47.1053 69.6321C47.5706 70.4211 48.291 71.0307 49.1384 71.3996C48.571 72.9383 48.2662 74.6665 48.2677 76.4355C48.2677 82.0679 54.5563 89.4999 54.8261 89.8135C55.1207 90.1577 55.5495 90.356 56.0016 90.356C56.4129 90.356 56.8067 90.1927 57.0954 89.9039C57.1231 89.8762 57.1523 89.847 57.1785 89.8149C57.4454 89.5014 63.7385 82.0679 63.737 76.437C63.737 74.6694 63.4337 72.9397 62.8663 71.4011C63.7618 71.0102 64.456 70.3802 64.8993 69.6306C66.1886 67.4517 67.3641 65.06 68.4039 62.5121L69.1681 62.5121C70.17 63.2807 73.0168 65.8533 73.0168 70.246C73.0168 70.8702 73.3931 71.4361 73.9706 71.6753C74.5482 71.9145 75.2147 71.7817 75.6566 71.3398C79.9866 67.0098 83.4605 58.379 81.5237 51.9853C80.6837 49.2085 78.4815 45.6879 72.8068 44.2193C72.9454 42.5757 73.0168 40.9292 73.0154 39.3089C73.0168 32.0854 71.1763 24.5746 67.5478 16.985C63.0209 7.51124 57.3696 1.38448 57.1304 1.13072C56.8387 0.815701 56.4275 0.637776 55.9972 0.636317L55.9987 0.637776ZM36.4342 66.5417C33.8251 62.5734 32.1902 56.992 33.4357 52.8823C34.267 50.1346 36.3175 48.2737 39.5347 47.3316C40.0933 51.4341 41.0632 55.4841 42.4297 59.4174C42.4034 59.4232 41.9601 59.3736 41.5109 59.6566C41.3271 59.7732 37.8095 62.0454 36.4342 66.5417ZM60.6393 76.4341C60.6393 79.4413 57.9048 83.7626 55.9972 86.3177C54.0911 83.764 51.3566 79.4428 51.3566 76.4355C51.3566 74.7496 51.6935 73.1351 52.3162 71.7949L59.6783 71.7949C60.301 73.1351 60.6393 74.7511 60.6379 76.4355L60.6393 76.4341ZM62.2319 68.0541C61.9957 68.4507 61.5115 68.6987 60.9646 68.7001C58.1353 68.7001 57.0269 68.7001 56.6798 68.7001C56.0439 68.7001 54.4805 68.7001 51.0299 68.7001C50.4845 68.7001 49.9974 68.4522 49.7625 68.0541C48.7475 66.339 47.8068 64.4824 46.9507 62.5092L65.0408 62.5092C64.1847 64.4795 63.2426 66.3375 62.229 68.0511L62.2319 68.0541ZM78.5617 52.8823C79.8057 56.9935 78.1708 62.5748 75.5618 66.5432C74.6371 63.5213 72.3562 60.7795 70.4515 59.6391C70.0096 59.3751 69.6012 59.4276 69.5662 59.4188C70.9342 55.4841 71.9041 51.4341 72.4626 47.3316C75.6813 48.2722 77.7304 50.1346 78.5617 52.8823ZM69.9206 39.3089C69.9206 41.2806 69.8127 43.2932 69.5969 45.2942C69.0791 50.0996 67.9635 54.8467 66.2819 59.4188L45.7155 59.4188C44.0339 54.8467 42.9197 50.1011 42.402 45.2956C42.1861 43.2947 42.0768 41.2806 42.0782 39.3103C42.0782 32.8292 43.6825 26.068 46.8355 19.2018L65.1648 19.2018C68.3193 26.0695 69.9221 32.8292 69.9221 39.3103L69.9206 39.3089ZM63.6437 16.1056L48.3537 16.1056C51.2253 10.6468 54.3638 6.53703 55.9987 4.55505C57.6321 6.53849 60.7721 10.6468 63.6437 16.1056Z" fill="white"/>
<path d="M71.4657 74.8882C70.6111 74.8882 69.9183 75.5809 69.9198 76.4341L69.9198 82.6206C69.9198 83.4752 70.6125 84.168 71.4672 84.168C72.3218 84.168 73.0145 83.4752 73.0145 82.6206L73.0145 76.4341C73.0145 75.5794 72.3218 74.8867 71.4672 74.8867L71.4657 74.8882Z" fill="#E95018"/>
<path d="M40.5292 74.8891C39.6745 74.8891 38.9818 75.5819 38.9818 76.4365L38.9803 82.6245C38.9789 83.4777 39.6731 84.1719 40.5277 84.1719C41.3809 84.1734 42.0751 83.4792 42.0736 82.626L42.0751 76.438C42.0751 75.5833 41.3823 74.8906 40.5292 74.8921L40.5292 74.8891Z" fill="#E95018"/>
<path d="M65.2806 84.1709C64.426 84.1709 63.7333 84.8636 63.7347 85.7168L63.7333 100.536C63.7333 101.39 64.426 102.083 65.2806 102.083C66.1338 102.082 66.828 101.39 66.828 100.536L66.828 85.7183C66.828 84.8636 66.1353 84.1709 65.2806 84.1709Z" fill="white"/>
<path d="M56.5311 92.9204C55.6765 92.9204 54.9838 93.6131 54.9852 94.4663L54.9852 109.284C54.9852 110.138 55.678 110.831 56.5326 110.831C57.3858 110.83 58.08 110.138 58.0785 109.285L58.08 94.4663C58.08 93.6117 57.3872 92.9189 56.5326 92.9189L56.5311 92.9204Z" fill="white"/>
<path d="M46.7186 84.1723C45.864 84.1723 45.1713 84.8651 45.1713 85.7197L45.1727 100.536C45.1727 101.39 45.8655 102.083 46.7201 102.083C47.5747 102.083 48.2675 101.39 48.2675 100.536L48.2675 85.7182C48.2675 84.8636 47.5747 84.1709 46.7201 84.1709L46.7186 84.1723Z" fill="white"/>
<path d="M55.9979 43.9497C55.1433 43.9497 54.452 44.641 54.4506 45.4971L54.452 48.5903C54.452 49.445 55.1448 50.1377 55.9994 50.1377C56.854 50.1377 57.5453 49.4464 57.5453 48.5918L57.5453 45.5C57.5453 44.6453 56.8525 43.9526 55.9979 43.9526L55.9979 43.9497Z" fill="#E95018"/>
</svg>
