<svg width="119" height="36" viewBox="0 0 119 36" fill="none" xmlns="http://www.w3.org/2000/svg">
<path d="M16.594 3.242V4.278H12.352V7.568H15.796V8.604H12.352V13H11.078V3.242H16.594ZM18.9867 4.278V7.54H22.5427V8.59H18.9867V11.95H22.9627V13H17.7127V3.228H22.9627V4.278H18.9867ZM36.7344 3.242L33.9064 13H32.4784L30.2104 5.146L27.8584 13L26.4444 13.014L23.7144 3.242H25.0724L27.2004 11.516L29.5524 3.242H30.9804L33.2204 11.488L35.3624 3.242H36.7344ZM38.9826 4.278V7.54H42.5386V8.59H38.9826V11.95H42.9586V13H37.7086V3.228H42.9586V4.278H38.9826ZM49.6044 13L47.2804 9.01H45.7404V13H44.4664V3.242H47.6164C48.3537 3.242 48.9744 3.368 49.4784 3.62C49.9917 3.872 50.3744 4.21267 50.6264 4.642C50.8784 5.07133 51.0044 5.56133 51.0044 6.112C51.0044 6.784 50.8084 7.37667 50.4164 7.89C50.0337 8.40333 49.455 8.744 48.6804 8.912L51.1304 13H49.6044ZM45.7404 7.988H47.6164C48.307 7.988 48.825 7.82 49.1704 7.484C49.5157 7.13867 49.6884 6.68133 49.6884 6.112C49.6884 5.53333 49.5157 5.08533 49.1704 4.768C48.8344 4.45067 48.3164 4.292 47.6164 4.292H45.7404V7.988ZM68.1404 3.242L65.3124 13H63.8844L61.6164 5.146L59.2644 13L57.8504 13.014L55.1204 3.242H56.4784L58.6064 11.516L60.9584 3.242H62.3864L64.6264 11.488L66.7684 3.242H68.1404ZM74.8826 10.83H70.6266L69.8426 13H68.4986L72.0266 3.298H73.4966L77.0106 13H75.6666L74.8826 10.83ZM74.5186 9.794L72.7546 4.866L70.9906 9.794H74.5186ZM81.2222 13.098C80.5782 13.098 79.9995 12.986 79.4862 12.762C78.9822 12.5287 78.5855 12.2113 78.2962 11.81C78.0068 11.3993 77.8575 10.928 77.8482 10.396H79.2062C79.2528 10.8533 79.4395 11.2407 79.7662 11.558C80.1022 11.866 80.5875 12.02 81.2222 12.02C81.8288 12.02 82.3048 11.8707 82.6502 11.572C83.0048 11.264 83.1822 10.872 83.1822 10.396C83.1822 10.0227 83.0795 9.71933 82.8742 9.486C82.6688 9.25267 82.4122 9.07533 82.1042 8.954C81.7962 8.83267 81.3808 8.702 80.8582 8.562C80.2142 8.394 79.6962 8.226 79.3042 8.058C78.9215 7.89 78.5902 7.62867 78.3102 7.274C78.0395 6.91 77.9042 6.42467 77.9042 5.818C77.9042 5.286 78.0395 4.81467 78.3102 4.404C78.5808 3.99333 78.9588 3.676 79.4442 3.452C79.9388 3.228 80.5035 3.116 81.1382 3.116C82.0528 3.116 82.7995 3.34467 83.3782 3.802C83.9662 4.25933 84.2975 4.866 84.3722 5.622H82.9722C82.9255 5.24867 82.7295 4.922 82.3842 4.642C82.0388 4.35267 81.5815 4.208 81.0122 4.208C80.4802 4.208 80.0462 4.348 79.7102 4.628C79.3742 4.89867 79.2062 5.28133 79.2062 5.776C79.2062 6.13067 79.3042 6.42 79.5002 6.644C79.7055 6.868 79.9528 7.04067 80.2422 7.162C80.5408 7.274 80.9562 7.40467 81.4882 7.554C82.1322 7.73133 82.6502 7.90867 83.0422 8.086C83.4342 8.254 83.7702 8.52 84.0502 8.884C84.3302 9.23867 84.4702 9.724 84.4702 10.34C84.4702 10.816 84.3442 11.264 84.0922 11.684C83.8402 12.104 83.4668 12.4447 82.9722 12.706C82.4775 12.9673 81.8942 13.098 81.2222 13.098ZM91.931 3.242V4.278H89.271V13H87.997V4.278H85.323V3.242H91.931ZM94.3532 4.278V7.54H97.9092V8.59H94.3532V11.95H98.3292V13H93.0792V3.228H98.3292V4.278H94.3532ZM102.875 3.242C103.939 3.242 104.858 3.44267 105.633 3.844C106.417 4.236 107.014 4.80067 107.425 5.538C107.845 6.27533 108.055 7.14333 108.055 8.142C108.055 9.14067 107.845 10.0087 107.425 10.746C107.014 11.474 106.417 12.034 105.633 12.426C104.858 12.8087 103.939 13 102.875 13H99.8369V3.242H102.875ZM102.875 11.95C104.135 11.95 105.096 11.6187 105.759 10.956C106.422 10.284 106.753 9.346 106.753 8.142C106.753 6.92867 106.417 5.98133 105.745 5.3C105.082 4.61867 104.126 4.278 102.875 4.278H101.111V11.95H102.875Z" fill="#71717A"/>
<path d="M7.05078 23.2129L3.18359 35H0.0683594L5.35156 20.7812H7.33398L7.05078 23.2129ZM10.2637 35L6.38672 23.2129L6.07422 20.7812H8.07617L13.3887 35H10.2637ZM10.0879 29.707V32.002H2.57812V29.707H10.0879ZM19.0723 35H15.9766L15.9961 32.7148H19.0723C19.8405 32.7148 20.4883 32.5423 21.0156 32.1973C21.543 31.8457 21.9401 31.3346 22.207 30.6641C22.4805 29.9935 22.6172 29.1829 22.6172 28.2324V27.5391C22.6172 26.8099 22.5391 26.1686 22.3828 25.6152C22.2331 25.0618 22.0085 24.5964 21.709 24.2188C21.4095 23.8411 21.0417 23.5579 20.6055 23.3691C20.1693 23.1738 19.668 23.0762 19.1016 23.0762H15.918V20.7812H19.1016C20.0521 20.7812 20.9212 20.944 21.709 21.2695C22.5033 21.5885 23.1901 22.0475 23.7695 22.6465C24.349 23.2454 24.7949 23.9616 25.1074 24.7949C25.4264 25.6217 25.5859 26.543 25.5859 27.5586V28.2324C25.5859 29.2415 25.4264 30.1628 25.1074 30.9961C24.7949 31.8294 24.349 32.5456 23.7695 33.1445C23.1966 33.737 22.5098 34.196 21.709 34.5215C20.9147 34.8405 20.0358 35 19.0723 35ZM17.6367 20.7812V35H14.707V20.7812H17.6367ZM37.0605 35H33.9648L33.9844 32.7148H37.0605C37.8288 32.7148 38.4766 32.5423 39.0039 32.1973C39.5312 31.8457 39.9284 31.3346 40.1953 30.6641C40.4688 29.9935 40.6055 29.1829 40.6055 28.2324V27.5391C40.6055 26.8099 40.5273 26.1686 40.3711 25.6152C40.2214 25.0618 39.9967 24.5964 39.6973 24.2188C39.3978 23.8411 39.0299 23.5579 38.5938 23.3691C38.1576 23.1738 37.6562 23.0762 37.0898 23.0762H33.9062V20.7812H37.0898C38.0404 20.7812 38.9095 20.944 39.6973 21.2695C40.4915 21.5885 41.1784 22.0475 41.7578 22.6465C42.3372 23.2454 42.7832 23.9616 43.0957 24.7949C43.4147 25.6217 43.5742 26.543 43.5742 27.5586V28.2324C43.5742 29.2415 43.4147 30.1628 43.0957 30.9961C42.7832 31.8294 42.3372 32.5456 41.7578 33.1445C41.1849 33.737 40.498 34.196 39.6973 34.5215C38.903 34.8405 38.0241 35 37.0605 35ZM35.625 20.7812V35H32.6953V20.7812H35.625ZM57.3828 27.5586V28.2324C57.3828 29.3132 57.2363 30.2832 56.9434 31.1426C56.6504 32.002 56.237 32.7344 55.7031 33.3398C55.1693 33.9388 54.5312 34.3978 53.7891 34.7168C53.0534 35.0358 52.2363 35.1953 51.3379 35.1953C50.446 35.1953 49.6289 35.0358 48.8867 34.7168C48.151 34.3978 47.513 33.9388 46.9727 33.3398C46.4323 32.7344 46.0124 32.002 45.7129 31.1426C45.4199 30.2832 45.2734 29.3132 45.2734 28.2324V27.5586C45.2734 26.4714 45.4199 25.5013 45.7129 24.6484C46.0059 23.7891 46.4193 23.0566 46.9531 22.4512C47.4935 21.8457 48.1315 21.3835 48.8672 21.0645C49.6094 20.7454 50.4264 20.5859 51.3184 20.5859C52.2168 20.5859 53.0339 20.7454 53.7695 21.0645C54.5117 21.3835 55.1497 21.8457 55.6836 22.4512C56.224 23.0566 56.6406 23.7891 56.9336 24.6484C57.2331 25.5013 57.3828 26.4714 57.3828 27.5586ZM54.4238 28.2324V27.5391C54.4238 26.7839 54.3555 26.1198 54.2188 25.5469C54.082 24.974 53.8802 24.4922 53.6133 24.1016C53.3464 23.7109 53.0208 23.418 52.6367 23.2227C52.2526 23.0208 51.8132 22.9199 51.3184 22.9199C50.8236 22.9199 50.3841 23.0208 50 23.2227C49.6224 23.418 49.3001 23.7109 49.0332 24.1016C48.7728 24.4922 48.5742 24.974 48.4375 25.5469C48.3008 26.1198 48.2324 26.7839 48.2324 27.5391V28.2324C48.2324 28.9811 48.3008 29.6452 48.4375 30.2246C48.5742 30.7975 48.776 31.2826 49.043 31.6797C49.3099 32.0703 49.6354 32.3665 50.0195 32.5684C50.4036 32.7702 50.8431 32.8711 51.3379 32.8711C51.8327 32.8711 52.2721 32.7702 52.6562 32.5684C53.0404 32.3665 53.3626 32.0703 53.623 31.6797C53.8835 31.2826 54.082 30.7975 54.2188 30.2246C54.3555 29.6452 54.4238 28.9811 54.4238 28.2324ZM68.6328 32.7148V35H61.4746V32.7148H68.6328ZM62.4219 20.7812V35H59.4922V20.7812H62.4219ZM79.4531 32.7148V35H72.2949V32.7148H79.4531ZM73.2422 20.7812V35H70.3125V20.7812H73.2422ZM87.1094 23.2129L83.2422 35H80.127L85.4102 20.7812H87.3926L87.1094 23.2129ZM90.3223 35L86.4453 23.2129L86.1328 20.7812H88.1348L93.4473 35H90.3223ZM90.1465 29.707V32.002H82.6367V29.707H90.1465ZM94.7656 20.7812H100.068C101.156 20.7812 102.09 20.944 102.871 21.2695C103.659 21.5951 104.264 22.0768 104.688 22.7148C105.111 23.3529 105.322 24.1374 105.322 25.0684C105.322 25.8301 105.192 26.4844 104.932 27.0312C104.678 27.5716 104.316 28.0241 103.848 28.3887C103.385 28.7467 102.842 29.0332 102.217 29.248L101.289 29.7363H96.6797L96.6602 27.4512H100.088C100.602 27.4512 101.029 27.36 101.367 27.1777C101.706 26.9954 101.96 26.7415 102.129 26.416C102.305 26.0905 102.393 25.7129 102.393 25.2832C102.393 24.8275 102.308 24.4336 102.139 24.1016C101.969 23.7695 101.712 23.5156 101.367 23.3398C101.022 23.1641 100.589 23.0762 100.068 23.0762H97.6953V35H94.7656V20.7812ZM102.715 35L99.4727 28.6621L102.568 28.6426L105.85 34.8633V35H102.715ZM114.98 31.2793C114.98 31.0254 114.941 30.7975 114.863 30.5957C114.792 30.3874 114.655 30.1986 114.453 30.0293C114.251 29.8535 113.968 29.681 113.604 29.5117C113.239 29.3424 112.767 29.1667 112.188 28.9844C111.543 28.776 110.931 28.5417 110.352 28.2812C109.779 28.0208 109.271 27.7181 108.828 27.373C108.392 27.0215 108.047 26.6146 107.793 26.1523C107.546 25.6901 107.422 25.153 107.422 24.541C107.422 23.9486 107.552 23.4115 107.812 22.9297C108.073 22.4414 108.438 22.0247 108.906 21.6797C109.375 21.3281 109.928 21.0579 110.566 20.8691C111.211 20.6803 111.917 20.5859 112.686 20.5859C113.734 20.5859 114.648 20.7747 115.43 21.1523C116.211 21.5299 116.816 22.0475 117.246 22.7051C117.682 23.3626 117.9 24.1146 117.9 24.9609H114.99C114.99 24.5443 114.902 24.1797 114.727 23.8672C114.557 23.5482 114.297 23.2975 113.945 23.1152C113.6 22.9329 113.164 22.8418 112.637 22.8418C112.129 22.8418 111.706 22.9199 111.367 23.0762C111.029 23.2259 110.775 23.431 110.605 23.6914C110.436 23.9453 110.352 24.2318 110.352 24.5508C110.352 24.7917 110.41 25.0098 110.527 25.2051C110.651 25.4004 110.833 25.5827 111.074 25.752C111.315 25.9212 111.611 26.0807 111.963 26.2305C112.314 26.3802 112.721 26.5267 113.184 26.6699C113.958 26.9043 114.639 27.168 115.225 27.4609C115.817 27.7539 116.312 28.0827 116.709 28.4473C117.106 28.8118 117.406 29.2253 117.607 29.6875C117.809 30.1497 117.91 30.6738 117.91 31.2598C117.91 31.8783 117.79 32.4316 117.549 32.9199C117.308 33.4082 116.96 33.8216 116.504 34.1602C116.048 34.4987 115.505 34.7559 114.873 34.9316C114.242 35.1074 113.535 35.1953 112.754 35.1953C112.051 35.1953 111.357 35.1042 110.674 34.9219C109.99 34.7331 109.368 34.4499 108.809 34.0723C108.255 33.6947 107.812 33.2129 107.48 32.627C107.148 32.041 106.982 31.3477 106.982 30.5469H109.922C109.922 30.9896 109.99 31.3639 110.127 31.6699C110.264 31.9759 110.456 32.2233 110.703 32.4121C110.957 32.6009 111.257 32.7376 111.602 32.8223C111.953 32.9069 112.337 32.9492 112.754 32.9492C113.262 32.9492 113.678 32.8776 114.004 32.7344C114.336 32.5911 114.58 32.3926 114.736 32.1387C114.899 31.8848 114.98 31.5983 114.98 31.2793Z" fill="#FAFAFA"/>
</svg>
