<svg width="98" height="36" viewBox="0 0 98 36" fill="none" xmlns="http://www.w3.org/2000/svg">
<path d="M15.352 3.242V13H14.078V3.242H15.352ZM24.7753 13H23.5013L18.3773 5.23V13H17.1033V3.228H18.3773L23.5013 10.984V3.228H24.7753V13ZM26.0511 8.114C26.0511 7.162 26.2657 6.308 26.6951 5.552C27.1244 4.78667 27.7077 4.18933 28.4451 3.76C29.1917 3.33067 30.0177 3.116 30.9231 3.116C31.9871 3.116 32.9157 3.37267 33.7091 3.886C34.5024 4.39933 35.0811 5.12733 35.4451 6.07H33.9191C33.6484 5.482 33.2564 5.02933 32.7431 4.712C32.2391 4.39467 31.6324 4.236 30.9231 4.236C30.2417 4.236 29.6304 4.39467 29.0891 4.712C28.5477 5.02933 28.1231 5.482 27.8151 6.07C27.5071 6.64867 27.3531 7.33 27.3531 8.114C27.3531 8.88867 27.5071 9.57 27.8151 10.158C28.1231 10.7367 28.5477 11.1847 29.0891 11.502C29.6304 11.8193 30.2417 11.978 30.9231 11.978C31.6324 11.978 32.2391 11.824 32.7431 11.516C33.2564 11.1987 33.6484 10.746 33.9191 10.158H35.4451C35.0811 11.0913 34.5024 11.8147 33.7091 12.328C32.9157 12.832 31.9871 13.084 30.9231 13.084C30.0177 13.084 29.1917 12.874 28.4451 12.454C27.7077 12.0247 27.1244 11.432 26.6951 10.676C26.2657 9.92 26.0511 9.066 26.0511 8.114ZM42.0595 13L39.7355 9.01H38.1955V13H36.9215V3.242H40.0715C40.8088 3.242 41.4295 3.368 41.9335 3.62C42.4468 3.872 42.8295 4.21267 43.0815 4.642C43.3335 5.07133 43.4595 5.56133 43.4595 6.112C43.4595 6.784 43.2635 7.37667 42.8715 7.89C42.4888 8.40333 41.9102 8.744 41.1355 8.912L43.5855 13H42.0595ZM38.1955 7.988H40.0715C40.7622 7.988 41.2802 7.82 41.6255 7.484C41.9708 7.13867 42.1435 6.68133 42.1435 6.112C42.1435 5.53333 41.9708 5.08533 41.6255 4.768C41.2895 4.45067 40.7715 4.292 40.0715 4.292H38.1955V7.988ZM46.2931 4.278V7.54H49.8491V8.59H46.2931V11.95H50.2691V13H45.0191V3.228H50.2691V4.278H46.2931ZM57.5448 10.83H53.2888L52.5048 13H51.1608L54.6888 3.298H56.1588L59.6728 13H58.3288L57.5448 10.83ZM57.1808 9.794L55.4168 4.866L53.6528 9.794H57.1808ZM63.8844 13.098C63.2404 13.098 62.6618 12.986 62.1484 12.762C61.6444 12.5287 61.2478 12.2113 60.9584 11.81C60.6691 11.3993 60.5198 10.928 60.5104 10.396H61.8684C61.9151 10.8533 62.1018 11.2407 62.4284 11.558C62.7644 11.866 63.2498 12.02 63.8844 12.02C64.4911 12.02 64.9671 11.8707 65.3124 11.572C65.6671 11.264 65.8444 10.872 65.8444 10.396C65.8444 10.0227 65.7418 9.71933 65.5364 9.486C65.3311 9.25267 65.0744 9.07533 64.7664 8.954C64.4584 8.83267 64.0431 8.702 63.5204 8.562C62.8764 8.394 62.3584 8.226 61.9664 8.058C61.5838 7.89 61.2524 7.62867 60.9724 7.274C60.7018 6.91 60.5664 6.42467 60.5664 5.818C60.5664 5.286 60.7018 4.81467 60.9724 4.404C61.2431 3.99333 61.6211 3.676 62.1064 3.452C62.6011 3.228 63.1658 3.116 63.8004 3.116C64.7151 3.116 65.4618 3.34467 66.0404 3.802C66.6284 4.25933 66.9598 4.866 67.0344 5.622H65.6344C65.5878 5.24867 65.3918 4.922 65.0464 4.642C64.7011 4.35267 64.2438 4.208 63.6744 4.208C63.1424 4.208 62.7084 4.348 62.3724 4.628C62.0364 4.89867 61.8684 5.28133 61.8684 5.776C61.8684 6.13067 61.9664 6.42 62.1624 6.644C62.3678 6.868 62.6151 7.04067 62.9044 7.162C63.2031 7.274 63.6184 7.40467 64.1504 7.554C64.7944 7.73133 65.3124 7.90867 65.7044 8.086C66.0964 8.254 66.4324 8.52 66.7124 8.884C66.9924 9.23867 67.1324 9.724 67.1324 10.34C67.1324 10.816 67.0064 11.264 66.7544 11.684C66.5024 12.104 66.1291 12.4447 65.6344 12.706C65.1398 12.9673 64.5564 13.098 63.8844 13.098ZM69.8612 4.278V7.54H73.4172V8.59H69.8612V11.95H73.8372V13H68.5872V3.228H73.8372V4.278H69.8612ZM78.383 3.242C79.447 3.242 80.3663 3.44267 81.141 3.844C81.925 4.236 82.5223 4.80067 82.933 5.538C83.353 6.27533 83.563 7.14333 83.563 8.142C83.563 9.14067 83.353 10.0087 82.933 10.746C82.5223 11.474 81.925 12.034 81.141 12.426C80.3663 12.8087 79.447 13 78.383 13H75.345V3.242H78.383ZM78.383 11.95C79.643 11.95 80.6043 11.6187 81.267 10.956C81.9296 10.284 82.261 9.346 82.261 8.142C82.261 6.92867 81.925 5.98133 81.253 5.3C80.5903 4.61867 79.6336 4.278 78.383 4.278H76.619V11.95H78.383Z" fill="#71717A"/>
<path d="M6.39648 32.0312L9.74609 20.7812H13.0078L8.05664 35H5.9082L6.39648 32.0312ZM3.31055 20.7812L6.65039 32.0312L7.1582 35H4.99023L0.0683594 20.7812H3.31055ZM17.4512 20.7812V35H14.5312V20.7812H17.4512ZM27.5977 31.2793C27.5977 31.0254 27.5586 30.7975 27.4805 30.5957C27.4089 30.3874 27.2721 30.1986 27.0703 30.0293C26.8685 29.8535 26.5853 29.681 26.2207 29.5117C25.8561 29.3424 25.3841 29.1667 24.8047 28.9844C24.1602 28.776 23.5482 28.5417 22.9688 28.2812C22.3958 28.0208 21.888 27.7181 21.4453 27.373C21.0091 27.0215 20.6641 26.6146 20.4102 26.1523C20.1628 25.6901 20.0391 25.153 20.0391 24.541C20.0391 23.9486 20.1693 23.4115 20.4297 22.9297C20.6901 22.4414 21.0547 22.0247 21.5234 21.6797C21.9922 21.3281 22.5456 21.0579 23.1836 20.8691C23.8281 20.6803 24.5345 20.5859 25.3027 20.5859C26.3509 20.5859 27.2656 20.7747 28.0469 21.1523C28.8281 21.5299 29.4336 22.0475 29.8633 22.7051C30.2995 23.3626 30.5176 24.1146 30.5176 24.9609H27.6074C27.6074 24.5443 27.5195 24.1797 27.3438 23.8672C27.1745 23.5482 26.9141 23.2975 26.5625 23.1152C26.2174 22.9329 25.7812 22.8418 25.2539 22.8418C24.7461 22.8418 24.3229 22.9199 23.9844 23.0762C23.6458 23.2259 23.3919 23.431 23.2227 23.6914C23.0534 23.9453 22.9688 24.2318 22.9688 24.5508C22.9688 24.7917 23.0273 25.0098 23.1445 25.2051C23.2682 25.4004 23.4505 25.5827 23.6914 25.752C23.9323 25.9212 24.2285 26.0807 24.5801 26.2305C24.9316 26.3802 25.3385 26.5267 25.8008 26.6699C26.5755 26.9043 27.2559 27.168 27.8418 27.4609C28.4342 27.7539 28.929 28.0827 29.3262 28.4473C29.7233 28.8118 30.0228 29.2253 30.2246 29.6875C30.4264 30.1497 30.5273 30.6738 30.5273 31.2598C30.5273 31.8783 30.4069 32.4316 30.166 32.9199C29.9251 33.4082 29.5768 33.8216 29.1211 34.1602C28.6654 34.4987 28.1217 34.7559 27.4902 34.9316C26.8587 35.1074 26.1523 35.1953 25.3711 35.1953C24.668 35.1953 23.9746 35.1042 23.291 34.9219C22.6074 34.7331 21.9857 34.4499 21.4258 34.0723C20.8724 33.6947 20.4297 33.2129 20.0977 32.627C19.7656 32.041 19.5996 31.3477 19.5996 30.5469H22.5391C22.5391 30.9896 22.6074 31.3639 22.7441 31.6699C22.8809 31.9759 23.0729 32.2233 23.3203 32.4121C23.5742 32.6009 23.8737 32.7376 24.2188 32.8223C24.5703 32.9069 24.9544 32.9492 25.3711 32.9492C25.8789 32.9492 26.2956 32.8776 26.6211 32.7344C26.9531 32.5911 27.1973 32.3926 27.3535 32.1387C27.5163 31.8848 27.5977 31.5983 27.5977 31.2793ZM35.6348 20.7812V35H32.7148V20.7812H35.6348ZM43.9453 28.7598H40.293L40.2734 26.748H43.3398C43.8802 26.748 44.3229 26.6797 44.668 26.543C45.013 26.3997 45.2702 26.1947 45.4395 25.9277C45.6152 25.6543 45.7031 25.3223 45.7031 24.9316C45.7031 24.4889 45.6185 24.1309 45.4492 23.8574C45.2865 23.584 45.0293 23.3854 44.6777 23.2617C44.3327 23.138 43.8867 23.0762 43.3398 23.0762H41.3086V35H38.3789V20.7812H43.3398C44.1667 20.7812 44.9056 20.8594 45.5566 21.0156C46.2142 21.1719 46.7708 21.4095 47.2266 21.7285C47.6823 22.0475 48.0306 22.4512 48.2715 22.9395C48.5124 23.4212 48.6328 23.9941 48.6328 24.6582C48.6328 25.2441 48.4993 25.7845 48.2324 26.2793C47.972 26.7741 47.5586 27.1777 46.9922 27.4902C46.4323 27.8027 45.6999 27.9753 44.7949 28.0078L43.9453 28.7598ZM43.8184 35H39.4922L40.6348 32.7148H43.8184C44.3327 32.7148 44.7526 32.6335 45.0781 32.4707C45.4036 32.3014 45.6445 32.0736 45.8008 31.7871C45.957 31.5007 46.0352 31.1719 46.0352 30.8008C46.0352 30.3841 45.9635 30.0228 45.8203 29.7168C45.6836 29.4108 45.4622 29.1764 45.1562 29.0137C44.8503 28.8444 44.4466 28.7598 43.9453 28.7598H41.123L41.1426 26.748H44.6582L45.332 27.5391C46.1979 27.526 46.8945 27.679 47.4219 27.998C47.9557 28.3105 48.3431 28.7174 48.584 29.2188C48.8314 29.7201 48.9551 30.2572 48.9551 30.8301C48.9551 31.7415 48.7565 32.5098 48.3594 33.1348C47.9622 33.7533 47.3796 34.2188 46.6113 34.5312C45.8496 34.8438 44.9186 35 43.8184 35ZM54.2676 20.7812V35H51.3477V20.7812H54.2676ZM66.1523 32.7148V35H58.9941V32.7148H66.1523ZM59.9414 20.7812V35H57.0117V20.7812H59.9414ZM70.9473 20.7812V35H68.0273V20.7812H70.9473ZM79.7559 20.7812V35H76.8359V20.7812H79.7559ZM84.1309 20.7812V23.0762H72.5293V20.7812H84.1309ZM87.9102 20.7812L90.8789 27.2656L93.8477 20.7812H97.041L92.3633 29.8242V35H89.3945V29.8242L84.707 20.7812H87.9102Z" fill="#FAFAFA"/>
</svg>
