<svg width="72" height="74" viewBox="0 0 72 74" fill="none" xmlns="http://www.w3.org/2000/svg">
<path d="M11.1744 29.619C8.66471 29.619 6.40126 28.1205 5.44126 25.8224C4.48126 23.5244 5.01091 20.8799 6.78609 19.121C8.56126 17.3621 11.2323 16.8373 13.5516 17.7885C15.8709 18.7397 17.3833 20.9824 17.3833 23.469C17.3792 26.8638 14.6026 29.6149 11.1764 29.619H11.1744ZM11.1744 19.779C9.66816 19.779 8.31091 20.679 7.73367 22.0566C7.15643 23.4342 7.47505 25.0209 8.54057 26.0766C9.60609 27.1324 11.2075 27.4481 12.5978 26.8761C13.9902 26.3042 14.8964 24.9594 14.8964 23.467C14.8964 21.4293 13.2288 19.777 11.1723 19.777L11.1744 19.779Z" fill="white"/>
<path d="M16.1379 65.2897H6.2069C2.78069 65.2856 0.00413793 62.5345 0 59.1397C0 57.7805 1.11103 56.6797 2.48276 56.6797H19.8621C21.2338 56.6797 22.3448 57.7805 22.3448 59.1397C22.3407 62.5345 19.5641 65.2856 16.1379 65.2897ZM2.48276 59.1397C2.48276 61.1774 4.15034 62.8297 6.2069 62.8297H16.1379C18.1945 62.8297 19.8621 61.1774 19.8621 59.1397H2.48276Z" fill="white"/>
<path d="M1.24138 60.3711C0.556552 60.3711 0 59.8196 0 59.1411V30.8511C0 30.1725 0.556552 29.6211 1.24138 29.6211C1.92621 29.6211 2.48276 30.1725 2.48276 30.8511V59.1411C2.48276 59.8196 1.92621 60.3711 1.24138 60.3711Z" fill="white"/>
<path d="M11.1711 73.8981C10.4862 73.8981 9.92969 73.3467 9.92969 72.6681V64.0581C9.92969 63.3796 10.4862 62.8281 11.1711 62.8281C11.8559 62.8281 12.4124 63.3796 12.4124 64.0581V72.6681C12.4124 73.3467 11.8559 73.8981 11.1711 73.8981Z" fill="white"/>
<mask id="mask0_2270_1826" style="mask-type:luminance" maskUnits="userSpaceOnUse" x="0" y="0" width="72" height="74">
<path d="M72 0.0996094H0V73.8996H72V0.0996094Z" fill="white"/>
</mask>
<g mask="url(#mask0_2270_1826)">
<path d="M17.3817 73.8975H4.96794C4.28311 73.8975 3.72656 73.3461 3.72656 72.6675C3.72656 71.989 4.28311 71.4375 4.96794 71.4375H17.3817C18.0666 71.4375 18.6231 71.989 18.6231 72.6675C18.6231 73.3461 18.0666 73.8975 17.3817 73.8975Z" fill="white"/>
<path d="M30.0177 73.8977C27.8577 73.9018 25.9729 72.4442 25.4515 70.3676L22.6191 59.1377H11.1756C7.74944 59.1336 4.97289 56.3825 4.96875 52.9877V34.5377C4.96875 33.6767 5.41565 30.8477 11.1756 30.8477C16.9356 30.8477 17.3825 33.6767 17.3825 34.5377V39.4577H24.8308C26.8874 39.4577 28.555 41.11 28.555 43.1477C28.555 45.1854 26.8874 46.8377 24.8308 46.8377H17.3825V49.2977H22.1805C25.7825 49.31 29.006 51.5117 30.3012 54.8429L34.497 67.8153C34.9543 69.2339 34.7039 70.7817 33.8163 71.985C32.9308 73.1884 31.5198 73.8997 30.0177 73.8997V73.8977ZM11.1756 33.3077C8.75703 33.3077 7.45151 33.9411 7.45151 34.5377V52.9877C7.45151 55.0254 9.11909 56.6777 11.1756 56.6777H23.5894C24.1584 56.6777 24.655 57.061 24.7936 57.6084L27.8598 69.771C28.0046 70.3512 28.3812 70.8473 28.9025 71.1466C29.4239 71.4459 30.0467 71.5238 30.626 71.3598C31.2053 71.1958 31.6936 70.8063 31.977 70.2794C32.2625 69.7526 32.3184 69.1335 32.1322 68.5656L27.9591 55.6506C27.0198 53.3034 24.7294 51.7618 22.1805 51.7577H16.1412C15.4563 51.7577 14.8998 51.2062 14.8998 50.5277V46.811C12.7667 46.6183 10.886 45.3412 9.93427 43.4388L8.82323 41.2391C8.51703 40.6303 8.7653 39.8902 9.37978 39.5868C9.99427 39.2834 10.7412 39.5294 11.0474 40.1383L12.1563 42.34C12.7832 43.5925 14.0743 44.3838 15.4874 44.3797H24.8329C25.5177 44.3797 26.0743 43.8283 26.0743 43.1497C26.0743 42.4712 25.5177 41.9197 24.8329 41.9197H16.1432C15.4584 41.9197 14.9019 41.3683 14.9019 40.6897V34.5397C14.9019 33.9432 13.5963 33.3097 11.1777 33.3097L11.1756 33.3077Z" fill="white"/>
</g>
<path d="M60.7876 29.619C58.278 29.619 56.0145 28.1205 55.0545 25.8224C54.0945 23.5244 54.6242 20.8799 56.3994 19.121C58.1745 17.3621 60.8435 16.8373 63.1628 17.7885C65.4821 18.7397 66.9945 20.9824 66.9945 23.469C66.9904 26.8638 64.2138 29.6149 60.7876 29.619ZM60.7876 19.779C59.2814 19.779 57.9242 20.679 57.347 22.0566C56.7697 23.4342 57.0883 25.0209 58.1538 26.0766C59.2194 27.1324 60.8207 27.4481 62.2132 26.8761C63.6056 26.3042 64.5118 24.9594 64.5118 23.467C64.5118 21.4293 62.8442 19.777 60.7876 19.777V19.779Z" fill="white"/>
<path d="M65.7551 65.2897H55.8241C52.3979 65.2856 49.6213 62.5345 49.6172 59.1397C49.6172 57.7805 50.7303 56.6797 52.0999 56.6797H69.4793C70.851 56.6797 71.962 57.7805 71.962 59.1397C71.9579 62.5345 69.1813 65.2856 65.7551 65.2897ZM52.0999 59.1397C52.0999 61.1774 53.7675 62.8297 55.8241 62.8297H65.7551C67.8117 62.8297 69.4793 61.1774 69.4793 59.1397H52.0999Z" fill="white"/>
<path d="M70.7179 60.3711C70.0331 60.3711 69.4766 59.8196 69.4766 59.1411V30.8511C69.4766 30.1725 70.0331 29.6211 70.7179 29.6211C71.4028 29.6211 71.9593 30.1725 71.9593 30.8511V59.1411C71.9593 59.8196 71.4048 60.3711 70.7179 60.3711Z" fill="white"/>
<path d="M60.7883 73.8981C60.1034 73.8981 59.5469 73.3467 59.5469 72.6681V64.0581C59.5469 63.3796 60.1034 62.8281 60.7883 62.8281C61.4731 62.8281 62.0296 63.3796 62.0296 64.0581V72.6681C62.0296 73.3467 61.4752 73.8981 60.7883 73.8981Z" fill="white"/>
<mask id="mask1_2270_1826" style="mask-type:luminance" maskUnits="userSpaceOnUse" x="0" y="0" width="72" height="74">
<path d="M72 0.0996094H0V73.8996H72V0.0996094Z" fill="white"/>
</mask>
<g mask="url(#mask1_2270_1826)">
<path d="M66.9989 73.8975H54.5851C53.9003 73.8975 53.3438 73.3461 53.3438 72.6675C53.3438 71.989 53.9003 71.4375 54.5851 71.4375H66.9989C67.6858 71.4375 68.2403 71.989 68.2403 72.6675C68.2403 73.3461 67.6858 73.8975 66.9989 73.8975Z" fill="white"/>
<path d="M41.9504 73.8977C40.4484 73.8977 39.0353 73.1884 38.1497 71.985C37.2642 70.7817 37.0118 69.2339 37.4711 67.8153L41.6442 54.9003C42.9249 51.5445 46.1608 49.3182 49.7815 49.2977H54.5794V46.8377H47.1311C45.0746 46.8377 43.407 45.1854 43.407 43.1477C43.407 41.11 45.0746 39.4577 47.1311 39.4577H54.5794V34.5377C54.5794 33.6767 55.0263 30.8477 60.7863 30.8477C66.5463 30.8477 66.9932 33.6767 66.9932 34.5377V52.9877C66.9891 56.3825 64.2125 59.1336 60.7863 59.1377H49.347L46.5125 70.3676C45.9911 72.4422 44.1084 73.8997 41.9504 73.8977ZM49.7815 51.7577C47.2097 51.7659 44.9049 53.3382 43.9801 55.7183L39.8339 68.5656C39.6559 69.1335 39.7159 69.7464 39.9994 70.2671C40.2849 70.7878 40.7691 71.1753 41.3442 71.3372C41.9194 71.4992 42.538 71.4254 43.0573 71.1302C43.5766 70.835 43.9532 70.345 44.1042 69.771L47.1746 57.6084C47.3132 57.061 47.8097 56.6777 48.3787 56.6777H60.7925C62.8491 56.6777 64.5166 55.0254 64.5166 52.9877V34.5377C64.5166 33.9411 63.2111 33.3077 60.7925 33.3077C58.3739 33.3077 57.0684 33.9411 57.0684 34.5377V40.6877C57.0684 41.3662 56.5118 41.9177 55.827 41.9177H47.1373C46.4525 41.9177 45.8959 42.4691 45.8959 43.1477C45.8959 43.8262 46.4525 44.3777 47.1373 44.3777H56.4849C57.8959 44.3818 59.1891 43.5925 59.8159 42.3379L60.9249 40.1362C61.0697 39.8431 61.3284 39.6176 61.6428 39.513C61.9573 39.4085 62.2987 39.431 62.5946 39.5786C62.8904 39.7242 63.1159 39.9825 63.2194 40.2941C63.3228 40.6057 63.2959 40.946 63.1449 41.2371L62.0359 43.4367C61.0842 45.3412 59.2056 46.6163 57.0704 46.809V50.5256C57.0704 51.2042 56.5139 51.7556 55.829 51.7556H49.7815V51.7577Z" fill="white"/>
</g>
<path d="M47.1713 46.8389H23.5851C22.9003 46.8389 22.3438 46.2875 22.3438 45.6089C22.3438 44.9304 22.9003 44.3789 23.5851 44.3789H47.1713C47.8562 44.3789 48.4127 44.9304 48.4127 45.6089C48.4127 46.2875 47.8562 46.8389 47.1713 46.8389Z" fill="white"/>
<path d="M38.4844 32.0797H33.5188C32.834 32.0797 32.2775 31.5282 32.2775 30.8497V30.085C32.2961 28.7956 31.6154 27.5963 30.4961 26.9424C26.445 24.6669 24.2416 20.1405 24.9699 15.5813C25.6981 11.0241 29.203 7.39155 33.7671 6.467C39.1506 5.37845 44.534 8.33045 46.4623 13.4288C48.3906 18.5271 46.2906 24.2569 41.5112 26.9424C40.3899 27.5963 39.7071 28.7956 39.7257 30.085V30.8497C39.7257 31.5282 39.1692 32.0797 38.4844 32.0797ZM34.7416 29.6197H37.2595C37.3919 27.6148 38.5278 25.8087 40.2823 24.8022C43.7147 22.8752 45.4071 18.8982 44.4016 15.1159C43.3961 11.3337 39.945 8.69945 35.9995 8.69945C32.054 8.69945 28.603 11.3337 27.5975 15.1159C26.5919 18.8982 28.2843 22.8752 31.7168 24.8022C33.4733 25.8087 34.6071 27.6148 34.7416 29.6197Z" fill="#E95018"/>
<path d="M39.7248 35.7711H32.2765C31.5917 35.7711 31.0352 35.2196 31.0352 34.5411V30.8511C31.0352 30.1725 31.5917 29.6211 32.2765 29.6211H39.7248C40.4096 29.6211 40.9662 30.1725 40.9662 30.8511V34.5411C40.9662 35.2196 40.4096 35.7711 39.7248 35.7711ZM33.5179 33.3111H38.4834V32.0811H33.5179V33.3111Z" fill="#E95018"/>
<path d="M35.9976 39.461C33.941 39.461 32.2734 37.8087 32.2734 35.771C32.2734 35.0925 32.83 34.541 33.5148 34.541C34.1996 34.541 34.7562 35.0925 34.7562 35.771C34.7562 36.4496 35.3127 37.001 35.9976 37.001C36.6824 37.001 37.239 36.4496 37.239 35.771C37.239 35.0925 37.7955 34.541 38.4803 34.541C39.1652 34.541 39.7217 35.0925 39.7217 35.771C39.7217 37.8087 38.0541 39.461 35.9976 39.461Z" fill="#E95018"/>
<path d="M35.9992 5.01961C35.3144 5.01961 34.7578 4.46816 34.7578 3.78961V1.32961C34.7578 0.651059 35.3144 0.0996094 35.9992 0.0996094C36.684 0.0996094 37.2406 0.651059 37.2406 1.32961V3.78961C37.2406 4.46816 36.684 5.01961 35.9992 5.01961Z" fill="white"/>
<path d="M29.1708 6.83169C28.726 6.83169 28.3163 6.59799 28.0949 6.21669L26.8536 4.08674C26.686 3.80384 26.6405 3.46764 26.7253 3.14989C26.8101 2.83419 27.0191 2.56359 27.3046 2.39959C27.5922 2.23559 27.9315 2.19049 28.2501 2.27864C28.5687 2.36474 28.8398 2.57179 29.0032 2.85674L30.2446 4.98669C30.466 5.36799 30.466 5.83539 30.2446 6.21669C30.0232 6.59799 29.6136 6.83169 29.1708 6.83169Z" fill="white"/>
<path d="M24.1732 11.7844C23.9539 11.7844 23.7408 11.727 23.5525 11.6184L21.4028 10.3884C21.107 10.2305 20.8877 9.95994 20.7966 9.64219C20.7056 9.32239 20.749 8.97799 20.9166 8.69099C21.0842 8.40194 21.3635 8.19489 21.6884 8.11289C22.0132 8.03294 22.3587 8.08419 22.6442 8.26049L24.7939 9.49049C25.2801 9.76929 25.518 10.3351 25.3732 10.8742C25.2284 11.4113 24.7359 11.7865 24.1732 11.7865V11.7844Z" fill="white"/>
<path d="M22.3452 18.5498H19.8625C19.1776 18.5498 18.6211 17.9984 18.6211 17.3198C18.6211 16.6413 19.1776 16.0898 19.8625 16.0898H22.3452C23.0301 16.0898 23.5866 16.6413 23.5866 17.3198C23.5866 17.9984 23.0301 18.5498 22.3452 18.5498Z" fill="white"/>
<path d="M22.0272 26.5449C21.4665 26.5449 20.9741 26.1718 20.8272 25.6327C20.6824 25.0956 20.9203 24.5277 21.4065 24.2489L23.5562 23.0189C23.8417 22.8529 24.181 22.8057 24.5017 22.8918C24.8203 22.9759 25.0934 23.1829 25.2589 23.4658C25.4245 23.7487 25.4679 24.087 25.381 24.4027C25.2941 24.7184 25.0851 24.989 24.7976 25.1489L22.6479 26.3789C22.4596 26.4875 22.2445 26.5449 22.0272 26.5429V26.5449Z" fill="white"/>
<path d="M49.9718 26.5454C49.7545 26.5454 49.5394 26.4901 49.3511 26.3814L47.2014 25.1514C46.9138 24.9895 46.7028 24.7209 46.618 24.4052C46.5311 24.0895 46.5745 23.7513 46.74 23.4684C46.9056 23.1855 47.1787 22.9784 47.4973 22.8944C47.818 22.8103 48.1573 22.8575 48.4428 23.0215L50.5925 24.2515C51.0787 24.5303 51.3166 25.0961 51.1718 25.6352C51.0269 26.1723 50.5345 26.5475 49.9718 26.5475V26.5454Z" fill="white"/>
<path d="M52.1382 18.5498H49.6554C48.9706 18.5498 48.4141 17.9984 48.4141 17.3198C48.4141 16.6413 48.9706 16.0898 49.6554 16.0898H52.1382C52.823 16.0898 53.3796 16.6413 53.3796 17.3198C53.3796 17.9984 52.823 18.5498 52.1382 18.5498Z" fill="white"/>
<path d="M47.8241 11.7845C47.2613 11.7845 46.771 11.4114 46.6241 10.8723C46.4793 10.3352 46.7172 9.76733 47.2034 9.48853L49.3531 8.25853C49.6386 8.08223 49.9841 8.03098 50.3089 8.11093C50.6337 8.19293 50.9131 8.39998 51.0806 8.68903C51.2482 8.97603 51.2917 9.32043 51.2006 9.64023C51.1096 9.96003 50.8903 10.2306 50.5944 10.3864L48.4448 11.6164C48.2565 11.7251 48.0413 11.7825 47.8241 11.7825V11.7845Z" fill="white"/>
<path d="M42.8297 6.83078C42.3869 6.83078 41.9773 6.59708 41.7559 6.21578C41.5345 5.83448 41.5345 5.36708 41.7559 4.98578L42.9973 2.85583C43.1607 2.57088 43.4317 2.36178 43.7504 2.27773C44.069 2.19163 44.4104 2.23468 44.6959 2.39868C44.9814 2.56268 45.1904 2.83328 45.2752 3.14898C45.36 3.46673 45.3124 3.80293 45.1448 4.08583L43.9035 6.21578C43.6821 6.59708 43.2704 6.83078 42.8276 6.83078H42.8297Z" fill="white"/>
<circle cx="11.25" cy="23.9492" r="2.25" fill="#E95018"/>
<circle cx="59.8516" cy="23.9492" r="2.25" fill="#E95018"/>
</svg>
