<svg width="76" height="86" viewBox="0 0 76 86" fill="none" xmlns="http://www.w3.org/2000/svg">
<path d="M39.4433 33.5682V37.0597C39.4433 38.3721 40.5125 39.4404 41.826 39.4404H42.3124V46.3652L39.6159 49.0594C39.3806 49.2968 39.2461 49.617 39.2461 49.9507V52.7457C39.2461 53.4422 39.8109 54.0066 40.508 54.0066C41.2051 54.0066 41.7699 53.4422 41.7699 52.7457V50.4726L44.4664 47.7783C44.704 47.5409 44.8362 47.2207 44.8362 46.887V39.4404H45.3226C46.6361 39.4404 47.7052 38.3721 47.7052 37.0597V33.5682C47.7052 32.2558 46.6361 31.1875 45.3226 31.1875H41.8282C40.5147 31.1875 39.4456 32.2558 39.4456 33.5682H39.4433ZM41.9694 33.7093H45.1836V36.9208H41.9694V33.7093Z" fill="white"/>
<path d="M23.9529 29.4082C22.6395 29.4082 21.5703 30.4765 21.5703 31.7889V36.0396C21.5703 37.352 22.6395 38.4203 23.9529 38.4203H28.2072C29.5206 38.4203 30.5898 37.352 30.5898 36.0396V31.7889C30.5898 30.4765 29.5206 29.4082 28.2072 29.4082H23.9529ZM28.066 35.8985H24.0942V31.93H28.066V35.8985Z" fill="white"/>
<path d="M26.8906 21.0389V23.6189C26.8906 24.9313 27.9598 25.9996 29.2733 25.9996H31.8554C33.1689 25.9996 34.238 24.9313 34.238 23.6189V21.0389C34.238 19.7265 33.1689 18.6582 31.8554 18.6582H29.2733C27.9598 18.6582 26.8906 19.7265 26.8906 21.0389ZM29.4145 21.18H31.7142V23.4778H29.4145V21.18Z" fill="white"/>
<path d="M7.34515 45.7303C7.34515 44.4179 6.27599 43.3496 4.96251 43.3496H2.38263C1.06916 43.3496 0 44.4179 0 45.7303V48.3103C0 49.6227 1.06916 50.691 2.38263 50.691H4.96251C6.27599 50.691 7.34515 49.6227 7.34515 48.3103V45.7303ZM4.82131 48.1692H2.5216V45.8691H4.82131V48.1692Z" fill="white"/>
<path d="M13.5519 55.5156H9.32013C8.00666 55.5156 6.9375 56.5839 6.9375 57.8963V62.1246C6.9375 63.437 8.00442 64.5053 9.32013 64.5053H13.5519C14.8654 64.5053 15.9346 63.437 15.9346 62.1246V57.8963C15.9346 56.5839 14.8654 55.5156 13.5519 55.5156ZM13.4107 61.9835H9.46134V58.0374H13.4107V61.9835Z" fill="white"/>
<path d="M67.3945 35.0449C67.3945 33.8915 67.3228 32.7246 67.1816 31.5757C67.0964 30.8837 66.4644 30.3932 65.7762 30.4783C65.0836 30.5634 64.5928 31.1928 64.6779 31.8826C64.8057 32.9284 64.8707 33.9923 64.8707 35.0449C64.8707 42.1533 62.0263 48.7623 56.8643 53.6558C53.2915 57.042 50.4202 61.2681 48.5173 65.9175H47.0828V58.8583L52.7334 53.2124C52.9687 52.9772 53.1032 52.6569 53.1032 52.321V49.1453C54.2576 49.1341 55.1945 48.1912 55.1945 47.0333V44.2764C55.1945 43.1118 54.2463 42.1645 53.0808 42.1645H50.3216C49.1561 42.1645 48.2079 43.1141 48.2079 44.2764V47.0333C48.2079 48.1979 49.1561 49.1475 50.3216 49.1475H50.5794V51.7992L44.9287 57.4452C44.6912 57.6803 44.5589 58.0028 44.5589 58.3365V65.9175H41.7728V58.1193C41.7728 57.4228 41.208 56.8584 40.5109 56.8584C39.8138 56.8584 39.249 57.4228 39.249 58.1193V65.9175H35.0754V50.2449H35.5618C36.8753 50.2449 37.9445 49.1766 37.9445 47.8642V44.3727C37.9445 43.0603 36.8753 41.992 35.5618 41.992H32.0674C30.754 41.992 29.6848 43.0603 29.6848 44.3727V47.8642C29.6848 49.1766 30.754 50.2449 32.0674 50.2449H32.5538V65.9175H29.8821C28.3646 62.2424 26.2285 58.8247 23.5231 55.7498C23.0636 55.2257 22.2657 55.1765 21.7412 55.6356C21.2167 56.0969 21.1674 56.892 21.6269 57.4161C24.0118 60.1282 25.9215 63.1203 27.3156 66.3296C25.843 67.0216 24.8209 68.5177 24.8209 70.2489C24.8209 72.5668 26.6522 74.466 28.9451 74.5757V76.3741C28.9451 77.9687 29.9717 79.3304 31.3995 79.8298C31.9128 83.3146 34.923 85.9976 38.5496 85.9976H39.8586C43.4853 85.9976 46.4955 83.3146 47.0088 79.8298C48.4366 79.3281 49.4631 77.9687 49.4631 76.3741V74.5757C51.7561 74.466 53.5874 72.5668 53.5874 70.2489C53.5874 68.5154 52.563 67.0171 51.0859 66.3251C52.8522 62.22 55.4298 58.4933 58.6037 55.4833C64.2745 50.1083 67.3968 42.8498 67.3968 35.0426L67.3945 35.0449ZM50.7273 44.6885H52.6684V46.628H50.7273V44.6885ZM32.2042 44.5138H35.4184V47.7254H32.2042V44.5138ZM39.8542 83.4781H38.5452C36.3867 83.4781 34.5666 82.0201 34.013 80.0381H44.3863C43.8327 82.0201 42.0104 83.4781 39.8542 83.4781ZM49.248 72.0607H45.0879C44.3908 72.0607 43.826 72.6251 43.826 73.3216C43.826 74.0181 44.3908 74.5825 45.0879 74.5825H46.9348V76.3741C46.9348 77.0034 46.4215 77.5163 45.7917 77.5163H32.6099C31.9778 77.5163 31.4667 77.0034 31.4667 76.3741V74.5825H39.7107C40.4078 74.5825 40.9726 74.0181 40.9726 73.3216C40.9726 72.6251 40.4078 72.0607 39.7107 72.0607H29.1536C28.1539 72.0607 27.3425 71.25 27.3425 70.2511C27.3425 69.2523 28.0889 68.511 29.0303 68.4482C29.046 68.4482 29.0617 68.4482 29.0774 68.4482C29.1065 68.4482 29.1334 68.4438 29.1626 68.4438H49.248H49.2368C49.2637 68.4438 49.2906 68.4482 49.3197 68.4482C49.3354 68.4482 49.3533 68.4482 49.369 68.4482C50.3104 68.511 51.059 69.2948 51.059 70.2511C51.059 71.25 50.2454 72.0607 49.248 72.0607Z" fill="white"/>
<path d="M13.5278 35.0469C13.5278 29.6406 15.2043 24.4627 18.3782 20.0731C18.7861 19.5087 18.6584 18.7204 18.0935 18.3128C17.5287 17.9052 16.7397 18.0328 16.3318 18.5972C12.8464 23.419 11.0039 29.1076 11.0039 35.0469C11.0039 41.8261 13.4515 48.3769 17.894 53.4944C18.1428 53.781 18.4947 53.9289 18.8467 53.9289C19.1403 53.9289 19.4339 53.8281 19.6737 53.6198C20.2005 53.1629 20.2565 52.3679 19.7993 51.8416C15.7535 47.1832 13.5278 41.2192 13.5278 35.0469Z" fill="white"/>
<path d="M32.6241 10.2122C32.725 10.2122 32.8303 10.1987 32.9334 10.1741C34.9933 9.65452 37.1271 9.38801 39.2587 9.39697C40.5722 9.40145 41.8902 9.50223 43.1768 9.70379C43.8671 9.81129 44.5104 9.34098 44.6157 8.65119C44.7233 7.96364 44.2526 7.31864 43.5645 7.21114C42.1502 6.99166 40.7022 6.87968 39.2632 6.8752C36.912 6.86624 34.5764 7.15739 32.3126 7.72848C31.6357 7.89869 31.2277 8.584 31.3981 9.26036C31.5415 9.83145 32.057 10.2122 32.6219 10.2122H32.6241Z" fill="white"/>
<path d="M21.6209 17.271H26.5386C27.8521 17.271 28.9212 16.2027 28.9212 14.8903V9.97443C28.9212 8.66203 27.8521 7.59375 26.5386 7.59375H21.6209C20.3074 7.59375 19.2383 8.66203 19.2383 9.97443V14.8903C19.2383 16.2027 20.3074 17.271 21.6209 17.271ZM21.7621 10.1155H26.3996V14.7492H21.7621V10.1155Z" fill="white"/>
<path d="M66.6848 59.873H61.2381C59.9246 59.873 58.8555 60.9413 58.8555 62.2537V67.6959C58.8555 69.0083 59.9246 70.0766 61.2381 70.0766H66.6848C67.9982 70.0766 69.0674 69.0083 69.0674 67.6959V62.2537C69.0674 60.9413 67.9982 59.873 66.6848 59.873ZM66.5436 67.5571H61.3771V62.3948H66.5436V67.5571Z" fill="white"/>
<path d="M73.3356 49.1836H70.1326C68.8192 49.1836 67.75 50.2519 67.75 51.5643V54.7646C67.75 56.077 68.8192 57.1453 70.1326 57.1453H73.3356C74.6491 57.1453 75.7183 56.077 75.7183 54.7646V51.5643C75.7183 50.2519 74.6491 49.1836 73.3356 49.1836ZM73.1944 54.6258H70.2716V51.7054H73.1944V54.6258Z" fill="white"/>
<path d="M11.2654 7.81807H14.2331C15.5466 7.81807 16.6157 6.74979 16.6157 5.4374V2.47443C16.6157 1.16203 15.5466 0.09375 14.2331 0.09375H11.2654C9.95197 0.09375 8.88281 1.16203 8.88281 2.47443V5.4374C8.88281 6.74979 9.95197 7.81807 11.2654 7.81807ZM11.4044 2.61104H14.0896V5.29406H11.4044V2.61104Z" fill="white"/>
<path d="M3.52326 17.9666H5.83193C7.1454 17.9666 8.21456 16.8983 8.21456 15.5859V13.2791C8.21456 11.9667 7.1454 10.8984 5.83193 10.8984H3.52326C2.20978 10.8984 1.14062 11.9667 1.14062 13.2791V15.5859C1.14062 16.8983 2.20978 17.9666 3.52326 17.9666ZM3.66447 13.418H5.69296V15.4448H3.66447V13.418Z" fill="white"/>
<path d="M66.8397 7.88867H56.9416C56.2445 7.88867 55.6797 8.45305 55.6797 9.14956V19.0396C55.6797 19.7361 56.2445 20.3004 56.9416 20.3004H66.8397C67.5368 20.3004 68.1017 19.7361 68.1017 19.0396V9.14956C68.1017 8.45305 67.5368 7.88867 66.8397 7.88867ZM65.5778 17.7809H58.2035V10.4104H65.5778V17.7809Z" fill="white"/>
<path d="M74.7361 15.3546C75.4331 15.3546 75.998 14.7902 75.998 14.0937C75.998 13.3972 75.4331 12.8328 74.7361 12.8328H73.1491V9.34354H74.7361C75.4331 9.34354 75.998 8.77917 75.998 8.08266C75.998 7.38615 75.4331 6.82177 74.7361 6.82177H73.1491V6.76578C73.1491 4.60458 71.3896 2.84651 69.2244 2.84651H69.1684V1.26089C69.1684 0.564375 68.6035 0 67.9064 0C67.2093 0 66.6445 0.564375 66.6445 1.26089V2.84651H63.1524V1.26089C63.1524 0.564375 62.5875 0 61.8904 0C61.1934 0 60.6285 0.564375 60.6285 1.26089V2.84651H57.1364V1.26089C57.1364 0.564375 56.5715 0 55.8745 0C55.1774 0 54.6125 0.564375 54.6125 1.26089V2.84651H54.5565C52.3935 2.84651 50.6318 4.60458 50.6318 6.76578V6.82177H49.0471C48.35 6.82177 47.7852 7.38615 47.7852 8.08266C47.7852 8.77917 48.35 9.34354 49.0471 9.34354H50.6318V12.8328H49.0471C48.35 12.8328 47.7852 13.3972 47.7852 14.0937C47.7852 14.7902 48.35 15.3546 49.0471 15.3546H50.6318V18.8439H49.0471C48.35 18.8439 47.7852 19.4082 47.7852 20.1047C47.7852 20.8012 48.35 21.3656 49.0471 21.3656H50.6318V21.4216C50.6318 23.5851 52.3935 25.3431 54.5565 25.3431H54.6125V26.9265C54.6125 27.623 55.1774 28.1874 55.8745 28.1874C56.5715 28.1874 57.1364 27.623 57.1364 26.9265V25.3431H60.6285V26.9265C60.6285 27.623 61.1934 28.1874 61.8904 28.1874C62.5875 28.1874 63.1524 27.623 63.1524 26.9265V25.3431H66.6445V26.9265C66.6445 27.623 67.2093 28.1874 67.9064 28.1874C68.6035 28.1874 69.1684 27.623 69.1684 26.9265V25.3431H69.2244C71.3896 25.3431 73.1491 23.5851 73.1491 21.4216V21.3656H74.7361C75.4331 21.3656 75.998 20.8012 75.998 20.1047C75.998 19.4082 75.4331 18.8439 74.7361 18.8439H73.1491V15.3546H74.7361ZM70.6275 21.4239C70.6275 22.1965 69.9999 22.8236 69.2266 22.8236H54.5587C53.7877 22.8236 53.1579 22.1965 53.1579 21.4239V6.76578C53.1579 5.99312 53.7855 5.36604 54.5587 5.36604H69.2266C69.9999 5.36604 70.6275 5.99312 70.6275 6.76578V21.4239Z" fill="white"/>
<rect x="67" y="49" width="9" height="9" rx="1" fill="#E95018"/>
<rect x="21" y="29" width="10" height="10" rx="1" fill="#E95018"/>
</svg>
