<svg width="82" height="82" viewBox="0 0 82 82" fill="none" xmlns="http://www.w3.org/2000/svg">
<path d="M33.0597 68.7715C35.2464 68.7715 37.0273 70.5524 37.0273 72.7391C37.0273 74.9258 35.2464 76.7067 33.0597 76.7067C30.8731 76.7067 29.0921 74.9258 29.0921 72.7391C29.0921 70.5524 30.8731 68.7715 33.0597 68.7715ZM33.0597 74.0609C33.7879 74.0609 34.3816 73.4673 34.3816 72.737C34.3816 72.0066 33.7879 71.4151 33.0597 71.4151C32.3316 71.4151 31.7379 72.0066 31.7379 72.737C31.7379 73.4673 32.3316 74.0609 33.0597 74.0609Z" fill="white"/>
<path d="M64.8019 68.7715C66.9886 68.7715 68.7695 70.5524 68.7695 72.7391C68.7695 74.9258 66.9886 76.7067 64.8019 76.7067C62.6153 76.7067 60.8343 74.9258 60.8343 72.7391C60.8343 70.5524 62.6153 68.7715 64.8019 68.7715ZM64.8019 74.0609C65.5301 74.0609 66.1237 73.4673 66.1237 72.737C66.1237 72.0066 65.5301 71.4151 64.8019 71.4151C64.0738 71.4151 63.478 72.0066 63.478 72.737C63.478 73.4673 64.0716 74.0609 64.8019 74.0609Z" fill="white"/>
<path d="M62.1574 21.1579C59.9686 21.1579 58.1898 19.3769 58.1898 17.1903C58.1898 15.0036 59.9707 13.2227 62.1574 13.2227C64.3441 13.2227 66.125 15.0036 66.125 17.1903C66.125 19.3769 64.3441 21.1579 62.1574 21.1579ZM62.1574 15.8684C61.4292 15.8684 60.8334 16.4599 60.8334 17.1903C60.8334 17.9206 61.4271 18.5142 62.1574 18.5142C62.8877 18.5142 63.4792 17.9206 63.4792 17.1903C63.4792 16.4599 62.8856 15.8684 62.1574 15.8684Z" fill="#E95018"/>
<path d="M9.25505 47.6094C11.4417 47.6094 13.2227 49.3903 13.2227 51.577C13.2227 53.7636 11.4417 55.5446 9.25505 55.5446C7.06838 55.5446 5.28745 53.7636 5.28745 51.577C5.28745 49.3903 7.06838 47.6094 9.25505 47.6094ZM9.25505 52.8988C9.98323 52.8988 10.5769 52.3073 10.5769 51.5748C10.5769 50.8424 9.98323 50.253 9.25505 50.253C8.52687 50.253 7.93109 50.8445 7.93109 51.5748C7.93109 52.3052 8.52474 52.8988 9.25505 52.8988Z" fill="#E95018"/>
<path d="M7.98895 42.4158C7.96973 41.9417 7.9313 41.4698 7.9313 40.9979C7.9313 34.9696 9.57771 29.11 12.6677 23.9765C11.3138 21.5955 10.5771 18.8814 10.5771 16.1288V15.8704C10.5771 7.11948 17.6966 0 26.4475 0C32.3178 0 37.4428 3.21167 40.1868 7.96297C45.3139 7.84552 50.5201 8.93885 55.1689 11.1405C56.8686 9.18229 59.3671 7.93521 62.1581 7.93521C67.2639 7.93521 71.4151 12.0886 71.4151 17.1944C71.4151 19.1867 70.7553 21.1577 69.5637 22.7486L69.0149 23.4789C72.0728 28.3583 73.7833 33.9126 74.0096 39.6782H76.7045C78.163 39.6782 79.3503 40.8655 79.3503 42.324V68.7754C80.8088 68.7754 81.9961 69.9605 81.9961 71.4212V74.0669C81.9961 75.5254 80.8109 76.7127 79.3503 76.7127H73.1555C71.6649 79.8347 68.4874 82.0021 64.8039 82.0021C61.1203 82.0021 57.9406 79.8347 56.4522 76.7127H41.4146C39.9263 79.8347 36.7466 82.0021 33.063 82.0021C29.3794 82.0021 26.1998 79.8347 24.7114 76.7127H21.1602C19.7017 76.7127 18.5144 75.5275 18.5144 74.0669V70.4239C18.5144 70.1015 18.5529 69.779 18.6319 69.4608L19.4796 66.0741C17.5086 64.3828 15.7512 62.4759 14.2308 60.3768L9.25739 67.0115L1.85177 57.1352C0.658073 55.5443 0.000358582 53.5712 0.000358582 51.5788C0.000358582 46.9044 3.4875 43.0372 7.99323 42.4179L7.98895 42.4158ZM26.4475 2.64151C19.155 2.64151 13.2207 8.57583 13.2207 15.8683V16.1267C13.2207 19.0757 14.2244 21.9798 16.048 24.2968L26.4475 37.5342L36.847 24.2968C38.6685 21.9798 39.6721 19.0757 39.6721 16.1267V15.8683C39.6721 8.57583 33.7399 2.64151 26.4475 2.64151ZM62.1581 10.5767C58.5108 10.5767 55.5447 13.5428 55.5447 17.1901C55.5447 18.6123 56.0145 20.0217 56.8665 21.1556L62.1559 28.211L67.4454 21.1556C68.2995 20.0217 68.7693 18.6123 68.7693 17.1901C68.7693 13.5449 65.8032 10.5767 62.1559 10.5767H62.1581ZM76.7067 42.3197H66.1257V52.3946L59.5144 49.089L52.901 52.3946V42.3197H42.32V68.7711H56.4522C57.9406 65.6491 61.1203 63.4795 64.8039 63.4795C68.4874 63.4795 71.6671 65.647 73.1555 68.7711H76.7067V42.3197ZM63.4799 42.3197H55.5447V48.1152L59.5123 46.1314L63.4799 48.1152V42.3197ZM39.6743 50.2549H27.1928C26.5863 50.2549 26.0567 50.667 25.9094 51.2564L25.4972 52.9007H31.7391C33.1975 52.9007 34.3848 54.088 34.3848 55.5465V58.1922C34.3848 59.6507 33.1997 60.838 31.7391 60.838H23.5134L21.5296 68.7732H24.7093C26.1977 65.6512 29.3773 63.4817 33.0609 63.4817C35.649 63.4817 37.9916 64.5536 39.6721 66.2727V50.2549H39.6743ZM24.1754 58.1901H31.7391V55.5443H24.8353L24.1733 58.1901H24.1754ZM79.3503 74.0605V71.4147H73.9541C74.016 71.8482 74.0609 72.2881 74.0609 72.7366C74.0609 73.185 74.016 73.6249 73.9541 74.0605H79.3503ZM64.8017 79.3499C68.4469 79.3499 71.4151 76.3839 71.4151 72.7366C71.4151 69.0893 68.449 66.1232 64.8017 66.1232C61.1544 66.1232 58.1883 69.0893 58.1883 72.7366C58.1883 76.3839 61.1544 79.3499 64.8017 79.3499ZM55.6493 74.0605C55.5874 73.627 55.5426 73.1871 55.5426 72.7366C55.5426 72.286 55.5853 71.8482 55.6493 71.4147H42.2111C42.2731 71.8482 42.3179 72.2881 42.3179 72.7366C42.3179 73.185 42.2731 73.6249 42.2111 74.0605H55.6493ZM33.0609 79.3499C36.706 79.3499 39.6721 76.3839 39.6721 72.7366C39.6721 69.0893 36.706 66.1232 33.0609 66.1232C29.4157 66.1232 26.4475 69.0893 26.4475 72.7366C26.4475 76.3839 29.4136 79.3499 33.0609 79.3499ZM23.9085 74.0605C23.8466 73.627 23.8017 73.1871 23.8017 72.7366C23.8017 72.286 23.8444 71.8482 23.9085 71.4147H21.1581V74.0605H23.9085ZM20.1993 63.1827L23.3426 50.6136C23.7846 48.8455 25.3691 47.6091 27.1928 47.6091H39.6743V42.3197C39.6743 40.8612 40.8616 39.6739 42.32 39.6739H71.3681C71.1567 34.7475 69.7751 29.9898 67.3108 25.7489L62.1559 32.6206L54.7503 22.7443C53.5566 21.1534 52.8989 19.1803 52.8989 17.1901C52.8989 15.8298 53.2021 14.5401 53.7317 13.3741C49.8559 11.5782 45.7154 10.6429 41.3976 10.5895C41.9827 12.2445 42.3179 14.0147 42.3179 15.8683V16.1267C42.3179 19.6672 41.1135 23.1501 38.9269 25.9325L26.4475 41.8157L14.3183 26.3788C11.8669 30.844 10.575 35.8558 10.575 40.9979C10.575 41.4741 10.6134 41.9545 10.6326 42.435C15.0828 43.1055 18.5102 46.945 18.5102 51.5788C18.5102 53.5712 17.8503 55.5422 16.6587 57.1331L15.8964 58.1517C17.1499 59.9817 18.5806 61.6708 20.1971 63.1848L20.1993 63.1827ZM3.96583 55.5422L9.25526 62.5976L14.5447 55.5422C15.3989 54.4083 15.8686 52.9989 15.8686 51.5767C15.8686 47.9316 12.9025 44.9655 9.25526 44.9655C5.60796 44.9655 2.64188 47.9316 2.64188 51.5767C2.64188 52.9989 3.11166 54.4083 3.96369 55.5422H3.96583Z" fill="white"/>
<path d="M26.4464 26.4471C20.6124 26.4471 15.8654 21.7001 15.8654 15.8661C15.8654 10.0322 20.6124 5.28516 26.4464 5.28516C32.2803 5.28516 37.0273 10.0322 37.0273 15.8661C37.0273 21.7001 32.2803 26.4471 26.4464 26.4471ZM26.4464 7.93094C22.0687 7.93094 18.5111 11.4907 18.5111 15.8661C18.5111 20.2416 22.0687 23.8014 26.4464 23.8014C30.824 23.8014 34.3816 20.2416 34.3816 15.8661C34.3816 11.4907 30.824 7.93094 26.4464 7.93094Z" fill="#E95018"/>
<path d="M47.6081 34.3828H50.2539V37.0286H47.6081V34.3828Z" fill="white"/>
<path d="M42.3152 34.3828H44.9609V37.0286H42.3152V34.3828Z" fill="white"/>
<path d="M37.0261 34.3828H39.6719V37.0286H37.0261V34.3828Z" fill="white"/>
</svg>
