<svg width="63" height="69" viewBox="0 0 63 69" fill="none" xmlns="http://www.w3.org/2000/svg">
<mask id="mask0_2270_1875" style="mask-type:luminance" maskUnits="userSpaceOnUse" x="0" y="0" width="63" height="69">
<path d="M63 0H0V69H63V0Z" fill="white"/>
</mask>
<g mask="url(#mask0_2270_1875)">
<path d="M61.5401 36.0467C58.3452 32.8898 54.6509 35.8442 54.6509 35.8442V19.2275C54.6509 18.6698 54.1951 18.2175 53.6331 18.2175C53.0711 18.2175 52.614 18.6698 52.614 19.2275V37.2661C52.614 37.2661 47.7576 41.0658 45.6703 41.9948V12.075C45.6703 10.6842 46.8106 9.55264 48.2121 9.55264H50.0735C51.4751 9.55264 52.6153 10.6842 52.6153 12.075V15.0902C52.6153 15.6492 53.0711 16.1002 53.6345 16.1002C54.1978 16.1002 54.6523 15.6479 54.6523 15.0902V12.075C54.6523 9.57019 52.599 7.53125 50.0749 7.53125H48.2135C45.6894 7.53125 43.6348 9.56884 43.6348 12.075V42.7955C43.0279 42.9643 42.4047 43.0791 41.7706 43.1398V21.8322C41.7706 19.3139 39.7064 17.2655 37.1701 17.2655H35.3549C32.8186 17.2655 30.7545 19.3139 30.7545 21.8322V32.1309L28.8903 33.1139V29.6869C28.8903 27.4197 27.0316 25.5752 24.7484 25.5752H22.0147C19.7301 25.5752 17.8728 27.4197 17.8728 29.6869V38.9175L14.5473 40.6688L5.20884 43.3167C3.58281 43.7772 2.2262 44.8331 1.38938 46.2901C0.551192 47.747 0.322596 49.443 0.748492 51.0661L1.7935 55.0548C1.93501 55.595 2.49018 55.919 3.03581 55.7786C3.58009 55.6382 3.90666 55.0859 3.76514 54.5458L2.72013 50.5584C2.11463 48.2453 3.45355 45.9187 5.76944 45.2625L14.3078 42.8414L20.7248 59.8376C21.1548 60.9759 21.0867 64.222 17.6918 65.4197L11.2394 66.874C8.99156 67.3803 6.77499 66.0422 6.19534 63.8277L4.88499 58.8262C4.74348 58.2861 4.18696 57.962 3.64268 58.1024C3.09841 58.2429 2.77184 58.7951 2.91335 59.3353L4.2237 64.3368C4.95983 67.1467 7.47575 69.0034 10.2761 69.0034C12.3334 69.0034 18.1436 67.3898 18.1436 67.3898C19.9125 66.9914 21.4188 65.8545 22.2801 64.2706C22.989 62.9635 23.1999 61.4606 22.8965 60.028L45.22 54.6052C47.0664 54.1569 48.819 53.2859 50.2872 52.0882L61.1509 43.2303C64.4629 40.315 62.5198 37.0122 61.5469 36.0495L61.5401 36.0467ZM35.3522 19.2869H37.1674C38.5811 19.2869 39.7309 20.4279 39.7309 21.8309V43.1898L33.303 43.1871C32.7138 43.1817 33.1221 42.7955 33.1534 42.7685L35.0039 41.2805C36.7306 39.8924 37.8586 37.9628 38.3553 35.5431C38.671 34.0078 38.0804 32.4725 36.8163 31.5341C35.6353 30.6591 34.1167 30.4903 32.786 31.0682V21.8295C32.786 20.4266 33.9357 19.2856 35.3495 19.2856L35.3522 19.2869ZM19.907 29.6842C19.907 28.5324 20.8513 27.5953 22.012 27.5953H24.7456C25.9063 27.5953 26.8506 28.5324 26.8506 29.6842V34.1847L19.907 37.8426V29.6855V29.6842ZM59.8515 41.6653L48.9877 50.5233C47.7536 51.5292 46.2813 52.2611 44.7287 52.6378L22.242 58.1024L16.1937 42.0866L33.4609 32.991C34.163 32.6211 34.9617 32.6818 35.5985 33.1544C36.2353 33.627 36.5197 34.3697 36.3619 35.1407C35.9618 37.0878 35.0733 38.6258 33.7235 39.7101L31.8729 41.1981C31.1137 41.8071 30.8347 42.7915 31.1599 43.7043C31.4851 44.6171 32.3274 45.2085 33.303 45.2085L40.7242 45.2112H40.7297C43.3708 45.2112 45.9098 44.4145 48.072 42.9062L56.3654 37.1189C57.526 36.3087 59.0895 36.4505 60.0814 37.4592C60.6529 38.0384 61.7714 39.7601 59.8501 41.6653H59.8515Z" fill="white"/>
<path d="M16.8222 60.4801C16.8222 58.2845 15.022 56.498 12.8096 56.498C10.5971 56.498 8.79688 58.2845 8.79688 60.4801C8.79688 62.6756 10.5971 64.4621 12.8096 64.4621C15.022 64.4621 16.8222 62.6756 16.8222 60.4801ZM10.8338 60.4801C10.8338 59.3985 11.7196 58.5194 12.8096 58.5194C13.8995 58.5194 14.7839 59.3985 14.7839 60.4801C14.7839 61.5616 13.8981 62.4407 12.8096 62.4407C11.721 62.4407 10.8338 61.5603 10.8338 60.4801Z" fill="white"/>
<path d="M5.48376 31.7346L20.2894 16.9286L23.6204 18.6381C24.8137 19.2511 26.2656 19.0418 27.233 18.1169L35.2924 10.4175C35.2924 10.4175 35.0706 14.3725 38.4261 14.3725C40.1528 14.3725 41.5584 12.9777 41.5584 11.2628V3.10838C41.5584 3.09892 41.5584 3.08947 41.5584 3.08002C41.5475 0.951957 39.98 0 38.4261 0H30.281C28.5543 0 27.1487 1.39485 27.1487 3.10838C27.1487 6.52597 30.6538 6.2181 30.6538 6.2181L24.5062 12.0905L21.1276 10.3568C19.9057 9.72886 18.4335 9.95841 17.4646 10.9279L1.03702 27.3542C-0.180795 28.5709 -0.172631 30.5436 1.05471 31.7521C1.64525 32.3328 3.66316 33.5426 5.48512 31.7359L5.48376 31.7346ZM2.48208 28.7788L18.907 12.3525C19.1192 12.1405 19.4594 11.7705 20.1901 12.1526L24.2164 14.2199C24.6042 14.4198 25.0764 14.3509 25.3907 14.0512L33.8855 5.93724C34.1848 5.65098 34.2801 5.21348 34.1236 4.83135C33.9685 4.44922 33.5943 4.19806 33.1793 4.19806H30.281C29.6768 4.19806 29.1856 3.71061 29.1856 3.10973C29.1856 2.50885 29.6782 2.02274 30.281 2.02274H38.4261C38.7254 2.02274 39.5214 2.02274 39.5214 3.10432C39.5214 3.11243 39.5214 3.12188 39.5214 3.13133V11.2641C39.5214 11.8637 39.0289 12.3525 38.4261 12.3525C37.8233 12.3525 37.3294 11.865 37.3294 11.2641V8.0437C37.3294 7.63861 37.0844 7.27268 36.7103 7.11335C36.3347 6.95401 35.8993 7.03368 35.6054 7.31589L25.8206 16.6613C25.4818 16.984 24.9743 17.0583 24.5566 16.8449L20.5616 14.7938C20.167 14.5913 19.6839 14.6669 19.371 14.9802L4.03871 30.3114C3.37061 30.9744 2.69434 30.5207 2.48752 30.3168C2.0589 29.8941 2.05618 29.2041 2.48208 28.7788Z" fill="#E95018"/>
</g>
</svg>
