<svg width="97" height="36" viewBox="0 0 97 36" fill="none" xmlns="http://www.w3.org/2000/svg">
<path d="M2.352 11.964H5.768V13H1.078V3.242H2.352V11.964ZM7.97497 4.278V7.54H11.531V8.59H7.97497V11.95H11.951V13H6.70097V3.228H11.951V4.278H7.97497ZM16.5527 13.098C15.9087 13.098 15.33 12.986 14.8167 12.762C14.3127 12.5287 13.916 12.2113 13.6267 11.81C13.3374 11.3993 13.188 10.928 13.1787 10.396H14.5367C14.5834 10.8533 14.77 11.2407 15.0967 11.558C15.4327 11.866 15.918 12.02 16.5527 12.02C17.1594 12.02 17.6354 11.8707 17.9807 11.572C18.3354 11.264 18.5127 10.872 18.5127 10.396C18.5127 10.0227 18.41 9.71933 18.2047 9.486C17.9994 9.25267 17.7427 9.07533 17.4347 8.954C17.1267 8.83267 16.7114 8.702 16.1887 8.562C15.5447 8.394 15.0267 8.226 14.6347 8.058C14.252 7.89 13.9207 7.62867 13.6407 7.274C13.37 6.91 13.2347 6.42467 13.2347 5.818C13.2347 5.286 13.37 4.81467 13.6407 4.404C13.9114 3.99333 14.2894 3.676 14.7747 3.452C15.2694 3.228 15.834 3.116 16.4687 3.116C17.3834 3.116 18.13 3.34467 18.7087 3.802C19.2967 4.25933 19.628 4.866 19.7027 5.622H18.3027C18.256 5.24867 18.06 4.922 17.7147 4.642C17.3694 4.35267 16.912 4.208 16.3427 4.208C15.8107 4.208 15.3767 4.348 15.0407 4.628C14.7047 4.89867 14.5367 5.28133 14.5367 5.776C14.5367 6.13067 14.6347 6.42 14.8307 6.644C15.036 6.868 15.2834 7.04067 15.5727 7.162C15.8714 7.274 16.2867 7.40467 16.8187 7.554C17.4627 7.73133 17.9807 7.90867 18.3727 8.086C18.7647 8.254 19.1007 8.52 19.3807 8.884C19.6607 9.23867 19.8007 9.724 19.8007 10.34C19.8007 10.816 19.6747 11.264 19.4227 11.684C19.1707 12.104 18.7974 12.4447 18.3027 12.706C17.808 12.9673 17.2247 13.098 16.5527 13.098ZM24.3495 13.098C23.7055 13.098 23.1268 12.986 22.6135 12.762C22.1095 12.5287 21.7128 12.2113 21.4235 11.81C21.1342 11.3993 20.9848 10.928 20.9755 10.396H22.3335C22.3802 10.8533 22.5668 11.2407 22.8935 11.558C23.2295 11.866 23.7148 12.02 24.3495 12.02C24.9562 12.02 25.4322 11.8707 25.7775 11.572C26.1322 11.264 26.3095 10.872 26.3095 10.396C26.3095 10.0227 26.2068 9.71933 26.0015 9.486C25.7962 9.25267 25.5395 9.07533 25.2315 8.954C24.9235 8.83267 24.5082 8.702 23.9855 8.562C23.3415 8.394 22.8235 8.226 22.4315 8.058C22.0488 7.89 21.7175 7.62867 21.4375 7.274C21.1668 6.91 21.0315 6.42467 21.0315 5.818C21.0315 5.286 21.1668 4.81467 21.4375 4.404C21.7082 3.99333 22.0862 3.676 22.5715 3.452C23.0662 3.228 23.6308 3.116 24.2655 3.116C25.1802 3.116 25.9268 3.34467 26.5055 3.802C27.0935 4.25933 27.4248 4.866 27.4995 5.622H26.0995C26.0528 5.24867 25.8568 4.922 25.5115 4.642C25.1662 4.35267 24.7088 4.208 24.1395 4.208C23.6075 4.208 23.1735 4.348 22.8375 4.628C22.5015 4.89867 22.3335 5.28133 22.3335 5.776C22.3335 6.13067 22.4315 6.42 22.6275 6.644C22.8328 6.868 23.0802 7.04067 23.3695 7.162C23.6682 7.274 24.0835 7.40467 24.6155 7.554C25.2595 7.73133 25.7775 7.90867 26.1695 8.086C26.5615 8.254 26.8975 8.52 27.1775 8.884C27.4575 9.23867 27.5975 9.724 27.5975 10.34C27.5975 10.816 27.4715 11.264 27.2195 11.684C26.9675 12.104 26.5942 12.4447 26.0995 12.706C25.6048 12.9673 25.0215 13.098 24.3495 13.098ZM37.5027 13L35.1787 9.01H33.6387V13H32.3647V3.242H35.5147C36.2521 3.242 36.8727 3.368 37.3767 3.62C37.8901 3.872 38.2727 4.21267 38.5247 4.642C38.7767 5.07133 38.9027 5.56133 38.9027 6.112C38.9027 6.784 38.7067 7.37667 38.3147 7.89C37.9321 8.40333 37.3534 8.744 36.5787 8.912L39.0287 13H37.5027ZM33.6387 7.988H35.5147C36.2054 7.988 36.7234 7.82 37.0687 7.484C37.4141 7.13867 37.5867 6.68133 37.5867 6.112C37.5867 5.53333 37.4141 5.08533 37.0687 4.768C36.7327 4.45067 36.2147 4.292 35.5147 4.292H33.6387V7.988ZM41.7363 4.278V7.54H45.2923V8.59H41.7363V11.95H45.7123V13H40.4623V3.228H45.7123V4.278H41.7363ZM50.314 13.098C49.67 13.098 49.0914 12.986 48.578 12.762C48.074 12.5287 47.6774 12.2113 47.388 11.81C47.0987 11.3993 46.9494 10.928 46.94 10.396H48.298C48.3447 10.8533 48.5314 11.2407 48.858 11.558C49.194 11.866 49.6794 12.02 50.314 12.02C50.9207 12.02 51.3967 11.8707 51.742 11.572C52.0967 11.264 52.274 10.872 52.274 10.396C52.274 10.0227 52.1714 9.71933 51.966 9.486C51.7607 9.25267 51.504 9.07533 51.196 8.954C50.888 8.83267 50.4727 8.702 49.95 8.562C49.306 8.394 48.788 8.226 48.396 8.058C48.0134 7.89 47.682 7.62867 47.402 7.274C47.1314 6.91 46.996 6.42467 46.996 5.818C46.996 5.286 47.1314 4.81467 47.402 4.404C47.6727 3.99333 48.0507 3.676 48.536 3.452C49.0307 3.228 49.5954 3.116 50.23 3.116C51.1447 3.116 51.8914 3.34467 52.47 3.802C53.058 4.25933 53.3894 4.866 53.464 5.622H52.064C52.0174 5.24867 51.8214 4.922 51.476 4.642C51.1307 4.35267 50.6734 4.208 50.104 4.208C49.572 4.208 49.138 4.348 48.802 4.628C48.466 4.89867 48.298 5.28133 48.298 5.776C48.298 6.13067 48.396 6.42 48.592 6.644C48.7974 6.868 49.0447 7.04067 49.334 7.162C49.6327 7.274 50.048 7.40467 50.58 7.554C51.224 7.73133 51.742 7.90867 52.134 8.086C52.526 8.254 52.862 8.52 53.142 8.884C53.422 9.23867 53.562 9.724 53.562 10.34C53.562 10.816 53.436 11.264 53.184 11.684C52.932 12.104 52.5587 12.4447 52.064 12.706C51.5694 12.9673 50.986 13.098 50.314 13.098ZM61.5408 6.098C61.5408 6.91 61.2608 7.58667 60.7008 8.128C60.1502 8.66 59.3055 8.926 58.1668 8.926H56.2908V13H55.0168V3.242H58.1668C59.2682 3.242 60.1035 3.508 60.6728 4.04C61.2515 4.572 61.5408 5.258 61.5408 6.098ZM58.1668 7.876C58.8762 7.876 59.3988 7.722 59.7348 7.414C60.0708 7.106 60.2388 6.66733 60.2388 6.098C60.2388 4.894 59.5482 4.292 58.1668 4.292H56.2908V7.876H58.1668ZM67.1283 13.098C66.2229 13.098 65.3969 12.888 64.6503 12.468C63.9036 12.0387 63.3109 11.446 62.8723 10.69C62.4429 9.92467 62.2283 9.066 62.2283 8.114C62.2283 7.162 62.4429 6.308 62.8723 5.552C63.3109 4.78667 63.9036 4.194 64.6503 3.774C65.3969 3.34467 66.2229 3.13 67.1283 3.13C68.0429 3.13 68.8736 3.34467 69.6203 3.774C70.3669 4.194 70.9549 4.782 71.3843 5.538C71.8136 6.294 72.0283 7.15267 72.0283 8.114C72.0283 9.07533 71.8136 9.934 71.3843 10.69C70.9549 11.446 70.3669 12.0387 69.6203 12.468C68.8736 12.888 68.0429 13.098 67.1283 13.098ZM67.1283 11.992C67.8096 11.992 68.4209 11.8333 68.9623 11.516C69.5129 11.1987 69.9423 10.746 70.2503 10.158C70.5676 9.57 70.7263 8.88867 70.7263 8.114C70.7263 7.33 70.5676 6.64867 70.2503 6.07C69.9423 5.482 69.5176 5.02933 68.9763 4.712C68.4349 4.39467 67.8189 4.236 67.1283 4.236C66.4376 4.236 65.8216 4.39467 65.2803 4.712C64.7389 5.02933 64.3096 5.482 63.9923 6.07C63.6843 6.64867 63.5303 7.33 63.5303 8.114C63.5303 8.88867 63.6843 9.57 63.9923 10.158C64.3096 10.746 64.7389 11.1987 65.2803 11.516C65.8309 11.8333 66.4469 11.992 67.1283 11.992ZM80.9621 13H79.6881L74.5641 5.23V13H73.2901V3.228H74.5641L79.6881 10.984V3.228H80.9621V13ZM85.8079 13.098C85.1639 13.098 84.5852 12.986 84.0719 12.762C83.5679 12.5287 83.1712 12.2113 82.8819 11.81C82.5925 11.3993 82.4432 10.928 82.4339 10.396H83.7919C83.8385 10.8533 84.0252 11.2407 84.3519 11.558C84.6879 11.866 85.1732 12.02 85.8079 12.02C86.4145 12.02 86.8905 11.8707 87.2359 11.572C87.5905 11.264 87.7679 10.872 87.7679 10.396C87.7679 10.0227 87.6652 9.71933 87.4599 9.486C87.2545 9.25267 86.9979 9.07533 86.6899 8.954C86.3819 8.83267 85.9665 8.702 85.4439 8.562C84.7999 8.394 84.2819 8.226 83.8899 8.058C83.5072 7.89 83.1759 7.62867 82.8959 7.274C82.6252 6.91 82.4899 6.42467 82.4899 5.818C82.4899 5.286 82.6252 4.81467 82.8959 4.404C83.1665 3.99333 83.5445 3.676 84.0299 3.452C84.5245 3.228 85.0892 3.116 85.7239 3.116C86.6385 3.116 87.3852 3.34467 87.9639 3.802C88.5519 4.25933 88.8832 4.866 88.9579 5.622H87.5579C87.5112 5.24867 87.3152 4.922 86.9699 4.642C86.6245 4.35267 86.1672 4.208 85.5979 4.208C85.0659 4.208 84.6319 4.348 84.2959 4.628C83.9599 4.89867 83.7919 5.28133 83.7919 5.776C83.7919 6.13067 83.8899 6.42 84.0859 6.644C84.2912 6.868 84.5385 7.04067 84.8279 7.162C85.1265 7.274 85.5419 7.40467 86.0739 7.554C86.7179 7.73133 87.2359 7.90867 87.6279 8.086C88.0199 8.254 88.3559 8.52 88.6359 8.884C88.9159 9.23867 89.0559 9.724 89.0559 10.34C89.0559 10.816 88.9299 11.264 88.6779 11.684C88.4259 12.104 88.0525 12.4447 87.5579 12.706C87.0632 12.9673 86.4799 13.098 85.8079 13.098ZM91.7847 4.278V7.54H95.3407V8.59H91.7847V11.95H95.7607V13H90.5107V3.228H95.7607V4.278H91.7847Z" fill="#71717A"/>
<path d="M32.127 20.7812V35H29.207V20.7812H32.127ZM36.502 20.7812V23.0762H24.9004V20.7812H36.502ZM41.2871 20.7812V35H38.3672V20.7812H41.2871ZM45.3691 20.7812H47.8496L51.502 31.2207L55.1543 20.7812H57.6348L52.498 35H50.5059L45.3691 20.7812ZM44.0312 20.7812H46.502L46.9512 30.957V35H44.0312V20.7812ZM56.502 20.7812H58.9824V35H56.0527V30.957L56.502 20.7812ZM71.0918 32.7148V35H63.5234V32.7148H71.0918ZM64.4805 20.7812V35H61.5508V20.7812H64.4805ZM70.1055 26.5723V28.7988H63.5234V26.5723H70.1055ZM71.082 20.7812V23.0762H63.5234V20.7812H71.082Z" fill="#FAFAFA"/>
</svg>
