<svg width="109" height="36" viewBox="0 0 109 36" fill="none" xmlns="http://www.w3.org/2000/svg">
<path d="M34.352 4.278V7.54H37.908V8.59H34.352V11.95H38.328V13H33.078V3.228H38.328V4.278H34.352ZM43.8257 8.128L46.8217 13H45.3797L43.0417 9.192L40.8157 13H39.4017L42.3837 8.128L39.3877 3.242H40.8157L43.1677 7.064L45.4077 3.242H46.8357L43.8257 8.128ZM54.635 6.098C54.635 6.91 54.355 7.58667 53.795 8.128C53.2444 8.66 52.3997 8.926 51.261 8.926H49.385V13H48.111V3.242H51.261C52.3624 3.242 53.1977 3.508 53.767 4.04C54.3457 4.572 54.635 5.258 54.635 6.098ZM51.261 7.876C51.9704 7.876 52.493 7.722 52.829 7.414C53.165 7.106 53.333 6.66733 53.333 6.098C53.333 4.894 52.6424 4.292 51.261 4.292H49.385V7.876H51.261ZM57.0725 4.278V7.54H60.6285V8.59H57.0725V11.95H61.0485V13H55.7985V3.228H61.0485V4.278H57.0725ZM67.6942 13L65.3702 9.01H63.8302V13H62.5562V3.242H65.7062C66.4435 3.242 67.0642 3.368 67.5682 3.62C68.0815 3.872 68.4642 4.21267 68.7162 4.642C68.9682 5.07133 69.0942 5.56133 69.0942 6.112C69.0942 6.784 68.8982 7.37667 68.5062 7.89C68.1235 8.40333 67.5449 8.744 66.7702 8.912L69.2202 13H67.6942ZM63.8302 7.988H65.7062C66.3969 7.988 66.9149 7.82 67.2602 7.484C67.6055 7.13867 67.7782 6.68133 67.7782 6.112C67.7782 5.53333 67.6055 5.08533 67.2602 4.768C66.9242 4.45067 66.4062 4.292 65.7062 4.292H63.8302V7.988ZM76.6598 3.242V4.278H73.9998V13H72.7258V4.278H70.0518V3.242H76.6598Z" fill="#71717A"/>
<path d="M8.67188 31.2793C8.67188 31.0254 8.63281 30.7975 8.55469 30.5957C8.48307 30.3874 8.34635 30.1986 8.14453 30.0293C7.94271 29.8535 7.65951 29.681 7.29492 29.5117C6.93034 29.3424 6.45833 29.1667 5.87891 28.9844C5.23438 28.776 4.6224 28.5417 4.04297 28.2812C3.47005 28.0208 2.96224 27.7181 2.51953 27.373C2.08333 27.0215 1.73828 26.6146 1.48438 26.1523C1.23698 25.6901 1.11328 25.153 1.11328 24.541C1.11328 23.9486 1.24349 23.4115 1.50391 22.9297C1.76432 22.4414 2.12891 22.0247 2.59766 21.6797C3.06641 21.3281 3.61979 21.0579 4.25781 20.8691C4.90234 20.6803 5.60872 20.5859 6.37695 20.5859C7.42513 20.5859 8.33984 20.7747 9.12109 21.1523C9.90234 21.5299 10.5078 22.0475 10.9375 22.7051C11.3737 23.3626 11.5918 24.1146 11.5918 24.9609H8.68164C8.68164 24.5443 8.59375 24.1797 8.41797 23.8672C8.2487 23.5482 7.98828 23.2975 7.63672 23.1152C7.29167 22.9329 6.85547 22.8418 6.32812 22.8418C5.82031 22.8418 5.39714 22.9199 5.05859 23.0762C4.72005 23.2259 4.46615 23.431 4.29688 23.6914C4.1276 23.9453 4.04297 24.2318 4.04297 24.5508C4.04297 24.7917 4.10156 25.0098 4.21875 25.2051C4.34245 25.4004 4.52474 25.5827 4.76562 25.752C5.00651 25.9212 5.30273 26.0807 5.6543 26.2305C6.00586 26.3802 6.41276 26.5267 6.875 26.6699C7.64974 26.9043 8.33008 27.168 8.91602 27.4609C9.50846 27.7539 10.0033 28.0827 10.4004 28.4473C10.7975 28.8118 11.097 29.2253 11.2988 29.6875C11.5007 30.1497 11.6016 30.6738 11.6016 31.2598C11.6016 31.8783 11.4811 32.4316 11.2402 32.9199C10.9993 33.4082 10.651 33.8216 10.1953 34.1602C9.73958 34.4987 9.19596 34.7559 8.56445 34.9316C7.93294 35.1074 7.22656 35.1953 6.44531 35.1953C5.74219 35.1953 5.04883 35.1042 4.36523 34.9219C3.68164 34.7331 3.0599 34.4499 2.5 34.0723C1.94661 33.6947 1.50391 33.2129 1.17188 32.627C0.839844 32.041 0.673828 31.3477 0.673828 30.5469H3.61328C3.61328 30.9896 3.68164 31.3639 3.81836 31.6699C3.95508 31.9759 4.14714 32.2233 4.39453 32.4121C4.64844 32.6009 4.94792 32.7376 5.29297 32.8223C5.64453 32.9069 6.02865 32.9492 6.44531 32.9492C6.95312 32.9492 7.36979 32.8776 7.69531 32.7344C8.02734 32.5911 8.27148 32.3926 8.42773 32.1387C8.59049 31.8848 8.67188 31.5983 8.67188 31.2793ZM25.2734 27.5586V28.2324C25.2734 29.3132 25.127 30.2832 24.834 31.1426C24.541 32.002 24.1276 32.7344 23.5938 33.3398C23.0599 33.9388 22.4219 34.3978 21.6797 34.7168C20.944 35.0358 20.127 35.1953 19.2285 35.1953C18.3366 35.1953 17.5195 35.0358 16.7773 34.7168C16.0417 34.3978 15.4036 33.9388 14.8633 33.3398C14.3229 32.7344 13.903 32.002 13.6035 31.1426C13.3105 30.2832 13.1641 29.3132 13.1641 28.2324V27.5586C13.1641 26.4714 13.3105 25.5013 13.6035 24.6484C13.8965 23.7891 14.3099 23.0566 14.8438 22.4512C15.3841 21.8457 16.0221 21.3835 16.7578 21.0645C17.5 20.7454 18.3171 20.5859 19.209 20.5859C20.1074 20.5859 20.9245 20.7454 21.6602 21.0645C22.4023 21.3835 23.0404 21.8457 23.5742 22.4512C24.1146 23.0566 24.5312 23.7891 24.8242 24.6484C25.1237 25.5013 25.2734 26.4714 25.2734 27.5586ZM22.3145 28.2324V27.5391C22.3145 26.7839 22.2461 26.1198 22.1094 25.5469C21.9727 24.974 21.7708 24.4922 21.5039 24.1016C21.237 23.7109 20.9115 23.418 20.5273 23.2227C20.1432 23.0208 19.7038 22.9199 19.209 22.9199C18.7142 22.9199 18.2747 23.0208 17.8906 23.2227C17.513 23.418 17.1908 23.7109 16.9238 24.1016C16.6634 24.4922 16.4648 24.974 16.3281 25.5469C16.1914 26.1198 16.123 26.7839 16.123 27.5391V28.2324C16.123 28.9811 16.1914 29.6452 16.3281 30.2246C16.4648 30.7975 16.6667 31.2826 16.9336 31.6797C17.2005 32.0703 17.526 32.3665 17.9102 32.5684C18.2943 32.7702 18.7337 32.8711 19.2285 32.8711C19.7233 32.8711 20.1628 32.7702 20.5469 32.5684C20.931 32.3665 21.2533 32.0703 21.5137 31.6797C21.7741 31.2826 21.9727 30.7975 22.1094 30.2246C22.2461 29.6452 22.3145 28.9811 22.3145 28.2324ZM36.5234 32.7148V35H29.3652V32.7148H36.5234ZM30.3125 20.7812V35H27.3828V20.7812H30.3125ZM45.7227 20.7812H48.6426V30.1758C48.6426 31.2695 48.4082 32.1908 47.9395 32.9395C47.4772 33.6882 46.8359 34.2513 46.0156 34.6289C45.2018 35.0065 44.2643 35.1953 43.2031 35.1953C42.1419 35.1953 41.1979 35.0065 40.3711 34.6289C39.5508 34.2513 38.9062 33.6882 38.4375 32.9395C37.9753 32.1908 37.7441 31.2695 37.7441 30.1758V20.7812H40.6738V30.1758C40.6738 30.8138 40.7747 31.3346 40.9766 31.7383C41.1784 32.1419 41.4681 32.4382 41.8457 32.627C42.2298 32.8158 42.6823 32.9102 43.2031 32.9102C43.737 32.9102 44.1895 32.8158 44.5605 32.627C44.9382 32.4382 45.2246 32.1419 45.4199 31.7383C45.6217 31.3346 45.7227 30.8138 45.7227 30.1758V20.7812ZM57.4121 20.7812V35H54.4922V20.7812H57.4121ZM61.7871 20.7812V23.0762H50.1855V20.7812H61.7871ZM66.5723 20.7812V35H63.6523V20.7812H66.5723ZM80.9961 27.5586V28.2324C80.9961 29.3132 80.8496 30.2832 80.5566 31.1426C80.2637 32.002 79.8503 32.7344 79.3164 33.3398C78.7826 33.9388 78.1445 34.3978 77.4023 34.7168C76.6667 35.0358 75.8496 35.1953 74.9512 35.1953C74.0592 35.1953 73.2422 35.0358 72.5 34.7168C71.7643 34.3978 71.1263 33.9388 70.5859 33.3398C70.0456 32.7344 69.6257 32.002 69.3262 31.1426C69.0332 30.2832 68.8867 29.3132 68.8867 28.2324V27.5586C68.8867 26.4714 69.0332 25.5013 69.3262 24.6484C69.6191 23.7891 70.0326 23.0566 70.5664 22.4512C71.1068 21.8457 71.7448 21.3835 72.4805 21.0645C73.2227 20.7454 74.0397 20.5859 74.9316 20.5859C75.8301 20.5859 76.6471 20.7454 77.3828 21.0645C78.125 21.3835 78.763 21.8457 79.2969 22.4512C79.8372 23.0566 80.2539 23.7891 80.5469 24.6484C80.8464 25.5013 80.9961 26.4714 80.9961 27.5586ZM78.0371 28.2324V27.5391C78.0371 26.7839 77.9688 26.1198 77.832 25.5469C77.6953 24.974 77.4935 24.4922 77.2266 24.1016C76.9596 23.7109 76.6341 23.418 76.25 23.2227C75.8659 23.0208 75.4264 22.9199 74.9316 22.9199C74.4368 22.9199 73.9974 23.0208 73.6133 23.2227C73.2357 23.418 72.9134 23.7109 72.6465 24.1016C72.3861 24.4922 72.1875 24.974 72.0508 25.5469C71.9141 26.1198 71.8457 26.7839 71.8457 27.5391V28.2324C71.8457 28.9811 71.9141 29.6452 72.0508 30.2246C72.1875 30.7975 72.3893 31.2826 72.6562 31.6797C72.9232 32.0703 73.2487 32.3665 73.6328 32.5684C74.0169 32.7702 74.4564 32.8711 74.9512 32.8711C75.446 32.8711 75.8854 32.7702 76.2695 32.5684C76.6536 32.3665 76.9759 32.0703 77.2363 31.6797C77.4967 31.2826 77.6953 30.7975 77.832 30.2246C77.9688 29.6452 78.0371 28.9811 78.0371 28.2324ZM94.6777 20.7812V35H91.748L86.0352 25.4688V35H83.1055V20.7812H86.0352L91.7578 30.3223V20.7812H94.6777ZM104.629 31.2793C104.629 31.0254 104.59 30.7975 104.512 30.5957C104.44 30.3874 104.303 30.1986 104.102 30.0293C103.9 29.8535 103.617 29.681 103.252 29.5117C102.887 29.3424 102.415 29.1667 101.836 28.9844C101.191 28.776 100.579 28.5417 100 28.2812C99.4271 28.0208 98.9193 27.7181 98.4766 27.373C98.0404 27.0215 97.6953 26.6146 97.4414 26.1523C97.194 25.6901 97.0703 25.153 97.0703 24.541C97.0703 23.9486 97.2005 23.4115 97.4609 22.9297C97.7214 22.4414 98.0859 22.0247 98.5547 21.6797C99.0234 21.3281 99.5768 21.0579 100.215 20.8691C100.859 20.6803 101.566 20.5859 102.334 20.5859C103.382 20.5859 104.297 20.7747 105.078 21.1523C105.859 21.5299 106.465 22.0475 106.895 22.7051C107.331 23.3626 107.549 24.1146 107.549 24.9609H104.639C104.639 24.5443 104.551 24.1797 104.375 23.8672C104.206 23.5482 103.945 23.2975 103.594 23.1152C103.249 22.9329 102.812 22.8418 102.285 22.8418C101.777 22.8418 101.354 22.9199 101.016 23.0762C100.677 23.2259 100.423 23.431 100.254 23.6914C100.085 23.9453 100 24.2318 100 24.5508C100 24.7917 100.059 25.0098 100.176 25.2051C100.299 25.4004 100.482 25.5827 100.723 25.752C100.964 25.9212 101.26 26.0807 101.611 26.2305C101.963 26.3802 102.37 26.5267 102.832 26.6699C103.607 26.9043 104.287 27.168 104.873 27.4609C105.465 27.7539 105.96 28.0827 106.357 28.4473C106.755 28.8118 107.054 29.2253 107.256 29.6875C107.458 30.1497 107.559 30.6738 107.559 31.2598C107.559 31.8783 107.438 32.4316 107.197 32.9199C106.956 33.4082 106.608 33.8216 106.152 34.1602C105.697 34.4987 105.153 34.7559 104.521 34.9316C103.89 35.1074 103.184 35.1953 102.402 35.1953C101.699 35.1953 101.006 35.1042 100.322 34.9219C99.6387 34.7331 99.0169 34.4499 98.457 34.0723C97.9036 33.6947 97.4609 33.2129 97.1289 32.627C96.7969 32.041 96.6309 31.3477 96.6309 30.5469H99.5703C99.5703 30.9896 99.6387 31.3639 99.7754 31.6699C99.9121 31.9759 100.104 32.2233 100.352 32.4121C100.605 32.6009 100.905 32.7376 101.25 32.8223C101.602 32.9069 101.986 32.9492 102.402 32.9492C102.91 32.9492 103.327 32.8776 103.652 32.7344C103.984 32.5911 104.229 32.3926 104.385 32.1387C104.548 31.8848 104.629 31.5983 104.629 31.2793Z" fill="#FAFAFA"/>
</svg>
