<svg width="60" height="36" viewBox="0 0 60 36" fill="none" xmlns="http://www.w3.org/2000/svg">
<path d="M6.216 13L3.892 9.01H2.352V13H1.078V3.242H4.228C4.96533 3.242 5.586 3.368 6.09 3.62C6.60333 3.872 6.986 4.21267 7.238 4.642C7.49 5.07133 7.616 5.56133 7.616 6.112C7.616 6.784 7.42 7.37667 7.028 7.89C6.64533 8.40333 6.06667 8.744 5.292 8.912L7.742 13H6.216ZM2.352 7.988H4.228C4.91867 7.988 5.43667 7.82 5.782 7.484C6.12733 7.13867 6.3 6.68133 6.3 6.112C6.3 5.53333 6.12733 5.08533 5.782 4.768C5.446 4.45067 4.928 4.292 4.228 4.292H2.352V7.988ZM10.4496 4.278V7.54H14.0056V8.59H10.4496V11.95H14.4256V13H9.17558V3.228H14.4256V4.278H10.4496ZM18.9713 3.242C20.0353 3.242 20.9546 3.44267 21.7293 3.844C22.5133 4.236 23.1106 4.80067 23.5213 5.538C23.9413 6.27533 24.1513 7.14333 24.1513 8.142C24.1513 9.14067 23.9413 10.0087 23.5213 10.746C23.1106 11.474 22.5133 12.034 21.7293 12.426C20.9546 12.8087 20.0353 13 18.9713 13H15.9333V3.242H18.9713ZM18.9713 11.95C20.2313 11.95 21.1926 11.6187 21.8553 10.956C22.518 10.284 22.8493 9.346 22.8493 8.142C22.8493 6.92867 22.5133 5.98133 21.8413 5.3C21.1786 4.61867 20.222 4.278 18.9713 4.278H17.2073V11.95H18.9713ZM26.6577 3.242V9.416C26.6577 10.284 26.8677 10.928 27.2877 11.348C27.7171 11.768 28.3097 11.978 29.0658 11.978C29.8124 11.978 30.3958 11.768 30.8158 11.348C31.2451 10.928 31.4597 10.284 31.4597 9.416V3.242H32.7338V9.402C32.7338 10.214 32.5704 10.9 32.2437 11.46C31.9171 12.0107 31.4738 12.4213 30.9138 12.692C30.3631 12.9627 29.7424 13.098 29.0517 13.098C28.3611 13.098 27.7357 12.9627 27.1757 12.692C26.6251 12.4213 26.1864 12.0107 25.8597 11.46C25.5424 10.9 25.3837 10.214 25.3837 9.402V3.242H26.6577ZM33.963 8.114C33.963 7.162 34.1777 6.308 34.607 5.552C35.0363 4.78667 35.6197 4.18933 36.357 3.76C37.1037 3.33067 37.9297 3.116 38.835 3.116C39.899 3.116 40.8277 3.37267 41.621 3.886C42.4143 4.39933 42.993 5.12733 43.357 6.07H41.831C41.5603 5.482 41.1683 5.02933 40.655 4.712C40.151 4.39467 39.5443 4.236 38.835 4.236C38.1537 4.236 37.5423 4.39467 37.001 4.712C36.4597 5.02933 36.035 5.482 35.727 6.07C35.419 6.64867 35.265 7.33 35.265 8.114C35.265 8.88867 35.419 9.57 35.727 10.158C36.035 10.7367 36.4597 11.1847 37.001 11.502C37.5423 11.8193 38.1537 11.978 38.835 11.978C39.5443 11.978 40.151 11.824 40.655 11.516C41.1683 11.1987 41.5603 10.746 41.831 10.158H43.357C42.993 11.0913 42.4143 11.8147 41.621 12.328C40.8277 12.832 39.899 13.084 38.835 13.084C37.9297 13.084 37.1037 12.874 36.357 12.454C35.6197 12.0247 35.0363 11.432 34.607 10.676C34.1777 9.92 33.963 9.066 33.963 8.114ZM46.1075 4.278V7.54H49.6635V8.59H46.1075V11.95H50.0835V13H44.8335V3.228H50.0835V4.278H46.1075ZM54.6292 3.242C55.6932 3.242 56.6125 3.44267 57.3872 3.844C58.1712 4.236 58.7685 4.80067 59.1792 5.538C59.5992 6.27533 59.8092 7.14333 59.8092 8.142C59.8092 9.14067 59.5992 10.0087 59.1792 10.746C58.7685 11.474 58.1712 12.034 57.3872 12.426C56.6125 12.8087 55.6932 13 54.6292 13H51.5912V3.242H54.6292ZM54.6292 11.95C55.8892 11.95 56.8505 11.6187 57.5132 10.956C58.1759 10.284 58.5072 9.346 58.5072 8.142C58.5072 6.92867 58.1712 5.98133 57.4992 5.3C56.8365 4.61867 55.8799 4.278 54.6292 4.278H52.8652V11.95H54.6292Z" fill="#71717A"/>
<path d="M13.5117 30.2832H16.4316C16.373 31.2402 16.1094 32.0898 15.6406 32.832C15.1784 33.5742 14.5306 34.1536 13.6973 34.5703C12.8704 34.987 11.8743 35.1953 10.709 35.1953C9.79753 35.1953 8.98047 35.0391 8.25781 34.7266C7.53516 34.4076 6.91667 33.9518 6.40234 33.3594C5.89453 32.7669 5.50716 32.0508 5.24023 31.2109C4.97331 30.3711 4.83984 29.4303 4.83984 28.3887V27.4023C4.83984 26.3607 4.97656 25.4199 5.25 24.5801C5.52995 23.7337 5.92708 23.0143 6.44141 22.4219C6.96224 21.8294 7.58398 21.3737 8.30664 21.0547C9.0293 20.7357 9.83659 20.5762 10.7285 20.5762C11.9134 20.5762 12.9128 20.791 13.7266 21.2207C14.5469 21.6504 15.1816 22.2428 15.6309 22.998C16.0866 23.7533 16.36 24.6126 16.4512 25.5762H13.5215C13.4889 25.0033 13.375 24.5182 13.1797 24.1211C12.9844 23.7174 12.6882 23.4147 12.291 23.2129C11.9004 23.0046 11.3796 22.9004 10.7285 22.9004C10.2402 22.9004 9.8138 22.9915 9.44922 23.1738C9.08464 23.3561 8.77865 23.6328 8.53125 24.0039C8.28385 24.375 8.09831 24.8438 7.97461 25.4102C7.85742 25.9701 7.79883 26.6276 7.79883 27.3828V28.3887C7.79883 29.1243 7.85417 29.7721 7.96484 30.332C8.07552 30.8854 8.24479 31.3542 8.47266 31.7383C8.70703 32.1159 9.00651 32.4023 9.37109 32.5977C9.74219 32.7865 10.1882 32.8809 10.709 32.8809C11.321 32.8809 11.8255 32.7832 12.2227 32.5879C12.6198 32.3926 12.9225 32.1029 13.1309 31.7188C13.3457 31.3346 13.4727 30.8561 13.5117 30.2832ZM30.0352 27.5586V28.2324C30.0352 29.3132 29.8887 30.2832 29.5957 31.1426C29.3027 32.002 28.8893 32.7344 28.3555 33.3398C27.8216 33.9388 27.1836 34.3978 26.4414 34.7168C25.7057 35.0358 24.8887 35.1953 23.9902 35.1953C23.0983 35.1953 22.2812 35.0358 21.5391 34.7168C20.8034 34.3978 20.1654 33.9388 19.625 33.3398C19.0846 32.7344 18.6647 32.002 18.3652 31.1426C18.0723 30.2832 17.9258 29.3132 17.9258 28.2324V27.5586C17.9258 26.4714 18.0723 25.5013 18.3652 24.6484C18.6582 23.7891 19.0716 23.0566 19.6055 22.4512C20.1458 21.8457 20.7839 21.3835 21.5195 21.0645C22.2617 20.7454 23.0788 20.5859 23.9707 20.5859C24.8691 20.5859 25.6862 20.7454 26.4219 21.0645C27.1641 21.3835 27.8021 21.8457 28.3359 22.4512C28.8763 23.0566 29.293 23.7891 29.5859 24.6484C29.8854 25.5013 30.0352 26.4714 30.0352 27.5586ZM27.0762 28.2324V27.5391C27.0762 26.7839 27.0078 26.1198 26.8711 25.5469C26.7344 24.974 26.5326 24.4922 26.2656 24.1016C25.9987 23.7109 25.6732 23.418 25.2891 23.2227C24.9049 23.0208 24.4655 22.9199 23.9707 22.9199C23.4759 22.9199 23.0365 23.0208 22.6523 23.2227C22.2747 23.418 21.9525 23.7109 21.6855 24.1016C21.4251 24.4922 21.2266 24.974 21.0898 25.5469C20.9531 26.1198 20.8848 26.7839 20.8848 27.5391V28.2324C20.8848 28.9811 20.9531 29.6452 21.0898 30.2246C21.2266 30.7975 21.4284 31.2826 21.6953 31.6797C21.9622 32.0703 22.2878 32.3665 22.6719 32.5684C23.056 32.7702 23.4954 32.8711 23.9902 32.8711C24.485 32.8711 24.9245 32.7702 25.3086 32.5684C25.6927 32.3665 26.015 32.0703 26.2754 31.6797C26.5358 31.2826 26.7344 30.7975 26.8711 30.2246C27.0078 29.6452 27.0762 28.9811 27.0762 28.2324ZM39.5469 31.2793C39.5469 31.0254 39.5078 30.7975 39.4297 30.5957C39.3581 30.3874 39.2214 30.1986 39.0195 30.0293C38.8177 29.8535 38.5345 29.681 38.1699 29.5117C37.8053 29.3424 37.3333 29.1667 36.7539 28.9844C36.1094 28.776 35.4974 28.5417 34.918 28.2812C34.3451 28.0208 33.8372 27.7181 33.3945 27.373C32.9583 27.0215 32.6133 26.6146 32.3594 26.1523C32.112 25.6901 31.9883 25.153 31.9883 24.541C31.9883 23.9486 32.1185 23.4115 32.3789 22.9297C32.6393 22.4414 33.0039 22.0247 33.4727 21.6797C33.9414 21.3281 34.4948 21.0579 35.1328 20.8691C35.7773 20.6803 36.4837 20.5859 37.252 20.5859C38.3001 20.5859 39.2148 20.7747 39.9961 21.1523C40.7773 21.5299 41.3828 22.0475 41.8125 22.7051C42.2487 23.3626 42.4668 24.1146 42.4668 24.9609H39.5566C39.5566 24.5443 39.4688 24.1797 39.293 23.8672C39.1237 23.5482 38.8633 23.2975 38.5117 23.1152C38.1667 22.9329 37.7305 22.8418 37.2031 22.8418C36.6953 22.8418 36.2721 22.9199 35.9336 23.0762C35.5951 23.2259 35.3411 23.431 35.1719 23.6914C35.0026 23.9453 34.918 24.2318 34.918 24.5508C34.918 24.7917 34.9766 25.0098 35.0938 25.2051C35.2174 25.4004 35.3997 25.5827 35.6406 25.752C35.8815 25.9212 36.1777 26.0807 36.5293 26.2305C36.8809 26.3802 37.2878 26.5267 37.75 26.6699C38.5247 26.9043 39.2051 27.168 39.791 27.4609C40.3835 27.7539 40.8783 28.0827 41.2754 28.4473C41.6725 28.8118 41.972 29.2253 42.1738 29.6875C42.3757 30.1497 42.4766 30.6738 42.4766 31.2598C42.4766 31.8783 42.3561 32.4316 42.1152 32.9199C41.8743 33.4082 41.526 33.8216 41.0703 34.1602C40.6146 34.4987 40.071 34.7559 39.4395 34.9316C38.8079 35.1074 38.1016 35.1953 37.3203 35.1953C36.6172 35.1953 35.9238 35.1042 35.2402 34.9219C34.5566 34.7331 33.9349 34.4499 33.375 34.0723C32.8216 33.6947 32.3789 33.2129 32.0469 32.627C31.7148 32.041 31.5488 31.3477 31.5488 30.5469H34.4883C34.4883 30.9896 34.5566 31.3639 34.6934 31.6699C34.8301 31.9759 35.0221 32.2233 35.2695 32.4121C35.5234 32.6009 35.8229 32.7376 36.168 32.8223C36.5195 32.9069 36.9036 32.9492 37.3203 32.9492C37.8281 32.9492 38.2448 32.8776 38.5703 32.7344C38.9023 32.5911 39.1465 32.3926 39.3027 32.1387C39.4655 31.8848 39.5469 31.5983 39.5469 31.2793ZM50.8262 20.7812V35H47.9062V20.7812H50.8262ZM55.2012 20.7812V23.0762H43.5996V20.7812H55.2012Z" fill="#FAFAFA"/>
</svg>
