<svg width="84" height="29" viewBox="0 0 84 29" fill="none" xmlns="http://www.w3.org/2000/svg">
<path d="M13.5529 0.108V8.472H12.4609V0.108H13.5529ZM21.63 8.472H20.538L16.146 1.812V8.472H15.054V0.096H16.146L20.538 6.744V0.096H21.63V8.472ZM22.7235 4.284C22.7235 3.468 22.9075 2.736 23.2755 2.088C23.6435 1.432 24.1435 0.92 24.7755 0.552C25.4155 0.184 26.1235 0 26.8995 0C27.8115 0 28.6075 0.22 29.2875 0.66C29.9675 1.1 30.4635 1.724 30.7755 2.532H29.4675C29.2355 2.028 28.8995 1.64 28.4595 1.368C28.0275 1.096 27.5075 0.96 26.8995 0.96C26.3155 0.96 25.7915 1.096 25.3275 1.368C24.8635 1.64 24.4995 2.028 24.2355 2.532C23.9715 3.028 23.8395 3.612 23.8395 4.284C23.8395 4.948 23.9715 5.532 24.2355 6.036C24.4995 6.532 24.8635 6.916 25.3275 7.188C25.7915 7.46 26.3155 7.596 26.8995 7.596C27.5075 7.596 28.0275 7.464 28.4595 7.2C28.8995 6.928 29.2355 6.54 29.4675 6.036H30.7755C30.4635 6.836 29.9675 7.456 29.2875 7.896C28.6075 8.328 27.8115 8.544 26.8995 8.544C26.1235 8.544 25.4155 8.364 24.7755 8.004C24.1435 7.636 23.6435 7.128 23.2755 6.48C22.9075 5.832 22.7235 5.1 22.7235 4.284ZM36.4451 8.472L34.4531 5.052H33.1331V8.472H32.0411V0.108H34.7411C35.3731 0.108 35.9051 0.216 36.3371 0.432C36.7771 0.648 37.1051 0.94 37.3211 1.308C37.5371 1.676 37.6451 2.096 37.6451 2.568C37.6451 3.144 37.4771 3.652 37.1411 4.092C36.8131 4.532 36.3171 4.824 35.6531 4.968L37.7531 8.472H36.4451ZM33.1331 4.176H34.7411C35.3331 4.176 35.7771 4.032 36.0731 3.744C36.3691 3.448 36.5171 3.056 36.5171 2.568C36.5171 2.072 36.3691 1.688 36.0731 1.416C35.7851 1.144 35.3411 1.008 34.7411 1.008H33.1331V4.176ZM40.0738 0.996V3.792H43.1218V4.692H40.0738V7.572H43.4818V8.472H38.9818V0.096H43.4818V0.996H40.0738ZM49.7179 6.612H46.0699L45.3979 8.472H44.2459L47.2699 0.156H48.5299L51.5419 8.472H50.3899L49.7179 6.612ZM49.4059 5.724L47.8939 1.5L46.3819 5.724H49.4059ZM55.1519 8.556C54.5999 8.556 54.1039 8.46 53.6639 8.268C53.2319 8.068 52.8919 7.796 52.6439 7.452C52.3959 7.1 52.2679 6.696 52.2599 6.24H53.4239C53.4639 6.632 53.6239 6.964 53.9039 7.236C54.1919 7.5 54.6079 7.632 55.1519 7.632C55.6719 7.632 56.0799 7.504 56.3759 7.248C56.6799 6.984 56.8319 6.648 56.8319 6.24C56.8319 5.92 56.7439 5.66 56.5679 5.46C56.3919 5.26 56.1719 5.108 55.9079 5.004C55.6439 4.9 55.2879 4.788 54.8399 4.668C54.2879 4.524 53.8439 4.38 53.5079 4.236C53.1799 4.092 52.8959 3.868 52.6559 3.564C52.4239 3.252 52.3079 2.836 52.3079 2.316C52.3079 1.86 52.4239 1.456 52.6559 1.104C52.8879 0.752 53.2119 0.48 53.6279 0.288C54.0519 0.0959999 54.5359 0 55.0799 0C55.8639 0 56.5039 0.196 56.9999 0.588C57.5039 0.98 57.7879 1.5 57.8519 2.148H56.6519C56.6119 1.828 56.4439 1.548 56.1479 1.308C55.8519 1.06 55.4599 0.936 54.9719 0.936C54.5159 0.936 54.1439 1.056 53.8559 1.296C53.5679 1.528 53.4239 1.856 53.4239 2.28C53.4239 2.584 53.5079 2.832 53.6759 3.024C53.8519 3.216 54.0639 3.364 54.3119 3.468C54.5679 3.564 54.9239 3.676 55.3799 3.804C55.9319 3.956 56.3759 4.108 56.7119 4.26C57.0479 4.404 57.3359 4.632 57.5759 4.944C57.8159 5.248 57.9359 5.664 57.9359 6.192C57.9359 6.6 57.8279 6.984 57.6119 7.344C57.3959 7.704 57.0759 7.996 56.6519 8.22C56.2279 8.444 55.7279 8.556 55.1519 8.556ZM60.2749 0.996V3.792H63.3229V4.692H60.2749V7.572H63.6829V8.472H59.1829V0.096H63.6829V0.996H60.2749ZM67.5799 0.108C68.4919 0.108 69.2799 0.28 69.9439 0.624C70.6159 0.96 71.1279 1.444 71.4799 2.076C71.8399 2.708 72.0199 3.452 72.0199 4.308C72.0199 5.164 71.8399 5.908 71.4799 6.54C71.1279 7.164 70.6159 7.644 69.9439 7.98C69.2799 8.308 68.4919 8.472 67.5799 8.472H64.9759V0.108H67.5799ZM67.5799 7.572C68.6599 7.572 69.4839 7.288 70.0519 6.72C70.6199 6.144 70.9039 5.34 70.9039 4.308C70.9039 3.268 70.6159 2.456 70.0399 1.872C69.4719 1.288 68.6519 0.996 67.5799 0.996H66.0679V7.572H67.5799Z" fill="#71717A"/>
<path d="M12.2563 16.0665L8.02334 28.0005H4.38534L0.152344 16.0665H3.24634L6.20434 25.0765L9.17934 16.0665H12.2563Z" fill="white"/>
<path d="M16.3783 16.0665V28.0005H13.4713V16.0665H16.3783Z" fill="white"/>
<path d="M22.803 28.1195C21.9303 28.1195 21.1483 27.9778 20.457 27.6945C19.7656 27.4112 19.2103 26.9918 18.791 26.4365C18.383 25.8812 18.1677 25.2125 18.145 24.4305H21.239C21.2843 24.8725 21.4373 25.2125 21.698 25.4505C21.9587 25.6772 22.2987 25.7905 22.718 25.7905C23.1487 25.7905 23.4887 25.6942 23.738 25.5015C23.9873 25.2975 24.112 25.0198 24.112 24.6685C24.112 24.3738 24.01 24.1302 23.806 23.9375C23.6133 23.7448 23.3697 23.5862 23.075 23.4615C22.7917 23.3368 22.3837 23.1952 21.851 23.0365C21.0803 22.7985 20.4513 22.5605 19.964 22.3225C19.4767 22.0845 19.0573 21.7332 18.706 21.2685C18.3547 20.8038 18.179 20.1975 18.179 19.4495C18.179 18.3388 18.5813 17.4718 19.386 16.8485C20.1907 16.2138 21.239 15.8965 22.531 15.8965C23.8457 15.8965 24.9053 16.2138 25.71 16.8485C26.5147 17.4718 26.9453 18.3445 27.002 19.4665H23.857C23.8343 19.0812 23.6926 18.7808 23.432 18.5655C23.1713 18.3388 22.837 18.2255 22.429 18.2255C22.0777 18.2255 21.7943 18.3218 21.579 18.5145C21.3637 18.6958 21.256 18.9622 21.256 19.3135C21.256 19.6988 21.4373 19.9992 21.8 20.2145C22.1627 20.4298 22.7293 20.6622 23.5 20.9115C24.2707 21.1722 24.894 21.4215 25.37 21.6595C25.8573 21.8975 26.2767 22.2432 26.628 22.6965C26.9793 23.1498 27.155 23.7335 27.155 24.4475C27.155 25.1275 26.9793 25.7452 26.628 26.3005C26.288 26.8558 25.7893 27.2978 25.132 27.6265C24.4747 27.9552 23.6983 28.1195 22.803 28.1195Z" fill="white"/>
<path d="M31.851 16.0665V28.0005H28.944V16.0665H31.851Z" fill="white"/>
<path d="M41.1826 21.8805C41.874 22.0278 42.4293 22.3735 42.8486 22.9175C43.268 23.4502 43.4776 24.0622 43.4776 24.7535C43.4776 25.7508 43.1263 26.5442 42.4236 27.1335C41.7323 27.7115 40.7633 28.0005 39.5166 28.0005H33.9576V16.0665H39.3296C40.5423 16.0665 41.4886 16.3442 42.1686 16.8995C42.86 17.4548 43.2056 18.2085 43.2056 19.1605C43.2056 19.8632 43.0186 20.4468 42.6446 20.9115C42.282 21.3762 41.7946 21.6992 41.1826 21.8805ZM36.8646 20.8945H38.7686C39.2446 20.8945 39.6073 20.7925 39.8566 20.5885C40.1173 20.3732 40.2476 20.0615 40.2476 19.6535C40.2476 19.2455 40.1173 18.9338 39.8566 18.7185C39.6073 18.5032 39.2446 18.3955 38.7686 18.3955H36.8646V20.8945ZM39.0066 25.6545C39.494 25.6545 39.868 25.5468 40.1286 25.3315C40.4006 25.1048 40.5366 24.7818 40.5366 24.3625C40.5366 23.9432 40.395 23.6145 40.1116 23.3765C39.8396 23.1385 39.46 23.0195 38.9726 23.0195H36.8646V25.6545H39.0066Z" fill="white"/>
<path d="M48.0707 16.0665V28.0005H45.1637V16.0665H48.0707Z" fill="white"/>
<path d="M53.0844 25.7565H56.8924V28.0005H50.1774V16.0665H53.0844V25.7565Z" fill="white"/>
<path d="M61.1859 16.0665V28.0005H58.2789V16.0665H61.1859Z" fill="white"/>
<path d="M71.8776 16.0665V18.3955H68.7156V28.0005H65.8086V18.3955H62.6466V16.0665H71.8776Z" fill="white"/>
<path d="M83.5705 16.0665L79.4395 24.0565V28.0005H76.5325V24.0565L72.4016 16.0665H75.6995L78.0115 21.0645L80.3065 16.0665H83.5705Z" fill="white"/>
</svg>
