<svg width="137" height="36" viewBox="0 0 137 36" fill="none" xmlns="http://www.w3.org/2000/svg">
<path d="M59.976 3.312V13H58.702V5.776L55.482 13H54.586L51.352 5.762V13H50.078V3.312H51.45L55.034 11.32L58.618 3.312H59.976ZM66.1406 13.098C65.2353 13.098 64.4093 12.888 63.6626 12.468C62.9159 12.0387 62.3233 11.446 61.8846 10.69C61.4553 9.92467 61.2406 9.066 61.2406 8.114C61.2406 7.162 61.4553 6.308 61.8846 5.552C62.3233 4.78667 62.9159 4.194 63.6626 3.774C64.4093 3.34467 65.2353 3.13 66.1406 3.13C67.0553 3.13 67.8859 3.34467 68.6326 3.774C69.3793 4.194 69.9673 4.782 70.3966 5.538C70.8259 6.294 71.0406 7.15267 71.0406 8.114C71.0406 9.07533 70.8259 9.934 70.3966 10.69C69.9673 11.446 69.3793 12.0387 68.6326 12.468C67.8859 12.888 67.0553 13.098 66.1406 13.098ZM66.1406 11.992C66.8219 11.992 67.4333 11.8333 67.9746 11.516C68.5253 11.1987 68.9546 10.746 69.2626 10.158C69.5799 9.57 69.7386 8.88867 69.7386 8.114C69.7386 7.33 69.5799 6.64867 69.2626 6.07C68.9546 5.482 68.5299 5.02933 67.9886 4.712C67.4473 4.39467 66.8313 4.236 66.1406 4.236C65.4499 4.236 64.8339 4.39467 64.2926 4.712C63.7513 5.02933 63.3219 5.482 63.0046 6.07C62.6966 6.64867 62.5426 7.33 62.5426 8.114C62.5426 8.88867 62.6966 9.57 63.0046 10.158C63.3219 10.746 63.7513 11.1987 64.2926 11.516C64.8433 11.8333 65.4593 11.992 66.1406 11.992ZM77.4405 13L75.1165 9.01H73.5765V13H72.3025V3.242H75.4525C76.1898 3.242 76.8105 3.368 77.3145 3.62C77.8278 3.872 78.2105 4.21267 78.4625 4.642C78.7145 5.07133 78.8405 5.56133 78.8405 6.112C78.8405 6.784 78.6445 7.37667 78.2525 7.89C77.8698 8.40333 77.2911 8.744 76.5165 8.912L78.9665 13H77.4405ZM73.5765 7.988H75.4525C76.1431 7.988 76.6611 7.82 77.0065 7.484C77.3518 7.13867 77.5245 6.68133 77.5245 6.112C77.5245 5.53333 77.3518 5.08533 77.0065 4.768C76.6705 4.45067 76.1525 4.292 75.4525 4.292H73.5765V7.988ZM81.674 4.278V7.54H85.23V8.59H81.674V11.95H85.65V13H80.4V3.228H85.65V4.278H81.674Z" fill="#71717A"/>
<path d="M9.51172 30.2832H12.4316C12.373 31.2402 12.1094 32.0898 11.6406 32.832C11.1784 33.5742 10.5306 34.1536 9.69727 34.5703C8.87044 34.987 7.87435 35.1953 6.70898 35.1953C5.79753 35.1953 4.98047 35.0391 4.25781 34.7266C3.53516 34.4076 2.91667 33.9518 2.40234 33.3594C1.89453 32.7669 1.50716 32.0508 1.24023 31.2109C0.973307 30.3711 0.839844 29.4303 0.839844 28.3887V27.4023C0.839844 26.3607 0.976562 25.4199 1.25 24.5801C1.52995 23.7337 1.92708 23.0143 2.44141 22.4219C2.96224 21.8294 3.58398 21.3737 4.30664 21.0547C5.0293 20.7357 5.83659 20.5762 6.72852 20.5762C7.91341 20.5762 8.91276 20.791 9.72656 21.2207C10.5469 21.6504 11.1816 22.2428 11.6309 22.998C12.0866 23.7533 12.36 24.6126 12.4512 25.5762H9.52148C9.48893 25.0033 9.375 24.5182 9.17969 24.1211C8.98438 23.7174 8.68815 23.4147 8.29102 23.2129C7.90039 23.0046 7.37956 22.9004 6.72852 22.9004C6.24023 22.9004 5.8138 22.9915 5.44922 23.1738C5.08464 23.3561 4.77865 23.6328 4.53125 24.0039C4.28385 24.375 4.09831 24.8438 3.97461 25.4102C3.85742 25.9701 3.79883 26.6276 3.79883 27.3828V28.3887C3.79883 29.1243 3.85417 29.7721 3.96484 30.332C4.07552 30.8854 4.24479 31.3542 4.47266 31.7383C4.70703 32.1159 5.00651 32.4023 5.37109 32.5977C5.74219 32.7865 6.18815 32.8809 6.70898 32.8809C7.32096 32.8809 7.82552 32.7832 8.22266 32.5879C8.61979 32.3926 8.92253 32.1029 9.13086 31.7188C9.3457 31.3346 9.47266 30.8561 9.51172 30.2832ZM26.0352 27.5586V28.2324C26.0352 29.3132 25.8887 30.2832 25.5957 31.1426C25.3027 32.002 24.8893 32.7344 24.3555 33.3398C23.8216 33.9388 23.1836 34.3978 22.4414 34.7168C21.7057 35.0358 20.8887 35.1953 19.9902 35.1953C19.0983 35.1953 18.2812 35.0358 17.5391 34.7168C16.8034 34.3978 16.1654 33.9388 15.625 33.3398C15.0846 32.7344 14.6647 32.002 14.3652 31.1426C14.0723 30.2832 13.9258 29.3132 13.9258 28.2324V27.5586C13.9258 26.4714 14.0723 25.5013 14.3652 24.6484C14.6582 23.7891 15.0716 23.0566 15.6055 22.4512C16.1458 21.8457 16.7839 21.3835 17.5195 21.0645C18.2617 20.7454 19.0788 20.5859 19.9707 20.5859C20.8691 20.5859 21.6862 20.7454 22.4219 21.0645C23.1641 21.3835 23.8021 21.8457 24.3359 22.4512C24.8763 23.0566 25.293 23.7891 25.5859 24.6484C25.8854 25.5013 26.0352 26.4714 26.0352 27.5586ZM23.0762 28.2324V27.5391C23.0762 26.7839 23.0078 26.1198 22.8711 25.5469C22.7344 24.974 22.5326 24.4922 22.2656 24.1016C21.9987 23.7109 21.6732 23.418 21.2891 23.2227C20.9049 23.0208 20.4655 22.9199 19.9707 22.9199C19.4759 22.9199 19.0365 23.0208 18.6523 23.2227C18.2747 23.418 17.9525 23.7109 17.6855 24.1016C17.4251 24.4922 17.2266 24.974 17.0898 25.5469C16.9531 26.1198 16.8848 26.7839 16.8848 27.5391V28.2324C16.8848 28.9811 16.9531 29.6452 17.0898 30.2246C17.2266 30.7975 17.4284 31.2826 17.6953 31.6797C17.9622 32.0703 18.2878 32.3665 18.6719 32.5684C19.056 32.7702 19.4954 32.8711 19.9902 32.8711C20.485 32.8711 20.9245 32.7702 21.3086 32.5684C21.6927 32.3665 22.015 32.0703 22.2754 31.6797C22.5358 31.2826 22.7344 30.7975 22.8711 30.2246C23.0078 29.6452 23.0762 28.9811 23.0762 28.2324ZM39.7168 20.7812V35H36.7871L31.0742 25.4688V35H28.1445V20.7812H31.0742L36.7969 30.3223V20.7812H39.7168ZM47.3926 32.0312L50.7422 20.7812H54.0039L49.0527 35H46.9043L47.3926 32.0312ZM44.3066 20.7812L47.6465 32.0312L48.1543 35H45.9863L41.0645 20.7812H44.3066ZM64.873 32.7148V35H57.3047V32.7148H64.873ZM58.2617 20.7812V35H55.332V20.7812H58.2617ZM63.8867 26.5723V28.7988H57.3047V26.5723H63.8867ZM64.8633 20.7812V23.0762H57.3047V20.7812H64.8633ZM66.582 20.7812H71.8848C72.972 20.7812 73.9062 20.944 74.6875 21.2695C75.4753 21.5951 76.0807 22.0768 76.5039 22.7148C76.9271 23.3529 77.1387 24.1374 77.1387 25.0684C77.1387 25.8301 77.0085 26.4844 76.748 27.0312C76.4941 27.5716 76.1328 28.0241 75.6641 28.3887C75.2018 28.7467 74.6582 29.0332 74.0332 29.248L73.1055 29.7363H68.4961L68.4766 27.4512H71.9043C72.4186 27.4512 72.8451 27.36 73.1836 27.1777C73.5221 26.9954 73.776 26.7415 73.9453 26.416C74.1211 26.0905 74.209 25.7129 74.209 25.2832C74.209 24.8275 74.1243 24.4336 73.9551 24.1016C73.7858 23.7695 73.5286 23.5156 73.1836 23.3398C72.8385 23.1641 72.4056 23.0762 71.8848 23.0762H69.5117V35H66.582V20.7812ZM74.5312 35L71.2891 28.6621L74.3848 28.6426L77.666 34.8633V35H74.5312ZM86.7969 31.2793C86.7969 31.0254 86.7578 30.7975 86.6797 30.5957C86.6081 30.3874 86.4714 30.1986 86.2695 30.0293C86.0677 29.8535 85.7845 29.681 85.4199 29.5117C85.0553 29.3424 84.5833 29.1667 84.0039 28.9844C83.3594 28.776 82.7474 28.5417 82.168 28.2812C81.5951 28.0208 81.0872 27.7181 80.6445 27.373C80.2083 27.0215 79.8633 26.6146 79.6094 26.1523C79.362 25.6901 79.2383 25.153 79.2383 24.541C79.2383 23.9486 79.3685 23.4115 79.6289 22.9297C79.8893 22.4414 80.2539 22.0247 80.7227 21.6797C81.1914 21.3281 81.7448 21.0579 82.3828 20.8691C83.0273 20.6803 83.7337 20.5859 84.502 20.5859C85.5501 20.5859 86.4648 20.7747 87.2461 21.1523C88.0273 21.5299 88.6328 22.0475 89.0625 22.7051C89.4987 23.3626 89.7168 24.1146 89.7168 24.9609H86.8066C86.8066 24.5443 86.7188 24.1797 86.543 23.8672C86.3737 23.5482 86.1133 23.2975 85.7617 23.1152C85.4167 22.9329 84.9805 22.8418 84.4531 22.8418C83.9453 22.8418 83.5221 22.9199 83.1836 23.0762C82.8451 23.2259 82.5911 23.431 82.4219 23.6914C82.2526 23.9453 82.168 24.2318 82.168 24.5508C82.168 24.7917 82.2266 25.0098 82.3438 25.2051C82.4674 25.4004 82.6497 25.5827 82.8906 25.752C83.1315 25.9212 83.4277 26.0807 83.7793 26.2305C84.1309 26.3802 84.5378 26.5267 85 26.6699C85.7747 26.9043 86.4551 27.168 87.041 27.4609C87.6335 27.7539 88.1283 28.0827 88.5254 28.4473C88.9225 28.8118 89.222 29.2253 89.4238 29.6875C89.6257 30.1497 89.7266 30.6738 89.7266 31.2598C89.7266 31.8783 89.6061 32.4316 89.3652 32.9199C89.1243 33.4082 88.776 33.8216 88.3203 34.1602C87.8646 34.4987 87.321 34.7559 86.6895 34.9316C86.0579 35.1074 85.3516 35.1953 84.5703 35.1953C83.8672 35.1953 83.1738 35.1042 82.4902 34.9219C81.8066 34.7331 81.1849 34.4499 80.625 34.0723C80.0716 33.6947 79.6289 33.2129 79.2969 32.627C78.9648 32.041 78.7988 31.3477 78.7988 30.5469H81.7383C81.7383 30.9896 81.8066 31.3639 81.9434 31.6699C82.0801 31.9759 82.2721 32.2233 82.5195 32.4121C82.7734 32.6009 83.0729 32.7376 83.418 32.8223C83.7695 32.9069 84.1536 32.9492 84.5703 32.9492C85.0781 32.9492 85.4948 32.8776 85.8203 32.7344C86.1523 32.5911 86.3965 32.3926 86.5527 32.1387C86.7155 31.8848 86.7969 31.5983 86.7969 31.2793ZM94.834 20.7812V35H91.9141V20.7812H94.834ZM109.258 27.5586V28.2324C109.258 29.3132 109.111 30.2832 108.818 31.1426C108.525 32.002 108.112 32.7344 107.578 33.3398C107.044 33.9388 106.406 34.3978 105.664 34.7168C104.928 35.0358 104.111 35.1953 103.213 35.1953C102.321 35.1953 101.504 35.0358 100.762 34.7168C100.026 34.3978 99.388 33.9388 98.8477 33.3398C98.3073 32.7344 97.8874 32.002 97.5879 31.1426C97.2949 30.2832 97.1484 29.3132 97.1484 28.2324V27.5586C97.1484 26.4714 97.2949 25.5013 97.5879 24.6484C97.8809 23.7891 98.2943 23.0566 98.8281 22.4512C99.3685 21.8457 100.007 21.3835 100.742 21.0645C101.484 20.7454 102.301 20.5859 103.193 20.5859C104.092 20.5859 104.909 20.7454 105.645 21.0645C106.387 21.3835 107.025 21.8457 107.559 22.4512C108.099 23.0566 108.516 23.7891 108.809 24.6484C109.108 25.5013 109.258 26.4714 109.258 27.5586ZM106.299 28.2324V27.5391C106.299 26.7839 106.23 26.1198 106.094 25.5469C105.957 24.974 105.755 24.4922 105.488 24.1016C105.221 23.7109 104.896 23.418 104.512 23.2227C104.128 23.0208 103.688 22.9199 103.193 22.9199C102.699 22.9199 102.259 23.0208 101.875 23.2227C101.497 23.418 101.175 23.7109 100.908 24.1016C100.648 24.4922 100.449 24.974 100.312 25.5469C100.176 26.1198 100.107 26.7839 100.107 27.5391V28.2324C100.107 28.9811 100.176 29.6452 100.312 30.2246C100.449 30.7975 100.651 31.2826 100.918 31.6797C101.185 32.0703 101.51 32.3665 101.895 32.5684C102.279 32.7702 102.718 32.8711 103.213 32.8711C103.708 32.8711 104.147 32.7702 104.531 32.5684C104.915 32.3665 105.238 32.0703 105.498 31.6797C105.758 31.2826 105.957 30.7975 106.094 30.2246C106.23 29.6452 106.299 28.9811 106.299 28.2324ZM122.939 20.7812V35H120.01L114.297 25.4688V35H111.367V20.7812H114.297L120.02 30.3223V20.7812H122.939ZM132.891 31.2793C132.891 31.0254 132.852 30.7975 132.773 30.5957C132.702 30.3874 132.565 30.1986 132.363 30.0293C132.161 29.8535 131.878 29.681 131.514 29.5117C131.149 29.3424 130.677 29.1667 130.098 28.9844C129.453 28.776 128.841 28.5417 128.262 28.2812C127.689 28.0208 127.181 27.7181 126.738 27.373C126.302 27.0215 125.957 26.6146 125.703 26.1523C125.456 25.6901 125.332 25.153 125.332 24.541C125.332 23.9486 125.462 23.4115 125.723 22.9297C125.983 22.4414 126.348 22.0247 126.816 21.6797C127.285 21.3281 127.839 21.0579 128.477 20.8691C129.121 20.6803 129.827 20.5859 130.596 20.5859C131.644 20.5859 132.559 20.7747 133.34 21.1523C134.121 21.5299 134.727 22.0475 135.156 22.7051C135.592 23.3626 135.811 24.1146 135.811 24.9609H132.9C132.9 24.5443 132.812 24.1797 132.637 23.8672C132.467 23.5482 132.207 23.2975 131.855 23.1152C131.51 22.9329 131.074 22.8418 130.547 22.8418C130.039 22.8418 129.616 22.9199 129.277 23.0762C128.939 23.2259 128.685 23.431 128.516 23.6914C128.346 23.9453 128.262 24.2318 128.262 24.5508C128.262 24.7917 128.32 25.0098 128.438 25.2051C128.561 25.4004 128.743 25.5827 128.984 25.752C129.225 25.9212 129.521 26.0807 129.873 26.2305C130.225 26.3802 130.632 26.5267 131.094 26.6699C131.868 26.9043 132.549 27.168 133.135 27.4609C133.727 27.7539 134.222 28.0827 134.619 28.4473C135.016 28.8118 135.316 29.2253 135.518 29.6875C135.719 30.1497 135.82 30.6738 135.82 31.2598C135.82 31.8783 135.7 32.4316 135.459 32.9199C135.218 33.4082 134.87 33.8216 134.414 34.1602C133.958 34.4987 133.415 34.7559 132.783 34.9316C132.152 35.1074 131.445 35.1953 130.664 35.1953C129.961 35.1953 129.268 35.1042 128.584 34.9219C127.9 34.7331 127.279 34.4499 126.719 34.0723C126.165 33.6947 125.723 33.2129 125.391 32.627C125.059 32.041 124.893 31.3477 124.893 30.5469H127.832C127.832 30.9896 127.9 31.3639 128.037 31.6699C128.174 31.9759 128.366 32.2233 128.613 32.4121C128.867 32.6009 129.167 32.7376 129.512 32.8223C129.863 32.9069 130.247 32.9492 130.664 32.9492C131.172 32.9492 131.589 32.8776 131.914 32.7344C132.246 32.5911 132.49 32.3926 132.646 32.1387C132.809 31.8848 132.891 31.5983 132.891 31.2793Z" fill="#FAFAFA"/>
</svg>
