<svg width="77" height="36" viewBox="0 0 77 36" fill="none" xmlns="http://www.w3.org/2000/svg">
<path d="M2.352 3.242V13H1.078V3.242H2.352ZM11.7753 13H10.5013L5.37731 5.23V13H4.10331V3.228H5.37731L10.5013 10.984V3.228H11.7753V13ZM21.1991 13H19.9251L14.8011 5.23V13H13.5271V3.228H14.8011L19.9251 10.984V3.228H21.1991V13ZM27.3748 13.098C26.4695 13.098 25.6435 12.888 24.8968 12.468C24.1501 12.0387 23.5575 11.446 23.1188 10.69C22.6895 9.92467 22.4748 9.066 22.4748 8.114C22.4748 7.162 22.6895 6.308 23.1188 5.552C23.5575 4.78667 24.1501 4.194 24.8968 3.774C25.6435 3.34467 26.4695 3.13 27.3748 3.13C28.2895 3.13 29.1201 3.34467 29.8668 3.774C30.6135 4.194 31.2015 4.782 31.6308 5.538C32.0601 6.294 32.2748 7.15267 32.2748 8.114C32.2748 9.07533 32.0601 9.934 31.6308 10.69C31.2015 11.446 30.6135 12.0387 29.8668 12.468C29.1201 12.888 28.2895 13.098 27.3748 13.098ZM27.3748 11.992C28.0561 11.992 28.6675 11.8333 29.2088 11.516C29.7595 11.1987 30.1888 10.746 30.4968 10.158C30.8141 9.57 30.9728 8.88867 30.9728 8.114C30.9728 7.33 30.8141 6.64867 30.4968 6.07C30.1888 5.482 29.7641 5.02933 29.2228 4.712C28.6815 4.39467 28.0655 4.236 27.3748 4.236C26.6841 4.236 26.0681 4.39467 25.5268 4.712C24.9855 5.02933 24.5561 5.482 24.2388 6.07C23.9308 6.64867 23.7768 7.33 23.7768 8.114C23.7768 8.88867 23.9308 9.57 24.2388 10.158C24.5561 10.746 24.9855 11.1987 25.5268 11.516C26.0775 11.8333 26.6935 11.992 27.3748 11.992ZM41.6007 3.242L37.9187 13H36.4487L32.7667 3.242H34.1247L37.1907 11.656L40.2567 3.242H41.6007ZM48.3456 10.83H44.0896L43.3056 13H41.9616L45.4896 3.298H46.9596L50.4736 13H49.1296L48.3456 10.83ZM47.9816 9.794L46.2176 4.866L44.4536 9.794H47.9816ZM57.5972 3.242V4.278H54.9372V13H53.6632V4.278H50.9892V3.242H57.5972ZM60.0194 3.242V13H58.7454V3.242H60.0194ZM69.8347 3.242L66.1527 13H64.6827L61.0007 3.242H62.3587L65.4247 11.656L68.4907 3.242H69.8347ZM72.0857 4.278V7.54H75.6417V8.59H72.0857V11.95H76.0617V13H70.8117V3.228H76.0617V4.278H72.0857Z" fill="#71717A"/>
<path d="M14.8848 20.7812V35H11.9648V20.7812H14.8848ZM21.9941 35H18.8984L18.918 32.7148H21.9941C22.7624 32.7148 23.4102 32.5423 23.9375 32.1973C24.4648 31.8457 24.862 31.3346 25.1289 30.6641C25.4023 29.9935 25.5391 29.1829 25.5391 28.2324V27.5391C25.5391 26.8099 25.4609 26.1686 25.3047 25.6152C25.1549 25.0618 24.9303 24.5964 24.6309 24.2188C24.3314 23.8411 23.9635 23.5579 23.5273 23.3691C23.0911 23.1738 22.5898 23.0762 22.0234 23.0762H18.8398V20.7812H22.0234C22.974 20.7812 23.8431 20.944 24.6309 21.2695C25.4251 21.5885 26.112 22.0475 26.6914 22.6465C27.2708 23.2454 27.7168 23.9616 28.0293 24.7949C28.3483 25.6217 28.5078 26.543 28.5078 27.5586V28.2324C28.5078 29.2415 28.3483 30.1628 28.0293 30.9961C27.7168 31.8294 27.2708 32.5456 26.6914 33.1445C26.1185 33.737 25.4316 34.196 24.6309 34.5215C23.8366 34.8405 22.9577 35 21.9941 35ZM20.5586 20.7812V35H17.6289V20.7812H20.5586ZM40.1777 32.7148V35H32.6094V32.7148H40.1777ZM33.5664 20.7812V35H30.6367V20.7812H33.5664ZM39.1914 26.5723V28.7988H32.6094V26.5723H39.1914ZM40.168 20.7812V23.0762H32.6094V20.7812H40.168ZM47.668 23.2129L43.8008 35H40.6855L45.9688 20.7812H47.9512L47.668 23.2129ZM50.8809 35L47.0039 23.2129L46.6914 20.7812H48.6934L54.0059 35H50.8809ZM50.7051 29.707V32.002H43.1953V29.707H50.7051ZM62.7266 31.2793C62.7266 31.0254 62.6875 30.7975 62.6094 30.5957C62.5378 30.3874 62.401 30.1986 62.1992 30.0293C61.9974 29.8535 61.7142 29.681 61.3496 29.5117C60.985 29.3424 60.513 29.1667 59.9336 28.9844C59.2891 28.776 58.6771 28.5417 58.0977 28.2812C57.5247 28.0208 57.0169 27.7181 56.5742 27.373C56.138 27.0215 55.793 26.6146 55.5391 26.1523C55.2917 25.6901 55.168 25.153 55.168 24.541C55.168 23.9486 55.2982 23.4115 55.5586 22.9297C55.819 22.4414 56.1836 22.0247 56.6523 21.6797C57.1211 21.3281 57.6745 21.0579 58.3125 20.8691C58.957 20.6803 59.6634 20.5859 60.4316 20.5859C61.4798 20.5859 62.3945 20.7747 63.1758 21.1523C63.957 21.5299 64.5625 22.0475 64.9922 22.7051C65.4284 23.3626 65.6465 24.1146 65.6465 24.9609H62.7363C62.7363 24.5443 62.6484 24.1797 62.4727 23.8672C62.3034 23.5482 62.043 23.2975 61.6914 23.1152C61.3464 22.9329 60.9102 22.8418 60.3828 22.8418C59.875 22.8418 59.4518 22.9199 59.1133 23.0762C58.7747 23.2259 58.5208 23.431 58.3516 23.6914C58.1823 23.9453 58.0977 24.2318 58.0977 24.5508C58.0977 24.7917 58.1562 25.0098 58.2734 25.2051C58.3971 25.4004 58.5794 25.5827 58.8203 25.752C59.0612 25.9212 59.3574 26.0807 59.709 26.2305C60.0605 26.3802 60.4674 26.5267 60.9297 26.6699C61.7044 26.9043 62.3848 27.168 62.9707 27.4609C63.5632 27.7539 64.0579 28.0827 64.4551 28.4473C64.8522 28.8118 65.1517 29.2253 65.3535 29.6875C65.5553 30.1497 65.6562 30.6738 65.6562 31.2598C65.6562 31.8783 65.5358 32.4316 65.2949 32.9199C65.054 33.4082 64.7057 33.8216 64.25 34.1602C63.7943 34.4987 63.2507 34.7559 62.6191 34.9316C61.9876 35.1074 61.2812 35.1953 60.5 35.1953C59.7969 35.1953 59.1035 35.1042 58.4199 34.9219C57.7363 34.7331 57.1146 34.4499 56.5547 34.0723C56.0013 33.6947 55.5586 33.2129 55.2266 32.627C54.8945 32.041 54.7285 31.3477 54.7285 30.5469H57.668C57.668 30.9896 57.7363 31.3639 57.873 31.6699C58.0098 31.9759 58.2018 32.2233 58.4492 32.4121C58.7031 32.6009 59.0026 32.7376 59.3477 32.8223C59.6992 32.9069 60.0833 32.9492 60.5 32.9492C61.0078 32.9492 61.4245 32.8776 61.75 32.7344C62.082 32.5911 62.3262 32.3926 62.4824 32.1387C62.6452 31.8848 62.7266 31.5983 62.7266 31.2793Z" fill="#FAFAFA"/>
</svg>
