<svg width="103" height="36" viewBox="0 0 103 36" fill="none" xmlns="http://www.w3.org/2000/svg">
<path d="M27.216 13L24.892 9.01H23.352V13H22.078V3.242H25.228C25.9653 3.242 26.586 3.368 27.09 3.62C27.6033 3.872 27.986 4.21267 28.238 4.642C28.49 5.07133 28.616 5.56133 28.616 6.112C28.616 6.784 28.42 7.37667 28.028 7.89C27.6453 8.40333 27.0667 8.744 26.292 8.912L28.742 13H27.216ZM23.352 7.988H25.228C25.9187 7.988 26.4367 7.82 26.782 7.484C27.1273 7.13867 27.3 6.68133 27.3 6.112C27.3 5.53333 27.1273 5.08533 26.782 4.768C26.446 4.45067 25.928 4.292 25.228 4.292H23.352V7.988ZM31.4496 4.278V7.54H35.0056V8.59H31.4496V11.95H35.4256V13H30.1756V3.228H35.4256V4.278H31.4496ZM39.9713 3.242C41.0353 3.242 41.9546 3.44267 42.7293 3.844C43.5133 4.236 44.1106 4.80067 44.5213 5.538C44.9413 6.27533 45.1513 7.14333 45.1513 8.142C45.1513 9.14067 44.9413 10.0087 44.5213 10.746C44.1106 11.474 43.5133 12.034 42.7293 12.426C41.9546 12.8087 41.0353 13 39.9713 13H36.9333V3.242H39.9713ZM39.9713 11.95C41.2313 11.95 42.1926 11.6187 42.8553 10.956C43.518 10.284 43.8493 9.346 43.8493 8.142C43.8493 6.92867 43.5133 5.98133 42.8413 5.3C42.1786 4.61867 41.222 4.278 39.9713 4.278H38.2073V11.95H39.9713ZM47.6577 3.242V9.416C47.6577 10.284 47.8677 10.928 48.2877 11.348C48.7171 11.768 49.3097 11.978 50.0658 11.978C50.8124 11.978 51.3958 11.768 51.8158 11.348C52.2451 10.928 52.4597 10.284 52.4597 9.416V3.242H53.7338V9.402C53.7338 10.214 53.5704 10.9 53.2437 11.46C52.9171 12.0107 52.4738 12.4213 51.9138 12.692C51.3631 12.9627 50.7424 13.098 50.0517 13.098C49.3611 13.098 48.7357 12.9627 48.1757 12.692C47.6251 12.4213 47.1864 12.0107 46.8597 11.46C46.5424 10.9 46.3837 10.214 46.3837 9.402V3.242H47.6577ZM54.963 8.114C54.963 7.162 55.1777 6.308 55.607 5.552C56.0363 4.78667 56.6197 4.18933 57.357 3.76C58.1037 3.33067 58.9297 3.116 59.835 3.116C60.899 3.116 61.8277 3.37267 62.621 3.886C63.4143 4.39933 63.993 5.12733 64.357 6.07H62.831C62.5603 5.482 62.1683 5.02933 61.655 4.712C61.151 4.39467 60.5443 4.236 59.835 4.236C59.1537 4.236 58.5423 4.39467 58.001 4.712C57.4597 5.02933 57.035 5.482 56.727 6.07C56.419 6.64867 56.265 7.33 56.265 8.114C56.265 8.88867 56.419 9.57 56.727 10.158C57.035 10.7367 57.4597 11.1847 58.001 11.502C58.5423 11.8193 59.1537 11.978 59.835 11.978C60.5443 11.978 61.151 11.824 61.655 11.516C62.1683 11.1987 62.5603 10.746 62.831 10.158H64.357C63.993 11.0913 63.4143 11.8147 62.621 12.328C61.8277 12.832 60.899 13.084 59.835 13.084C58.9297 13.084 58.1037 12.874 57.357 12.454C56.6197 12.0247 56.0363 11.432 55.607 10.676C55.1777 9.92 54.963 9.066 54.963 8.114ZM67.1075 4.278V7.54H70.6635V8.59H67.1075V11.95H71.0835V13H65.8335V3.228H71.0835V4.278H67.1075ZM75.6292 3.242C76.6932 3.242 77.6125 3.44267 78.3872 3.844C79.1712 4.236 79.7685 4.80067 80.1792 5.538C80.5992 6.27533 80.8092 7.14333 80.8092 8.142C80.8092 9.14067 80.5992 10.0087 80.1792 10.746C79.7685 11.474 79.1712 12.034 78.3872 12.426C77.6125 12.8087 76.6932 13 75.6292 13H72.5912V3.242H75.6292ZM75.6292 11.95C76.8892 11.95 77.8505 11.6187 78.5132 10.956C79.1759 10.284 79.5072 9.346 79.5072 8.142C79.5072 6.92867 79.1712 5.98133 78.4992 5.3C77.8365 4.61867 76.8799 4.278 75.6292 4.278H73.8652V11.95H75.6292Z" fill="#71717A"/>
<path d="M12.9492 27.5586V28.2324C12.9492 29.3132 12.8027 30.2832 12.5098 31.1426C12.2168 32.002 11.8034 32.7344 11.2695 33.3398C10.7357 33.9388 10.0977 34.3978 9.35547 34.7168C8.61979 35.0358 7.80273 35.1953 6.9043 35.1953C6.01237 35.1953 5.19531 35.0358 4.45312 34.7168C3.71745 34.3978 3.07943 33.9388 2.53906 33.3398C1.9987 32.7344 1.57878 32.002 1.2793 31.1426C0.986328 30.2832 0.839844 29.3132 0.839844 28.2324V27.5586C0.839844 26.4714 0.986328 25.5013 1.2793 24.6484C1.57227 23.7891 1.98568 23.0566 2.51953 22.4512C3.0599 21.8457 3.69792 21.3835 4.43359 21.0645C5.17578 20.7454 5.99284 20.5859 6.88477 20.5859C7.7832 20.5859 8.60026 20.7454 9.33594 21.0645C10.0781 21.3835 10.7161 21.8457 11.25 22.4512C11.7904 23.0566 12.207 23.7891 12.5 24.6484C12.7995 25.5013 12.9492 26.4714 12.9492 27.5586ZM9.99023 28.2324V27.5391C9.99023 26.7839 9.92188 26.1198 9.78516 25.5469C9.64844 24.974 9.44661 24.4922 9.17969 24.1016C8.91276 23.7109 8.58724 23.418 8.20312 23.2227C7.81901 23.0208 7.37956 22.9199 6.88477 22.9199C6.38997 22.9199 5.95052 23.0208 5.56641 23.2227C5.1888 23.418 4.86654 23.7109 4.59961 24.1016C4.33919 24.4922 4.14062 24.974 4.00391 25.5469C3.86719 26.1198 3.79883 26.7839 3.79883 27.5391V28.2324C3.79883 28.9811 3.86719 29.6452 4.00391 30.2246C4.14062 30.7975 4.34245 31.2826 4.60938 31.6797C4.8763 32.0703 5.20182 32.3665 5.58594 32.5684C5.97005 32.7702 6.40951 32.8711 6.9043 32.8711C7.39909 32.8711 7.83854 32.7702 8.22266 32.5684C8.60677 32.3665 8.92904 32.0703 9.18945 31.6797C9.44987 31.2826 9.64844 30.7975 9.78516 30.2246C9.92188 29.6452 9.99023 28.9811 9.99023 28.2324ZM19.9707 32.0312L23.3203 20.7812H26.582L21.6309 35H19.4824L19.9707 32.0312ZM16.8848 20.7812L20.2246 32.0312L20.7324 35H18.5645L13.6426 20.7812H16.8848ZM37.4512 32.7148V35H29.8828V32.7148H37.4512ZM30.8398 20.7812V35H27.9102V20.7812H30.8398ZM36.4648 26.5723V28.7988H29.8828V26.5723H36.4648ZM37.4414 20.7812V23.0762H29.8828V20.7812H37.4414ZM39.1602 20.7812H44.4629C45.5501 20.7812 46.4844 20.944 47.2656 21.2695C48.0534 21.5951 48.6589 22.0768 49.082 22.7148C49.5052 23.3529 49.7168 24.1374 49.7168 25.0684C49.7168 25.8301 49.5866 26.4844 49.3262 27.0312C49.0723 27.5716 48.7109 28.0241 48.2422 28.3887C47.7799 28.7467 47.2363 29.0332 46.6113 29.248L45.6836 29.7363H41.0742L41.0547 27.4512H44.4824C44.9967 27.4512 45.4232 27.36 45.7617 27.1777C46.1003 26.9954 46.3542 26.7415 46.5234 26.416C46.6992 26.0905 46.7871 25.7129 46.7871 25.2832C46.7871 24.8275 46.7025 24.4336 46.5332 24.1016C46.3639 23.7695 46.1068 23.5156 45.7617 23.3398C45.4167 23.1641 44.9837 23.0762 44.4629 23.0762H42.0898V35H39.1602V20.7812ZM47.1094 35L43.8672 28.6621L46.9629 28.6426L50.2441 34.8633V35H47.1094ZM61.4551 26.5723V28.8574H54.0332V26.5723H61.4551ZM54.9023 20.7812V35H51.9727V20.7812H54.9023ZM63.5449 20.7812V35H60.625V20.7812H63.5449ZM75.6348 32.7148V35H68.0664V32.7148H75.6348ZM69.0234 20.7812V35H66.0938V20.7812H69.0234ZM74.6484 26.5723V28.7988H68.0664V26.5723H74.6484ZM75.625 20.7812V23.0762H68.0664V20.7812H75.625ZM83.125 23.2129L79.2578 35H76.1426L81.4258 20.7812H83.4082L83.125 23.2129ZM86.3379 35L82.4609 23.2129L82.1484 20.7812H84.1504L89.4629 35H86.3379ZM86.1621 29.707V32.002H78.6523V29.707H86.1621ZM95.1465 35H92.0508L92.0703 32.7148H95.1465C95.9147 32.7148 96.5625 32.5423 97.0898 32.1973C97.6172 31.8457 98.0143 31.3346 98.2812 30.6641C98.5547 29.9935 98.6914 29.1829 98.6914 28.2324V27.5391C98.6914 26.8099 98.6133 26.1686 98.457 25.6152C98.3073 25.0618 98.0827 24.5964 97.7832 24.2188C97.4837 23.8411 97.1159 23.5579 96.6797 23.3691C96.2435 23.1738 95.7422 23.0762 95.1758 23.0762H91.9922V20.7812H95.1758C96.1263 20.7812 96.9954 20.944 97.7832 21.2695C98.5775 21.5885 99.2643 22.0475 99.8438 22.6465C100.423 23.2454 100.869 23.9616 101.182 24.7949C101.501 25.6217 101.66 26.543 101.66 27.5586V28.2324C101.66 29.2415 101.501 30.1628 101.182 30.9961C100.869 31.8294 100.423 32.5456 99.8438 33.1445C99.2708 33.737 98.584 34.196 97.7832 34.5215C96.9889 34.8405 96.11 35 95.1465 35ZM93.7109 20.7812V35H90.7812V20.7812H93.7109Z" fill="#FAFAFA"/>
</svg>
