<svg width="109" height="36" viewBox="0 0 109 36" fill="none" xmlns="http://www.w3.org/2000/svg">
<path d="M21.352 3.242V13H20.078V3.242H21.352ZM30.7753 13H29.5013L24.3773 5.23V13H23.1033V3.228H24.3773L29.5013 10.984V3.228H30.7753V13ZM32.0511 8.114C32.0511 7.162 32.2657 6.308 32.6951 5.552C33.1244 4.78667 33.7077 4.18933 34.4451 3.76C35.1917 3.33067 36.0177 3.116 36.9231 3.116C37.9871 3.116 38.9157 3.37267 39.7091 3.886C40.5024 4.39933 41.0811 5.12733 41.4451 6.07H39.9191C39.6484 5.482 39.2564 5.02933 38.7431 4.712C38.2391 4.39467 37.6324 4.236 36.9231 4.236C36.2417 4.236 35.6304 4.39467 35.0891 4.712C34.5477 5.02933 34.1231 5.482 33.8151 6.07C33.5071 6.64867 33.3531 7.33 33.3531 8.114C33.3531 8.88867 33.5071 9.57 33.8151 10.158C34.1231 10.7367 34.5477 11.1847 35.0891 11.502C35.6304 11.8193 36.2417 11.978 36.9231 11.978C37.6324 11.978 38.2391 11.824 38.7431 11.516C39.2564 11.1987 39.6484 10.746 39.9191 10.158H41.4451C41.0811 11.0913 40.5024 11.8147 39.7091 12.328C38.9157 12.832 37.9871 13.084 36.9231 13.084C36.0177 13.084 35.1917 12.874 34.4451 12.454C33.7077 12.0247 33.1244 11.432 32.6951 10.676C32.2657 9.92 32.0511 9.066 32.0511 8.114ZM48.0595 13L45.7355 9.01H44.1955V13H42.9215V3.242H46.0715C46.8088 3.242 47.4295 3.368 47.9335 3.62C48.4468 3.872 48.8295 4.21267 49.0815 4.642C49.3335 5.07133 49.4595 5.56133 49.4595 6.112C49.4595 6.784 49.2635 7.37667 48.8715 7.89C48.4888 8.40333 47.9102 8.744 47.1355 8.912L49.5855 13H48.0595ZM44.1955 7.988H46.0715C46.7622 7.988 47.2802 7.82 47.6255 7.484C47.9708 7.13867 48.1435 6.68133 48.1435 6.112C48.1435 5.53333 47.9708 5.08533 47.6255 4.768C47.2895 4.45067 46.7715 4.292 46.0715 4.292H44.1955V7.988ZM52.2931 4.278V7.54H55.8491V8.59H52.2931V11.95H56.2691V13H51.0191V3.228H56.2691V4.278H52.2931ZM63.5448 10.83H59.2888L58.5048 13H57.1608L60.6888 3.298H62.1588L65.6728 13H64.3288L63.5448 10.83ZM63.1808 9.794L61.4168 4.866L59.6528 9.794H63.1808ZM69.8844 13.098C69.2404 13.098 68.6618 12.986 68.1484 12.762C67.6444 12.5287 67.2478 12.2113 66.9584 11.81C66.6691 11.3993 66.5198 10.928 66.5104 10.396H67.8684C67.9151 10.8533 68.1018 11.2407 68.4284 11.558C68.7644 11.866 69.2498 12.02 69.8844 12.02C70.4911 12.02 70.9671 11.8707 71.3124 11.572C71.6671 11.264 71.8444 10.872 71.8444 10.396C71.8444 10.0227 71.7418 9.71933 71.5364 9.486C71.3311 9.25267 71.0744 9.07533 70.7664 8.954C70.4584 8.83267 70.0431 8.702 69.5204 8.562C68.8764 8.394 68.3584 8.226 67.9664 8.058C67.5838 7.89 67.2524 7.62867 66.9724 7.274C66.7018 6.91 66.5664 6.42467 66.5664 5.818C66.5664 5.286 66.7018 4.81467 66.9724 4.404C67.2431 3.99333 67.6211 3.676 68.1064 3.452C68.6011 3.228 69.1658 3.116 69.8004 3.116C70.7151 3.116 71.4618 3.34467 72.0404 3.802C72.6284 4.25933 72.9598 4.866 73.0344 5.622H71.6344C71.5878 5.24867 71.3918 4.922 71.0464 4.642C70.7011 4.35267 70.2438 4.208 69.6744 4.208C69.1424 4.208 68.7084 4.348 68.3724 4.628C68.0364 4.89867 67.8684 5.28133 67.8684 5.776C67.8684 6.13067 67.9664 6.42 68.1624 6.644C68.3678 6.868 68.6151 7.04067 68.9044 7.162C69.2031 7.274 69.6184 7.40467 70.1504 7.554C70.7944 7.73133 71.3124 7.90867 71.7044 8.086C72.0964 8.254 72.4324 8.52 72.7124 8.884C72.9924 9.23867 73.1324 9.724 73.1324 10.34C73.1324 10.816 73.0064 11.264 72.7544 11.684C72.5024 12.104 72.1291 12.4447 71.6344 12.706C71.1398 12.9673 70.5564 13.098 69.8844 13.098ZM75.8612 4.278V7.54H79.4172V8.59H75.8612V11.95H79.8372V13H74.5872V3.228H79.8372V4.278H75.8612ZM84.383 3.242C85.447 3.242 86.3663 3.44267 87.141 3.844C87.925 4.236 88.5223 4.80067 88.933 5.538C89.353 6.27533 89.563 7.14333 89.563 8.142C89.563 9.14067 89.353 10.0087 88.933 10.746C88.5223 11.474 87.925 12.034 87.141 12.426C86.3663 12.8087 85.447 13 84.383 13H81.345V3.242H84.383ZM84.383 11.95C85.643 11.95 86.6043 11.6187 87.267 10.956C87.9296 10.284 88.261 9.346 88.261 8.142C88.261 6.92867 87.925 5.98133 87.253 5.3C86.5903 4.61867 85.6336 4.278 84.383 4.278H82.619V11.95H84.383Z" fill="#71717A"/>
<path d="M10.8105 32.7148V35H3.24219V32.7148H10.8105ZM4.19922 20.7812V35H1.26953V20.7812H4.19922ZM9.82422 26.5723V28.7988H3.24219V26.5723H9.82422ZM10.8008 20.7812V23.0762H3.24219V20.7812H10.8008ZM15.4492 20.7812V35H12.5195V20.7812H15.4492ZM21.1133 26.8555V29.1406H14.6484V26.8555H21.1133ZM21.7969 20.7812V23.0762H14.6484V20.7812H21.7969ZM26.4258 20.7812V35H23.4961V20.7812H26.4258ZM32.0898 26.8555V29.1406H25.625V26.8555H32.0898ZM32.7734 20.7812V23.0762H25.625V20.7812H32.7734ZM37.5879 20.7812V35H34.668V20.7812H37.5879ZM48.5742 30.2832H51.4941C51.4355 31.2402 51.1719 32.0898 50.7031 32.832C50.2409 33.5742 49.5931 34.1536 48.7598 34.5703C47.9329 34.987 46.9368 35.1953 45.7715 35.1953C44.86 35.1953 44.043 35.0391 43.3203 34.7266C42.5977 34.4076 41.9792 33.9518 41.4648 33.3594C40.957 32.7669 40.5697 32.0508 40.3027 31.2109C40.0358 30.3711 39.9023 29.4303 39.9023 28.3887V27.4023C39.9023 26.3607 40.0391 25.4199 40.3125 24.5801C40.5924 23.7337 40.9896 23.0143 41.5039 22.4219C42.0247 21.8294 42.6465 21.3737 43.3691 21.0547C44.0918 20.7357 44.8991 20.5762 45.791 20.5762C46.9759 20.5762 47.9753 20.791 48.7891 21.2207C49.6094 21.6504 50.2441 22.2428 50.6934 22.998C51.1491 23.7533 51.4225 24.6126 51.5137 25.5762H48.584C48.5514 25.0033 48.4375 24.5182 48.2422 24.1211C48.0469 23.7174 47.7507 23.4147 47.3535 23.2129C46.9629 23.0046 46.4421 22.9004 45.791 22.9004C45.3027 22.9004 44.8763 22.9915 44.5117 23.1738C44.1471 23.3561 43.8411 23.6328 43.5938 24.0039C43.3464 24.375 43.1608 24.8438 43.0371 25.4102C42.9199 25.9701 42.8613 26.6276 42.8613 27.3828V28.3887C42.8613 29.1243 42.9167 29.7721 43.0273 30.332C43.138 30.8854 43.3073 31.3542 43.5352 31.7383C43.7695 32.1159 44.069 32.4023 44.4336 32.5977C44.8047 32.7865 45.2507 32.8809 45.7715 32.8809C46.3835 32.8809 46.888 32.7832 47.2852 32.5879C47.6823 32.3926 47.985 32.1029 48.1934 31.7188C48.4082 31.3346 48.5352 30.8561 48.5742 30.2832ZM56.5332 20.7812V35H53.6133V20.7812H56.5332ZM68.8184 32.7148V35H61.25V32.7148H68.8184ZM62.207 20.7812V35H59.2773V20.7812H62.207ZM67.832 26.5723V28.7988H61.25V26.5723H67.832ZM68.8086 20.7812V23.0762H61.25V20.7812H68.8086ZM82.0996 20.7812V35H79.1699L73.457 25.4688V35H70.5273V20.7812H73.457L79.1797 30.3223V20.7812H82.0996ZM92.8906 30.2832H95.8105C95.752 31.2402 95.4883 32.0898 95.0195 32.832C94.5573 33.5742 93.9095 34.1536 93.0762 34.5703C92.2493 34.987 91.2533 35.1953 90.0879 35.1953C89.1764 35.1953 88.3594 35.0391 87.6367 34.7266C86.9141 34.4076 86.2956 33.9518 85.7812 33.3594C85.2734 32.7669 84.8861 32.0508 84.6191 31.2109C84.3522 30.3711 84.2188 29.4303 84.2188 28.3887V27.4023C84.2188 26.3607 84.3555 25.4199 84.6289 24.5801C84.9089 23.7337 85.306 23.0143 85.8203 22.4219C86.3411 21.8294 86.9629 21.3737 87.6855 21.0547C88.4082 20.7357 89.2155 20.5762 90.1074 20.5762C91.2923 20.5762 92.2917 20.791 93.1055 21.2207C93.9258 21.6504 94.5605 22.2428 95.0098 22.998C95.4655 23.7533 95.7389 24.6126 95.8301 25.5762H92.9004C92.8678 25.0033 92.7539 24.5182 92.5586 24.1211C92.3633 23.7174 92.0671 23.4147 91.6699 23.2129C91.2793 23.0046 90.7585 22.9004 90.1074 22.9004C89.6191 22.9004 89.1927 22.9915 88.8281 23.1738C88.4635 23.3561 88.1576 23.6328 87.9102 24.0039C87.6628 24.375 87.4772 24.8438 87.3535 25.4102C87.2363 25.9701 87.1777 26.6276 87.1777 27.3828V28.3887C87.1777 29.1243 87.2331 29.7721 87.3438 30.332C87.4544 30.8854 87.6237 31.3542 87.8516 31.7383C88.0859 32.1159 88.3854 32.4023 88.75 32.5977C89.1211 32.7865 89.5671 32.8809 90.0879 32.8809C90.6999 32.8809 91.2044 32.7832 91.6016 32.5879C91.9987 32.3926 92.3014 32.1029 92.5098 31.7188C92.7246 31.3346 92.8516 30.8561 92.8906 30.2832ZM99.6875 20.7812L102.656 27.2656L105.625 20.7812H108.818L104.141 29.8242V35H101.172V29.8242L96.4844 20.7812H99.6875Z" fill="#FAFAFA"/>
</svg>
