<svg width="104" height="29" viewBox="0 0 104 29" fill="none" xmlns="http://www.w3.org/2000/svg">
<path d="M15.8762 0.116133V1.071H11.976V4.10336H15.1425V5.05824H11.976V9.10999H10.8047V0.116133H15.8762ZM18.0761 1.071V4.07756H21.3456V5.04533H18.0761V8.14221H21.7317V9.10999H16.9048V0.103229H21.7317V1.071H18.0761ZM34.3937 0.116133L31.7936 9.10999H30.4806L28.3954 1.87103L26.2329 9.10999L24.9329 9.12289L22.4228 0.116133H23.6714L25.6279 7.7422L27.7904 0.116133H29.1034L31.1629 7.71639L33.1322 0.116133H34.3937ZM36.4608 1.071V4.07756H39.7303V5.04533H36.4608V8.14221H40.1164V9.10999H35.2895V0.103229H40.1164V1.071H36.4608ZM46.2266 9.10999L44.0899 5.43244H42.674V9.10999H41.5026V0.116133H44.3988C45.0767 0.116133 45.6474 0.232266 46.1108 0.464532C46.5827 0.696798 46.9346 1.01079 47.1662 1.4065C47.3979 1.80221 47.5138 2.25384 47.5138 2.76138C47.5138 3.38076 47.3336 3.92701 46.9732 4.40015C46.6213 4.87328 46.0893 5.18727 45.3771 5.34212L47.6296 9.10999H46.2266ZM42.674 4.49047H44.3988C45.0338 4.49047 45.5101 4.33563 45.8276 4.02594C46.1451 3.70765 46.3038 3.28613 46.3038 2.76138C46.3038 2.22803 46.1451 1.81511 45.8276 1.52263C45.5186 1.23015 45.0424 1.08391 44.3988 1.08391H42.674V4.49047ZM63.2694 0.116133L60.6693 9.10999H59.3563L57.2707 1.87103L55.1082 9.10999L53.8081 9.12289L51.2981 0.116133H52.5467L54.5032 7.7422L56.6657 0.116133H57.9786L60.0386 7.71639L62.0079 0.116133H63.2694ZM69.4683 7.10992H65.5552L64.8344 9.10999H63.5987L66.8424 0.167747H68.194L71.4248 9.10999H70.1891L69.4683 7.10992ZM69.1336 6.15505L67.5118 1.61296L65.8899 6.15505H69.1336ZM75.2971 9.20031C74.705 9.20031 74.1729 9.09708 73.701 8.89062C73.2376 8.67556 72.8729 8.38308 72.6069 8.01317C72.3409 7.63467 72.2036 7.20024 72.195 6.7099H73.4435C73.4865 7.13142 73.6581 7.48842 73.9584 7.78091C74.2673 8.06479 74.7136 8.20673 75.2971 8.20673C75.8549 8.20673 76.2925 8.06909 76.61 7.79381C76.9361 7.50993 77.0992 7.14863 77.0992 6.7099C77.0992 6.36581 77.0048 6.08623 76.816 5.87117C76.6272 5.65611 76.3912 5.49266 76.108 5.38083C75.8248 5.26899 75.443 5.14856 74.9624 5.01952C74.3703 4.86468 73.8941 4.70984 73.5336 4.55499C73.1818 4.40015 72.8772 4.15928 72.6197 3.83239C72.3709 3.49689 72.2465 3.04957 72.2465 2.49041C72.2465 2.00007 72.3709 1.56564 72.6197 1.18714C72.8686 0.808629 73.2161 0.516146 73.6624 0.309688C74.1172 0.103229 74.6363 0 75.2199 0C76.0608 0 76.7473 0.21076 77.2794 0.632279C77.82 1.0538 78.1246 1.61296 78.1933 2.30976H76.9061C76.8632 1.96566 76.683 1.66457 76.3655 1.4065C76.048 1.13982 75.6275 1.00649 75.104 1.00649C74.6149 1.00649 74.2159 1.13552 73.9069 1.3936C73.598 1.64307 73.4435 1.99577 73.4435 2.4517C73.4435 2.77859 73.5336 3.04526 73.7139 3.25172C73.9026 3.45818 74.13 3.61733 74.3961 3.72916C74.6707 3.83239 75.0525 3.95282 75.5417 4.09046C76.1338 4.25391 76.61 4.41735 76.9704 4.5808C77.3309 4.73564 77.6398 4.98081 77.8972 5.31631C78.1547 5.6432 78.2834 6.09053 78.2834 6.65829C78.2834 7.09701 78.1675 7.50993 77.9358 7.89704C77.7041 8.28415 77.3609 8.59814 76.9061 8.83901C76.4513 9.07988 75.9149 9.20031 75.2971 9.20031ZM85.143 0.116133V1.071H82.6973V9.10999H81.526V1.071H79.0675V0.116133H85.143ZM87.3698 1.071V4.07756H90.6393V5.04533H87.3698V8.14221H91.0255V9.10999H86.1985V0.103229H91.0255V1.071H87.3698ZM95.2045 0.116133C96.1828 0.116133 97.028 0.301085 97.7403 0.67099C98.4611 1.03229 99.0103 1.55274 99.3879 2.23233C99.7741 2.91193 99.9671 3.71195 99.9671 4.63241C99.9671 5.55288 99.7741 6.3529 99.3879 7.0325C99.0103 7.70349 98.4611 8.21963 97.7403 8.58094C97.028 8.93364 96.1828 9.10999 95.2045 9.10999H92.4113V0.116133H95.2045ZM95.2045 8.14221C96.363 8.14221 97.2469 7.83682 97.8561 7.22605C98.4654 6.60667 98.77 5.74213 98.77 4.63241C98.77 3.5141 98.4611 2.64095 97.8433 2.01297C97.234 1.38499 96.3544 1.071 95.2045 1.071H93.5827V8.14221H95.2045Z" fill="#71717A"/>
<path d="M8.48444 25.8925H4.03044L3.31644 28.0005H0.273438L4.59144 16.0665H7.95744L12.2754 28.0005H9.19844L8.48444 25.8925ZM7.73644 23.6485L6.25744 19.2795L4.79544 23.6485H7.73644Z" fill="white"/>
<path d="M18.0606 16.0665C19.3186 16.0665 20.418 16.3158 21.3586 16.8145C22.2993 17.3132 23.0246 18.0158 23.5346 18.9225C24.056 19.8178 24.3166 20.8548 24.3166 22.0335C24.3166 23.2008 24.056 24.2378 23.5346 25.1445C23.0246 26.0512 22.2936 26.7538 21.3416 27.2525C20.401 27.7512 19.3073 28.0005 18.0606 28.0005H13.5896V16.0665H18.0606ZM17.8736 25.4845C18.9729 25.4845 19.8286 25.1842 20.4406 24.5835C21.0526 23.9828 21.3586 23.1328 21.3586 22.0335C21.3586 20.9342 21.0526 20.0785 20.4406 19.4665C19.8286 18.8545 18.9729 18.5485 17.8736 18.5485H16.4966V25.4845H17.8736Z" fill="white"/>
<path d="M34.0147 16.0665C35.2727 16.0665 36.3721 16.3158 37.3127 16.8145C38.2534 17.3132 38.9787 18.0158 39.4887 18.9225C40.0101 19.8178 40.2707 20.8548 40.2707 22.0335C40.2707 23.2008 40.0101 24.2378 39.4887 25.1445C38.9787 26.0512 38.2477 26.7538 37.2957 27.2525C36.3551 27.7512 35.2614 28.0005 34.0147 28.0005H29.5437V16.0665H34.0147ZM33.8277 25.4845C34.9271 25.4845 35.7827 25.1842 36.3947 24.5835C37.0067 23.9828 37.3127 23.1328 37.3127 22.0335C37.3127 20.9342 37.0067 20.0785 36.3947 19.4665C35.7827 18.8545 34.9271 18.5485 33.8277 18.5485H32.4507V25.4845H33.8277Z" fill="white"/>
<path d="M47.5393 28.1195C46.4173 28.1195 45.3859 27.8588 44.4453 27.3375C43.5159 26.8162 42.7736 26.0908 42.2183 25.1615C41.6743 24.2208 41.4023 23.1668 41.4023 21.9995C41.4023 20.8322 41.6743 19.7838 42.2183 18.8545C42.7736 17.9252 43.5159 17.1998 44.4453 16.6785C45.3859 16.1572 46.4173 15.8965 47.5393 15.8965C48.6613 15.8965 49.687 16.1572 50.6163 16.6785C51.5569 17.1998 52.2936 17.9252 52.8263 18.8545C53.3703 19.7838 53.6423 20.8322 53.6423 21.9995C53.6423 23.1668 53.3703 24.2208 52.8263 25.1615C52.2823 26.0908 51.5456 26.8162 50.6163 27.3375C49.687 27.8588 48.6613 28.1195 47.5393 28.1195ZM47.5393 25.4675C48.4913 25.4675 49.2506 25.1502 49.8173 24.5155C50.3953 23.8808 50.6843 23.0422 50.6843 21.9995C50.6843 20.9455 50.3953 20.1068 49.8173 19.4835C49.2506 18.8488 48.4913 18.5315 47.5393 18.5315C46.5759 18.5315 45.8053 18.8432 45.2273 19.4665C44.6606 20.0898 44.3773 20.9342 44.3773 21.9995C44.3773 23.0535 44.6606 23.8978 45.2273 24.5325C45.8053 25.1558 46.5759 25.4675 47.5393 25.4675Z" fill="white"/>
<path d="M58.1665 25.7565H61.9745V28.0005H55.2595V16.0665H58.1665V25.7565Z" fill="white"/>
<path d="M66.2681 25.7565H70.0761V28.0005H63.3611V16.0665H66.2681V25.7565Z" fill="white"/>
<path d="M78.8917 25.8925H74.4377L73.7237 28.0005H70.6807L74.9987 16.0665H78.3647L82.6827 28.0005H79.6057L78.8917 25.8925ZM78.1437 23.6485L76.6647 19.2795L75.2027 23.6485H78.1437Z" fill="white"/>
<path d="M90.0828 28.0005L87.6008 23.4955H86.9038V28.0005H83.9968V16.0665H88.8758C89.8165 16.0665 90.6155 16.2308 91.2728 16.5595C91.9415 16.8882 92.4402 17.3415 92.7688 17.9195C93.0975 18.4862 93.2618 19.1208 93.2618 19.8235C93.2618 20.6168 93.0352 21.3252 92.5818 21.9485C92.1398 22.5718 91.4825 23.0138 90.6098 23.2745L93.3638 28.0005H90.0828ZM86.9038 21.4385H88.7058C89.2385 21.4385 89.6352 21.3082 89.8958 21.0475C90.1678 20.7868 90.3038 20.4185 90.3038 19.9425C90.3038 19.4892 90.1678 19.1322 89.8958 18.8715C89.6352 18.6108 89.2385 18.4805 88.7058 18.4805H86.9038V21.4385Z" fill="white"/>
<path d="M99.4047 28.1195C98.532 28.1195 97.75 27.9778 97.0587 27.6945C96.3674 27.4112 95.812 26.9918 95.3927 26.4365C94.9847 25.8812 94.7694 25.2125 94.7467 24.4305H97.8407C97.886 24.8725 98.039 25.2125 98.2997 25.4505C98.5604 25.6772 98.9004 25.7905 99.3197 25.7905C99.7504 25.7905 100.09 25.6942 100.34 25.5015C100.589 25.2975 100.714 25.0198 100.714 24.6685C100.714 24.3738 100.612 24.1302 100.408 23.9375C100.215 23.7448 99.9714 23.5862 99.6767 23.4615C99.3934 23.3368 98.9854 23.1952 98.4527 23.0365C97.682 22.7985 97.053 22.5605 96.5657 22.3225C96.0784 22.0845 95.659 21.7332 95.3077 21.2685C94.9564 20.8038 94.7807 20.1975 94.7807 19.4495C94.7807 18.3388 95.183 17.4718 95.9877 16.8485C96.7924 16.2138 97.8407 15.8965 99.1327 15.8965C100.447 15.8965 101.507 16.2138 102.312 16.8485C103.116 17.4718 103.547 18.3445 103.604 19.4665H100.459C100.436 19.0812 100.294 18.7808 100.034 18.5655C99.773 18.3388 99.4387 18.2255 99.0307 18.2255C98.6794 18.2255 98.396 18.3218 98.1807 18.5145C97.9654 18.6958 97.8577 18.9622 97.8577 19.3135C97.8577 19.6988 98.039 19.9992 98.4017 20.2145C98.7644 20.4298 99.331 20.6622 100.102 20.9115C100.872 21.1722 101.496 21.4215 101.972 21.6595C102.459 21.8975 102.878 22.2432 103.23 22.6965C103.581 23.1498 103.757 23.7335 103.757 24.4475C103.757 25.1275 103.581 25.7452 103.23 26.3005C102.89 26.8558 102.391 27.2978 101.734 27.6265C101.076 27.9552 100.3 28.1195 99.4047 28.1195Z" fill="white"/>
</svg>
