<svg width="151" height="36" viewBox="0 0 151 36" fill="none" xmlns="http://www.w3.org/2000/svg">
<path d="M34.594 3.242V4.278H30.352V7.568H33.796V8.604H30.352V13H29.078V3.242H34.594ZM36.9867 4.278V7.54H40.5427V8.59H36.9867V11.95H40.9627V13H35.7127V3.228H40.9627V4.278H36.9867ZM54.7344 3.242L51.9064 13H50.4784L48.2104 5.146L45.8584 13L44.4444 13.014L41.7144 3.242H43.0724L45.2004 11.516L47.5524 3.242H48.9804L51.2204 11.488L53.3624 3.242H54.7344ZM56.9826 4.278V7.54H60.5386V8.59H56.9826V11.95H60.9586V13H55.7086V3.228H60.9586V4.278H56.9826ZM67.6044 13L65.2804 9.01H63.7404V13H62.4664V3.242H65.6164C66.3537 3.242 66.9744 3.368 67.4784 3.62C67.9917 3.872 68.3744 4.21267 68.6264 4.642C68.8784 5.07133 69.0044 5.56133 69.0044 6.112C69.0044 6.784 68.8084 7.37667 68.4164 7.89C68.0337 8.40333 67.455 8.744 66.6804 8.912L69.1304 13H67.6044ZM63.7404 7.988H65.6164C66.307 7.988 66.825 7.82 67.1704 7.484C67.5157 7.13867 67.6884 6.68133 67.6884 6.112C67.6884 5.53333 67.5157 5.08533 67.1704 4.768C66.8344 4.45067 66.3164 4.292 65.6164 4.292H63.7404V7.988ZM83.7744 3.312V13H82.5004V5.776L79.2804 13H78.3844L75.1504 5.762V13H73.8764V3.312H75.2484L78.8324 11.32L82.4164 3.312H83.7744ZM86.789 3.242V13H85.515V3.242H86.789ZM89.8143 3.242V13H88.5403V3.242H89.8143ZM94.6596 13.098C94.0156 13.098 93.4369 12.986 92.9236 12.762C92.4196 12.5287 92.0229 12.2113 91.7336 11.81C91.4442 11.3993 91.2949 10.928 91.2856 10.396H92.6436C92.6902 10.8533 92.8769 11.2407 93.2036 11.558C93.5396 11.866 94.0249 12.02 94.6596 12.02C95.2662 12.02 95.7422 11.8707 96.0876 11.572C96.4422 11.264 96.6196 10.872 96.6196 10.396C96.6196 10.0227 96.5169 9.71933 96.3116 9.486C96.1062 9.25267 95.8496 9.07533 95.5416 8.954C95.2336 8.83267 94.8182 8.702 94.2956 8.562C93.6516 8.394 93.1336 8.226 92.7416 8.058C92.3589 7.89 92.0276 7.62867 91.7476 7.274C91.4769 6.91 91.3416 6.42467 91.3416 5.818C91.3416 5.286 91.4769 4.81467 91.7476 4.404C92.0182 3.99333 92.3962 3.676 92.8816 3.452C93.3762 3.228 93.9409 3.116 94.5756 3.116C95.4902 3.116 96.2369 3.34467 96.8156 3.802C97.4036 4.25933 97.7349 4.866 97.8096 5.622H96.4096C96.3629 5.24867 96.1669 4.922 95.8216 4.642C95.4762 4.35267 95.0189 4.208 94.4496 4.208C93.9176 4.208 93.4836 4.348 93.1476 4.628C92.8116 4.89867 92.6436 5.28133 92.6436 5.776C92.6436 6.13067 92.7416 6.42 92.9376 6.644C93.1429 6.868 93.3902 7.04067 93.6796 7.162C93.9782 7.274 94.3936 7.40467 94.9256 7.554C95.5696 7.73133 96.0876 7.90867 96.4796 8.086C96.8716 8.254 97.2076 8.52 97.4876 8.884C97.7676 9.23867 97.9076 9.724 97.9076 10.34C97.9076 10.816 97.7816 11.264 97.5296 11.684C97.2776 12.104 96.9042 12.4447 96.4096 12.706C95.9149 12.9673 95.3316 13.098 94.6596 13.098ZM102.456 13.098C101.812 13.098 101.234 12.986 100.72 12.762C100.216 12.5287 99.8197 12.2113 99.5304 11.81C99.241 11.3993 99.0917 10.928 99.0824 10.396H100.44C100.487 10.8533 100.674 11.2407 101 11.558C101.336 11.866 101.822 12.02 102.456 12.02C103.063 12.02 103.539 11.8707 103.884 11.572C104.239 11.264 104.416 10.872 104.416 10.396C104.416 10.0227 104.314 9.71933 104.108 9.486C103.903 9.25267 103.646 9.07533 103.338 8.954C103.03 8.83267 102.615 8.702 102.092 8.562C101.448 8.394 100.93 8.226 100.538 8.058C100.156 7.89 99.8244 7.62867 99.5444 7.274C99.2737 6.91 99.1384 6.42467 99.1384 5.818C99.1384 5.286 99.2737 4.81467 99.5444 4.404C99.815 3.99333 100.193 3.676 100.678 3.452C101.173 3.228 101.738 3.116 102.372 3.116C103.287 3.116 104.034 3.34467 104.612 3.802C105.2 4.25933 105.532 4.866 105.606 5.622H104.206C104.16 5.24867 103.964 4.922 103.618 4.642C103.273 4.35267 102.816 4.208 102.246 4.208C101.714 4.208 101.28 4.348 100.944 4.628C100.608 4.89867 100.44 5.28133 100.44 5.776C100.44 6.13067 100.538 6.42 100.734 6.644C100.94 6.868 101.187 7.04067 101.476 7.162C101.775 7.274 102.19 7.40467 102.722 7.554C103.366 7.73133 103.884 7.90867 104.276 8.086C104.668 8.254 105.004 8.52 105.284 8.884C105.564 9.23867 105.704 9.724 105.704 10.34C105.704 10.816 105.578 11.264 105.326 11.684C105.074 12.104 104.701 12.4447 104.206 12.706C103.712 12.9673 103.128 13.098 102.456 13.098ZM108.433 4.278V7.54H111.989V8.59H108.433V11.95H112.409V13H107.159V3.228H112.409V4.278H108.433ZM116.955 3.242C118.019 3.242 118.938 3.44267 119.713 3.844C120.497 4.236 121.094 4.80067 121.505 5.538C121.925 6.27533 122.135 7.14333 122.135 8.142C122.135 9.14067 121.925 10.0087 121.505 10.746C121.094 11.474 120.497 12.034 119.713 12.426C118.938 12.8087 118.019 13 116.955 13H113.917V3.242H116.955ZM116.955 11.95C118.215 11.95 119.176 11.6187 119.839 10.956C120.502 10.284 120.833 9.346 120.833 8.142C120.833 6.92867 120.497 5.98133 119.825 5.3C119.162 4.61867 118.206 4.278 116.955 4.278H115.191V11.95H116.955Z" fill="#71717A"/>
<path d="M12.9492 27.5586V28.2324C12.9492 29.3132 12.8027 30.2832 12.5098 31.1426C12.2168 32.002 11.8034 32.7344 11.2695 33.3398C10.7357 33.9388 10.0977 34.3978 9.35547 34.7168C8.61979 35.0358 7.80273 35.1953 6.9043 35.1953C6.01237 35.1953 5.19531 35.0358 4.45312 34.7168C3.71745 34.3978 3.07943 33.9388 2.53906 33.3398C1.9987 32.7344 1.57878 32.002 1.2793 31.1426C0.986328 30.2832 0.839844 29.3132 0.839844 28.2324V27.5586C0.839844 26.4714 0.986328 25.5013 1.2793 24.6484C1.57227 23.7891 1.98568 23.0566 2.51953 22.4512C3.0599 21.8457 3.69792 21.3835 4.43359 21.0645C5.17578 20.7454 5.99284 20.5859 6.88477 20.5859C7.7832 20.5859 8.60026 20.7454 9.33594 21.0645C10.0781 21.3835 10.7161 21.8457 11.25 22.4512C11.7904 23.0566 12.207 23.7891 12.5 24.6484C12.7995 25.5013 12.9492 26.4714 12.9492 27.5586ZM9.99023 28.2324V27.5391C9.99023 26.7839 9.92188 26.1198 9.78516 25.5469C9.64844 24.974 9.44661 24.4922 9.17969 24.1016C8.91276 23.7109 8.58724 23.418 8.20312 23.2227C7.81901 23.0208 7.37956 22.9199 6.88477 22.9199C6.38997 22.9199 5.95052 23.0208 5.56641 23.2227C5.1888 23.418 4.86654 23.7109 4.59961 24.1016C4.33919 24.4922 4.14062 24.974 4.00391 25.5469C3.86719 26.1198 3.79883 26.7839 3.79883 27.5391V28.2324C3.79883 28.9811 3.86719 29.6452 4.00391 30.2246C4.14062 30.7975 4.34245 31.2826 4.60938 31.6797C4.8763 32.0703 5.20182 32.3665 5.58594 32.5684C5.97005 32.7702 6.40951 32.8711 6.9043 32.8711C7.39909 32.8711 7.83854 32.7702 8.22266 32.5684C8.60677 32.3665 8.92904 32.0703 9.18945 31.6797C9.44987 31.2826 9.64844 30.7975 9.78516 30.2246C9.92188 29.6452 9.99023 28.9811 9.99023 28.2324ZM20.5957 29.9316H16.9727V27.6465H20.5957C21.1556 27.6465 21.6113 27.5553 21.9629 27.373C22.3145 27.1842 22.5716 26.9238 22.7344 26.5918C22.8971 26.2598 22.9785 25.8854 22.9785 25.4688C22.9785 25.0456 22.8971 24.6517 22.7344 24.2871C22.5716 23.9225 22.3145 23.6296 21.9629 23.4082C21.6113 23.1868 21.1556 23.0762 20.5957 23.0762H17.9883V35H15.0586V20.7812H20.5957C21.709 20.7812 22.6628 20.9831 23.457 21.3867C24.2578 21.7839 24.8698 22.334 25.293 23.0371C25.7161 23.7402 25.9277 24.5443 25.9277 25.4492C25.9277 26.3672 25.7161 27.1615 25.293 27.832C24.8698 28.5026 24.2578 29.0202 23.457 29.3848C22.6628 29.7493 21.709 29.9316 20.5957 29.9316ZM33.4863 29.9316H29.8633V27.6465H33.4863C34.0462 27.6465 34.502 27.5553 34.8535 27.373C35.2051 27.1842 35.4622 26.9238 35.625 26.5918C35.7878 26.2598 35.8691 25.8854 35.8691 25.4688C35.8691 25.0456 35.7878 24.6517 35.625 24.2871C35.4622 23.9225 35.2051 23.6296 34.8535 23.4082C34.502 23.1868 34.0462 23.0762 33.4863 23.0762H30.8789V35H27.9492V20.7812H33.4863C34.5996 20.7812 35.5534 20.9831 36.3477 21.3867C37.1484 21.7839 37.7604 22.334 38.1836 23.0371C38.6068 23.7402 38.8184 24.5443 38.8184 25.4492C38.8184 26.3672 38.6068 27.1615 38.1836 27.832C37.7604 28.5026 37.1484 29.0202 36.3477 29.3848C35.5534 29.7493 34.5996 29.9316 33.4863 29.9316ZM50.3809 32.7148V35H42.8125V32.7148H50.3809ZM43.7695 20.7812V35H40.8398V20.7812H43.7695ZM49.3945 26.5723V28.7988H42.8125V26.5723H49.3945ZM50.3711 20.7812V23.0762H42.8125V20.7812H50.3711ZM52.0898 20.7812H57.3926C58.4798 20.7812 59.4141 20.944 60.1953 21.2695C60.9831 21.5951 61.5885 22.0768 62.0117 22.7148C62.4349 23.3529 62.6465 24.1374 62.6465 25.0684C62.6465 25.8301 62.5163 26.4844 62.2559 27.0312C62.002 27.5716 61.6406 28.0241 61.1719 28.3887C60.7096 28.7467 60.166 29.0332 59.541 29.248L58.6133 29.7363H54.0039L53.9844 27.4512H57.4121C57.9264 27.4512 58.3529 27.36 58.6914 27.1777C59.0299 26.9954 59.2839 26.7415 59.4531 26.416C59.6289 26.0905 59.7168 25.7129 59.7168 25.2832C59.7168 24.8275 59.6322 24.4336 59.4629 24.1016C59.2936 23.7695 59.0365 23.5156 58.6914 23.3398C58.3464 23.1641 57.9134 23.0762 57.3926 23.0762H55.0195V35H52.0898V20.7812ZM60.0391 35L56.7969 28.6621L59.8926 28.6426L63.1738 34.8633V35H60.0391ZM70.6738 20.7812V35H67.7539V20.7812H70.6738ZM75.0488 20.7812V23.0762H63.4473V20.7812H75.0488ZM84.5703 20.7812H87.4902V30.1758C87.4902 31.2695 87.2559 32.1908 86.7871 32.9395C86.3249 33.6882 85.6836 34.2513 84.8633 34.6289C84.0495 35.0065 83.112 35.1953 82.0508 35.1953C80.9896 35.1953 80.0456 35.0065 79.2188 34.6289C78.3984 34.2513 77.7539 33.6882 77.2852 32.9395C76.8229 32.1908 76.5918 31.2695 76.5918 30.1758V20.7812H79.5215V30.1758C79.5215 30.8138 79.6224 31.3346 79.8242 31.7383C80.026 32.1419 80.3158 32.4382 80.6934 32.627C81.0775 32.8158 81.5299 32.9102 82.0508 32.9102C82.5846 32.9102 83.0371 32.8158 83.4082 32.627C83.7858 32.4382 84.0723 32.1419 84.2676 31.7383C84.4694 31.3346 84.5703 30.8138 84.5703 30.1758V20.7812ZM101.475 20.7812V35H98.5449L92.832 25.4688V35H89.9023V20.7812H92.832L98.5547 30.3223V20.7812H101.475ZM107.139 20.7812V35H104.219V20.7812H107.139ZM115.947 20.7812V35H113.027V20.7812H115.947ZM120.322 20.7812V23.0762H108.721V20.7812H120.322ZM125.107 20.7812V35H122.188V20.7812H125.107ZM137.393 32.7148V35H129.824V32.7148H137.393ZM130.781 20.7812V35H127.852V20.7812H130.781ZM136.406 26.5723V28.7988H129.824V26.5723H136.406ZM137.383 20.7812V23.0762H129.824V20.7812H137.383ZM146.504 31.2793C146.504 31.0254 146.465 30.7975 146.387 30.5957C146.315 30.3874 146.178 30.1986 145.977 30.0293C145.775 29.8535 145.492 29.681 145.127 29.5117C144.762 29.3424 144.29 29.1667 143.711 28.9844C143.066 28.776 142.454 28.5417 141.875 28.2812C141.302 28.0208 140.794 27.7181 140.352 27.373C139.915 27.0215 139.57 26.6146 139.316 26.1523C139.069 25.6901 138.945 25.153 138.945 24.541C138.945 23.9486 139.076 23.4115 139.336 22.9297C139.596 22.4414 139.961 22.0247 140.43 21.6797C140.898 21.3281 141.452 21.0579 142.09 20.8691C142.734 20.6803 143.441 20.5859 144.209 20.5859C145.257 20.5859 146.172 20.7747 146.953 21.1523C147.734 21.5299 148.34 22.0475 148.77 22.7051C149.206 23.3626 149.424 24.1146 149.424 24.9609H146.514C146.514 24.5443 146.426 24.1797 146.25 23.8672C146.081 23.5482 145.82 23.2975 145.469 23.1152C145.124 22.9329 144.688 22.8418 144.16 22.8418C143.652 22.8418 143.229 22.9199 142.891 23.0762C142.552 23.2259 142.298 23.431 142.129 23.6914C141.96 23.9453 141.875 24.2318 141.875 24.5508C141.875 24.7917 141.934 25.0098 142.051 25.2051C142.174 25.4004 142.357 25.5827 142.598 25.752C142.839 25.9212 143.135 26.0807 143.486 26.2305C143.838 26.3802 144.245 26.5267 144.707 26.6699C145.482 26.9043 146.162 27.168 146.748 27.4609C147.34 27.7539 147.835 28.0827 148.232 28.4473C148.63 28.8118 148.929 29.2253 149.131 29.6875C149.333 30.1497 149.434 30.6738 149.434 31.2598C149.434 31.8783 149.313 32.4316 149.072 32.9199C148.831 33.4082 148.483 33.8216 148.027 34.1602C147.572 34.4987 147.028 34.7559 146.396 34.9316C145.765 35.1074 145.059 35.1953 144.277 35.1953C143.574 35.1953 142.881 35.1042 142.197 34.9219C141.514 34.7331 140.892 34.4499 140.332 34.0723C139.779 33.6947 139.336 33.2129 139.004 32.627C138.672 32.041 138.506 31.3477 138.506 30.5469H141.445C141.445 30.9896 141.514 31.3639 141.65 31.6699C141.787 31.9759 141.979 32.2233 142.227 32.4121C142.48 32.6009 142.78 32.7376 143.125 32.8223C143.477 32.9069 143.861 32.9492 144.277 32.9492C144.785 32.9492 145.202 32.8776 145.527 32.7344C145.859 32.5911 146.104 32.3926 146.26 32.1387C146.423 31.8848 146.504 31.5983 146.504 31.2793Z" fill="#FAFAFA"/>
</svg>
